CirculubuntuMono-Regular.ufo
<glyph name="dotaccent" format="2">
  <advance width="500"/>
  <unicode hex="02D9"/>
  <outline>
    <contour>
      <point x="250" y="542" type="qcurve" smooth="yes"/>
      <point x="225" y="542"/>
      <point x="190" y="575"/>
      <point x="190" y="603" type="qcurve" smooth="yes"/>
      <point x="190" y="630"/>
      <point x="225" y="663"/>
      <point x="250" y="663" type="qcurve" smooth="yes"/>
      <point x="275" y="663"/>
      <point x="310" y="630"/>
      <point x="310" y="603" type="qcurve" smooth="yes"/>
      <point x="310" y="575"/>
      <point x="275" y="542"/>
    </contour>
  </outline>
</glyph>
<glyph name="delta" format="2">
  <advance width="500"/>
  <unicode hex="03B4"/>
  <outline>
    <contour>
      <point x="255" y="408" type="qcurve"/>
      <point x="191" y="390"/>
      <point x="123" y="293"/>
      <point x="123" y="226" type="qcurve" smooth="yes"/>
      <point x="123" y="193"/>
      <point x="137" y="133"/>
      <point x="167" y="87"/>
      <point x="215" y="60"/>
      <point x="250" y="60" type="qcurve" smooth="yes"/>
      <point x="282" y="60"/>
      <point x="330" y="85"/>
      <point x="361" y="129"/>
      <point x="376" y="188"/>
      <point x="376" y="221" type="qcurve" smooth="yes"/>
      <point x="376" y="262"/>
      <point x="354" y="321"/>
      <point x="319" y="365"/>
      <point x="276" y="396"/>
    </contour>
    <contour>
      <point x="190" y="450" type="qcurve"/>
      <point x="156" y="474"/>
      <point x="114" y="534"/>
      <point x="114" y="568" type="qcurve" smooth="yes"/>
      <point x="114" y="631"/>
      <point x="204" y="693"/>
      <point x="282" y="693" type="qcurve" smooth="yes"/>
      <point x="331" y="693"/>
      <point x="404" y="669"/>
      <point x="421" y="661" type="qcurve"/>
      <point x="403" y="597" type="line"/>
      <point x="398" y="600"/>
      <point x="377" y="609"/>
      <point x="346" y="619"/>
      <point x="308" y="626"/>
      <point x="286" y="626" type="qcurve" smooth="yes"/>
      <point x="274" y="626"/>
      <point x="243" y="623"/>
      <point x="214" y="612"/>
      <point x="195" y="591"/>
      <point x="195" y="573" type="qcurve" smooth="yes"/>
      <point x="195" y="549"/>
      <point x="242" y="512"/>
      <point x="282" y="484" type="qcurve" smooth="yes"/>
      <point x="318" y="460"/>
      <point x="382" y="411"/>
      <point x="431" y="350"/>
      <point x="460" y="271"/>
      <point x="460" y="217" type="qcurve" smooth="yes"/>
      <point x="460" y="175"/>
      <point x="437" y="93"/>
      <point x="387" y="28"/>
      <point x="307" y="-12"/>
      <point x="249" y="-12" type="qcurve" smooth="yes"/>
      <point x="195" y="-12"/>
      <point x="115" y="26"/>
      <point x="64" y="90"/>
      <point x="39" y="176"/>
      <point x="39" y="224" type="qcurve" smooth="yes"/>
      <point x="39" y="308"/>
      <point x="122" y="423"/>
    </contour>
  </outline>
</glyph>
<glyph name="upsilon" format="2">
  <advance width="500"/>
  <unicode hex="03C5"/>
  <outline>
    <contour>
      <point x="249" y="-10" type="qcurve" smooth="yes"/>
      <point x="195" y="-10"/>
      <point x="126" y="26"/>
      <point x="86" y="86"/>
      <point x="71" y="162"/>
      <point x="71" y="201" type="qcurve" smooth="yes"/>
      <point x="71" y="464" type="line"/>
      <point x="154" y="464" type="line"/>
      <point x="154" y="205" type="line" smooth="yes"/>
      <point x="154" y="127"/>
      <point x="202" y="62"/>
      <point x="249" y="62" type="qcurve" smooth="yes"/>
      <point x="297" y="62"/>
      <point x="345" y="127"/>
      <point x="345" y="205" type="qcurve" smooth="yes"/>
      <point x="345" y="464" type="line"/>
      <point x="427" y="464" type="line"/>
      <point x="427" y="201" type="line" smooth="yes"/>
      <point x="427" y="162"/>
      <point x="412" y="86"/>
      <point x="372" y="26"/>
      <point x="303" y="-10"/>
    </contour>
  </outline>
</glyph>
<glyph name="uni2460" format="2">
  <advance width="500"/>
  <unicode hex="2460"/>
  <outline>
    <contour>
      <point x="-99" y="29"/>
      <point x="-222" y="245"/>
      <point x="-222" y="380" type="qcurve" smooth="yes"/>
      <point x="-222" y="515"/>
      <point x="-99" y="730"/>
      <point x="117" y="852"/>
      <point x="251" y="852" type="qcurve" smooth="yes"/>
      <point x="386" y="852"/>
      <point x="601" y="731"/>
      <point x="722" y="515"/>
      <point x="722" y="380" type="qcurve" smooth="yes"/>
      <point x="722" y="245"/>
      <point x="601" y="29"/>
      <point x="386" y="-93"/>
      <point x="251" y="-93" type="qcurve" smooth="yes"/>
      <point x="117" y="-93"/>
    </contour>
    <contour>
      <point x="571" y="60"/>
      <point x="681" y="257"/>
      <point x="681" y="380" type="qcurve" smooth="yes"/>
      <point x="681" y="504"/>
      <point x="571" y="700"/>
      <point x="375" y="811"/>
      <point x="251" y="811" type="qcurve" smooth="yes"/>
      <point x="128" y="811"/>
      <point x="-69" y="700"/>
      <point x="-181" y="503"/>
      <point x="-181" y="380" type="qcurve" smooth="yes"/>
      <point x="-181" y="257"/>
      <point x="-69" y="60"/>
      <point x="128" y="-52"/>
      <point x="251" y="-52" type="qcurve" smooth="yes"/>
      <point x="375" y="-52"/>
    </contour>
    <contour>
      <point x="222" y="79" type="qcurve" smooth="yes"/>
      <point x="222" y="575" type="line"/>
      <point x="110" y="510" type="line" smooth="yes"/>
      <point x="106" y="508"/>
      <point x="104" y="508" type="qcurve" smooth="yes"/>
      <point x="99" y="508"/>
      <point x="94" y="514" type="qcurve" smooth="yes"/>
      <point x="85" y="530" type="line" smooth="yes"/>
      <point x="83" y="533"/>
      <point x="83" y="537" type="qcurve" smooth="yes"/>
      <point x="83" y="542"/>
      <point x="87" y="546" type="qcurve" smooth="yes"/>
      <point x="234" y="671" type="line" smooth="yes"/>
      <point x="239" y="676"/>
      <point x="249" y="676" type="qcurve" smooth="yes"/>
      <point x="281" y="676" type="line" smooth="yes"/>
      <point x="293" y="676"/>
      <point x="293" y="664" type="qcurve" smooth="yes"/>
      <point x="293" y="79" type="line" smooth="yes"/>
      <point x="293" y="67"/>
      <point x="281" y="67" type="qcurve" smooth="yes"/>
      <point x="234" y="67" type="line" smooth="yes"/>
      <point x="222" y="67"/>
    </contour>
  </outline>
</glyph>
<glyph name="uni2461" format="2">
  <advance width="500"/>
  <unicode hex="2461"/>
  <outline>
    <contour>
      <point x="-99" y="29"/>
      <point x="-222" y="245"/>
      <point x="-222" y="380" type="qcurve" smooth="yes"/>
      <point x="-222" y="515"/>
      <point x="-99" y="730"/>
      <point x="117" y="852"/>
      <point x="251" y="852" type="qcurve" smooth="yes"/>
      <point x="386" y="852"/>
      <point x="601" y="731"/>
      <point x="722" y="515"/>
      <point x="722" y="380" type="qcurve" smooth="yes"/>
      <point x="722" y="245"/>
      <point x="601" y="29"/>
      <point x="386" y="-93"/>
      <point x="251" y="-93" type="qcurve" smooth="yes"/>
      <point x="117" y="-93"/>
    </contour>
    <contour>
      <point x="571" y="60"/>
      <point x="681" y="257"/>
      <point x="681" y="380" type="qcurve" smooth="yes"/>
      <point x="681" y="504"/>
      <point x="571" y="700"/>
      <point x="375" y="811"/>
      <point x="251" y="811" type="qcurve" smooth="yes"/>
      <point x="128" y="811"/>
      <point x="-69" y="700"/>
      <point x="-181" y="503"/>
      <point x="-181" y="380" type="qcurve" smooth="yes"/>
      <point x="-181" y="257"/>
      <point x="-69" y="60"/>
      <point x="128" y="-52"/>
      <point x="251" y="-52" type="qcurve" smooth="yes"/>
      <point x="375" y="-52"/>
    </contour>
    <contour>
      <point x="50" y="93" type="qcurve" smooth="yes"/>
      <point x="50" y="107" type="line" smooth="yes"/>
      <point x="50" y="115"/>
      <point x="56" y="121" type="qcurve" smooth="yes"/>
      <point x="200" y="280" type="line" smooth="yes"/>
      <point x="266" y="353"/>
      <point x="331" y="441"/>
      <point x="354" y="500"/>
      <point x="354" y="533" type="qcurve" smooth="yes"/>
      <point x="354" y="539"/>
      <point x="351" y="550"/>
      <point x="351" y="553" type="qcurve" smooth="yes"/>
      <point x="345" y="590"/>
      <point x="287" y="631"/>
      <point x="241" y="631" type="qcurve" smooth="yes"/>
      <point x="144" y="631"/>
      <point x="111" y="535" type="qcurve" smooth="yes"/>
      <point x="106" y="524"/>
      <point x="96" y="527" type="qcurve" smooth="yes"/>
      <point x="52" y="540" type="line" smooth="yes"/>
      <point x="40" y="543"/>
      <point x="44" y="555" type="qcurve" smooth="yes"/>
      <point x="67" y="626"/>
      <point x="171" y="701"/>
      <point x="244" y="701" type="qcurve" smooth="yes"/>
      <point x="328" y="701"/>
      <point x="427" y="609"/>
      <point x="427" y="527" type="qcurve" smooth="yes"/>
      <point x="425" y="488"/>
      <point x="396" y="413"/>
      <point x="321" y="311"/>
      <point x="250" y="237" type="qcurve" smooth="yes"/>
      <point x="167" y="150" type="line"/>
      <point x="440" y="150" type="line" smooth="yes"/>
      <point x="452" y="150"/>
      <point x="452" y="138" type="qcurve" smooth="yes"/>
      <point x="452" y="93" type="line" smooth="yes"/>
      <point x="452" y="81"/>
      <point x="440" y="81" type="qcurve" smooth="yes"/>
      <point x="62" y="81" type="line" smooth="yes"/>
      <point x="50" y="81"/>
    </contour>
  </outline>
</glyph>
<glyph name="uni2462" format="2">
  <advance width="500"/>
  <unicode hex="2462"/>
  <outline>
    <contour>
      <point x="-99" y="29"/>
      <point x="-222" y="245"/>
      <point x="-222" y="380" type="qcurve" smooth="yes"/>
      <point x="-222" y="515"/>
      <point x="-99" y="730"/>
      <point x="117" y="852"/>
      <point x="251" y="852" type="qcurve" smooth="yes"/>
      <point x="386" y="852"/>
      <point x="601" y="731"/>
      <point x="722" y="515"/>
      <point x="722" y="380" type="qcurve" smooth="yes"/>
      <point x="722" y="245"/>
      <point x="601" y="29"/>
      <point x="386" y="-93"/>
      <point x="251" y="-93" type="qcurve" smooth="yes"/>
      <point x="117" y="-93"/>
    </contour>
    <contour>
      <point x="571" y="60"/>
      <point x="681" y="257"/>
      <point x="681" y="380" type="qcurve" smooth="yes"/>
      <point x="681" y="504"/>
      <point x="571" y="700"/>
      <point x="375" y="811"/>
      <point x="251" y="811" type="qcurve" smooth="yes"/>
      <point x="128" y="811"/>
      <point x="-69" y="700"/>
      <point x="-181" y="503"/>
      <point x="-181" y="380" type="qcurve" smooth="yes"/>
      <point x="-181" y="257"/>
      <point x="-69" y="60"/>
      <point x="128" y="-52"/>
      <point x="251" y="-52" type="qcurve" smooth="yes"/>
      <point x="375" y="-52"/>
    </contour>
    <contour>
      <point x="55" y="155"/>
      <point x="38" y="234" type="qcurve"/>
      <point x="38" y="237" type="line" smooth="yes"/>
      <point x="38" y="246"/>
      <point x="47" y="249" type="qcurve" smooth="yes"/>
      <point x="90" y="260" type="line"/>
      <point x="94" y="261" type="line" smooth="yes"/>
      <point x="102" y="261"/>
      <point x="105" y="251" type="qcurve" smooth="yes"/>
      <point x="120" y="196"/>
      <point x="195" y="139"/>
      <point x="247" y="139" type="qcurve" smooth="yes"/>
      <point x="307" y="139"/>
      <point x="381" y="205"/>
      <point x="381" y="257" type="qcurve" smooth="yes"/>
      <point x="381" y="308"/>
      <point x="310" y="368"/>
      <point x="249" y="368" type="qcurve" smooth="yes"/>
      <point x="216" y="368" type="line" smooth="yes"/>
      <point x="204" y="368"/>
      <point x="204" y="380" type="qcurve" smooth="yes"/>
      <point x="204" y="419" type="line" smooth="yes"/>
      <point x="204" y="431"/>
      <point x="216" y="431" type="qcurve" smooth="yes"/>
      <point x="251" y="431" type="line" smooth="yes"/>
      <point x="302" y="431"/>
      <point x="368" y="487"/>
      <point x="368" y="530" type="qcurve" smooth="yes"/>
      <point x="368" y="574"/>
      <point x="299" y="630"/>
      <point x="245" y="630" type="qcurve" smooth="yes"/>
      <point x="198" y="630"/>
      <point x="130" y="580"/>
      <point x="114" y="534" type="qcurve" smooth="yes"/>
      <point x="109" y="523"/>
      <point x="99" y="526" type="qcurve" smooth="yes"/>
      <point x="55" y="539" type="line" smooth="yes"/>
      <point x="43" y="542"/>
      <point x="46" y="554" type="qcurve" smooth="yes"/>
      <point x="68" y="624"/>
      <point x="174" y="701"/>
      <point x="246" y="701" type="qcurve" smooth="yes"/>
      <point x="301" y="701"/>
      <point x="390" y="659"/>
      <point x="441" y="585"/>
      <point x="441" y="539" type="qcurve" smooth="yes"/>
      <point x="441" y="494"/>
      <point x="390" y="420"/>
      <point x="345" y="401" type="qcurve"/>
      <point x="397" y="384"/>
      <point x="454" y="305"/>
      <point x="454" y="250" type="qcurve" smooth="yes"/>
      <point x="454" y="199"/>
      <point x="401" y="116"/>
      <point x="307" y="68"/>
      <point x="247" y="68" type="qcurve" smooth="yes"/>
      <point x="171" y="68"/>
    </contour>
  </outline>
</glyph>
<glyph name="uni2463" format="2">
  <advance width="500"/>
  <unicode hex="2463"/>
  <outline>
    <contour>
      <point x="-99" y="29"/>
      <point x="-222" y="245"/>
      <point x="-222" y="380" type="qcurve" smooth="yes"/>
      <point x="-222" y="515"/>
      <point x="-99" y="730"/>
      <point x="117" y="852"/>
      <point x="251" y="852" type="qcurve" smooth="yes"/>
      <point x="386" y="852"/>
      <point x="601" y="731"/>
      <point x="722" y="515"/>
      <point x="722" y="380" type="qcurve" smooth="yes"/>
      <point x="722" y="245"/>
      <point x="601" y="29"/>
      <point x="386" y="-93"/>
      <point x="251" y="-93" type="qcurve" smooth="yes"/>
      <point x="117" y="-93"/>
    </contour>
    <contour>
      <point x="571" y="60"/>
      <point x="681" y="257"/>
      <point x="681" y="380" type="qcurve" smooth="yes"/>
      <point x="681" y="504"/>
      <point x="571" y="700"/>
      <point x="375" y="811"/>
      <point x="251" y="811" type="qcurve" smooth="yes"/>
      <point x="128" y="811"/>
      <point x="-69" y="700"/>
      <point x="-181" y="503"/>
      <point x="-181" y="380" type="qcurve" smooth="yes"/>
      <point x="-181" y="257"/>
      <point x="-69" y="60"/>
      <point x="128" y="-52"/>
      <point x="251" y="-52" type="qcurve" smooth="yes"/>
      <point x="375" y="-52"/>
    </contour>
    <contour>
      <point x="277" y="96" type="qcurve" smooth="yes"/>
      <point x="277" y="218" type="line"/>
      <point x="-23" y="218" type="line" smooth="yes"/>
      <point x="-35" y="218"/>
      <point x="-35" y="230" type="qcurve" smooth="yes"/>
      <point x="-35" y="245" type="line" smooth="yes"/>
      <point x="-35" y="254"/>
      <point x="-30" y="260" type="qcurve" smooth="yes"/>
      <point x="290" y="686" type="line" smooth="yes"/>
      <point x="294" y="693"/>
      <point x="304" y="693" type="qcurve" smooth="yes"/>
      <point x="336" y="693" type="line" smooth="yes"/>
      <point x="348" y="693"/>
      <point x="348" y="681" type="qcurve" smooth="yes"/>
      <point x="348" y="285" type="line"/>
      <point x="428" y="285" type="line" smooth="yes"/>
      <point x="440" y="285"/>
      <point x="440" y="273" type="qcurve" smooth="yes"/>
      <point x="440" y="230" type="line" smooth="yes"/>
      <point x="440" y="218"/>
      <point x="428" y="218" type="qcurve" smooth="yes"/>
      <point x="348" y="218" type="line"/>
      <point x="348" y="96" type="line" smooth="yes"/>
      <point x="348" y="84"/>
      <point x="336" y="84" type="qcurve" smooth="yes"/>
      <point x="289" y="84" type="line" smooth="yes"/>
      <point x="277" y="84"/>
    </contour>
    <contour>
      <point x="277" y="285" type="line"/>
      <point x="278" y="567" type="line"/>
      <point x="68" y="285" type="line"/>
    </contour>
  </outline>
</glyph>
<glyph name="uni2465" format="2">
  <advance width="500"/>
  <unicode hex="2465"/>
  <outline>
    <contour>
      <point x="-99" y="29"/>
      <point x="-222" y="245"/>
      <point x="-222" y="380" type="qcurve" smooth="yes"/>
      <point x="-222" y="515"/>
      <point x="-99" y="730"/>
      <point x="117" y="852"/>
      <point x="251" y="852" type="qcurve" smooth="yes"/>
      <point x="386" y="852"/>
      <point x="601" y="731"/>
      <point x="722" y="515"/>
      <point x="722" y="380" type="qcurve" smooth="yes"/>
      <point x="722" y="245"/>
      <point x="601" y="29"/>
      <point x="386" y="-93"/>
      <point x="251" y="-93" type="qcurve" smooth="yes"/>
      <point x="117" y="-93"/>
    </contour>
    <contour>
      <point x="571" y="60"/>
      <point x="681" y="257"/>
      <point x="681" y="380" type="qcurve" smooth="yes"/>
      <point x="681" y="504"/>
      <point x="571" y="700"/>
      <point x="375" y="811"/>
      <point x="251" y="811" type="qcurve" smooth="yes"/>
      <point x="128" y="811"/>
      <point x="-69" y="700"/>
      <point x="-181" y="503"/>
      <point x="-181" y="380" type="qcurve" smooth="yes"/>
      <point x="-181" y="257"/>
      <point x="-69" y="60"/>
      <point x="128" y="-52"/>
      <point x="251" y="-52" type="qcurve" smooth="yes"/>
      <point x="375" y="-52"/>
    </contour>
    <contour>
      <point x="84" y="138"/>
      <point x="32" y="232"/>
      <point x="32" y="292" type="qcurve" smooth="yes"/>
      <point x="32" y="346"/>
      <point x="76" y="451"/>
      <point x="133" y="533" type="qcurve" smooth="yes"/>
      <point x="251" y="698" type="line" smooth="yes"/>
      <point x="255" y="705"/>
      <point x="265" y="705" type="qcurve" smooth="yes"/>
      <point x="321" y="705" type="line" smooth="yes"/>
      <point x="331" y="705"/>
      <point x="331" y="698" type="qcurve" smooth="yes"/>
      <point x="331" y="695"/>
      <point x="328" y="690" type="qcurve" smooth="yes"/>
      <point x="170" y="471" type="line"/>
      <point x="209" y="492"/>
      <point x="253" y="492" type="qcurve" smooth="yes"/>
      <point x="310" y="492"/>
      <point x="399" y="441"/>
      <point x="448" y="349"/>
      <point x="448" y="290" type="qcurve" smooth="yes"/>
      <point x="448" y="230"/>
      <point x="396" y="136"/>
      <point x="302" y="85"/>
      <point x="240" y="85" type="qcurve" smooth="yes"/>
      <point x="179" y="85"/>
    </contour>
    <contour>
      <point x="374" y="228"/>
      <point x="374" y="291" type="qcurve" smooth="yes"/>
      <point x="374" y="354"/>
      <point x="303" y="427"/>
      <point x="241" y="427" type="qcurve" smooth="yes"/>
      <point x="178" y="427"/>
      <point x="105" y="355"/>
      <point x="105" y="291" type="qcurve" smooth="yes"/>
      <point x="105" y="228"/>
      <point x="177" y="156"/>
      <point x="239" y="156" type="qcurve" smooth="yes"/>
      <point x="301" y="156"/>
    </contour>
  </outline>
</glyph>
<glyph name="uni2466" format="2">
  <advance width="500"/>
  <unicode hex="2466"/>
  <outline>
    <contour>
      <point x="-99" y="29"/>
      <point x="-222" y="245"/>
      <point x="-222" y="380" type="qcurve" smooth="yes"/>
      <point x="-222" y="515"/>
      <point x="-99" y="730"/>
      <point x="117" y="852"/>
      <point x="251" y="852" type="qcurve" smooth="yes"/>
      <point x="386" y="852"/>
      <point x="601" y="731"/>
      <point x="722" y="515"/>
      <point x="722" y="380" type="qcurve" smooth="yes"/>
      <point x="722" y="245"/>
      <point x="601" y="29"/>
      <point x="386" y="-93"/>
      <point x="251" y="-93" type="qcurve" smooth="yes"/>
      <point x="117" y="-93"/>
    </contour>
    <contour>
      <point x="571" y="60"/>
      <point x="681" y="257"/>
      <point x="681" y="380" type="qcurve" smooth="yes"/>
      <point x="681" y="504"/>
      <point x="571" y="700"/>
      <point x="375" y="811"/>
      <point x="251" y="811" type="qcurve" smooth="yes"/>
      <point x="128" y="811"/>
      <point x="-69" y="700"/>
      <point x="-181" y="503"/>
      <point x="-181" y="380" type="qcurve" smooth="yes"/>
      <point x="-181" y="257"/>
      <point x="-69" y="60"/>
      <point x="128" y="-52"/>
      <point x="251" y="-52" type="qcurve" smooth="yes"/>
      <point x="375" y="-52"/>
    </contour>
    <contour>
      <point x="136" y="57"/>
      <point x="138" y="63" type="qcurve" smooth="yes"/>
      <point x="370" y="590" type="line"/>
      <point x="62" y="590" type="line" smooth="yes"/>
      <point x="50" y="590"/>
      <point x="50" y="602" type="qcurve" smooth="yes"/>
      <point x="50" y="646" type="line" smooth="yes"/>
      <point x="50" y="658"/>
      <point x="62" y="658" type="qcurve" smooth="yes"/>
      <point x="448" y="658" type="line" smooth="yes"/>
      <point x="460" y="658"/>
      <point x="460" y="646" type="qcurve" smooth="yes"/>
      <point x="460" y="631" type="line" smooth="yes"/>
      <point x="460" y="624"/>
      <point x="457" y="616" type="qcurve" smooth="yes"/>
      <point x="215" y="58" type="line" smooth="yes"/>
      <point x="211" y="49"/>
      <point x="201" y="49" type="qcurve" smooth="yes"/>
      <point x="147" y="49" type="line" smooth="yes"/>
      <point x="140" y="49"/>
    </contour>
  </outline>
</glyph>
<glyph name="uni2468" format="2">
  <advance width="500"/>
  <unicode hex="2468"/>
  <outline>
    <contour>
      <point x="-99" y="29"/>
      <point x="-222" y="245"/>
      <point x="-222" y="380" type="qcurve" smooth="yes"/>
      <point x="-222" y="515"/>
      <point x="-99" y="730"/>
      <point x="117" y="852"/>
      <point x="251" y="852" type="qcurve" smooth="yes"/>
      <point x="386" y="852"/>
      <point x="601" y="731"/>
      <point x="722" y="515"/>
      <point x="722" y="380" type="qcurve" smooth="yes"/>
      <point x="722" y="245"/>
      <point x="601" y="29"/>
      <point x="386" y="-93"/>
      <point x="251" y="-93" type="qcurve" smooth="yes"/>
      <point x="117" y="-93"/>
    </contour>
    <contour>
      <point x="571" y="60"/>
      <point x="681" y="257"/>
      <point x="681" y="380" type="qcurve" smooth="yes"/>
      <point x="681" y="504"/>
      <point x="571" y="700"/>
      <point x="375" y="811"/>
      <point x="251" y="811" type="qcurve" smooth="yes"/>
      <point x="128" y="811"/>
      <point x="-69" y="700"/>
      <point x="-181" y="503"/>
      <point x="-181" y="380" type="qcurve" smooth="yes"/>
      <point x="-181" y="257"/>
      <point x="-69" y="60"/>
      <point x="128" y="-52"/>
      <point x="251" y="-52" type="qcurve" smooth="yes"/>
      <point x="375" y="-52"/>
    </contour>
    <contour>
      <point x="152" y="56" type="qcurve" smooth="yes"/>
      <point x="152" y="60"/>
      <point x="155" y="64" type="qcurve" smooth="yes"/>
      <point x="318" y="283" type="line"/>
      <point x="288" y="264"/>
      <point x="250" y="264" type="qcurve" smooth="yes"/>
      <point x="234" y="263" type="line" smooth="yes"/>
      <point x="178" y="263"/>
      <point x="91" y="314"/>
      <point x="43" y="406"/>
      <point x="43" y="464" type="qcurve" smooth="yes"/>
      <point x="43" y="524"/>
      <point x="95" y="617"/>
      <point x="190" y="669"/>
      <point x="251" y="669" type="qcurve" smooth="yes"/>
      <point x="312" y="669"/>
      <point x="407" y="617"/>
      <point x="459" y="522"/>
      <point x="459" y="462" type="qcurve" smooth="yes"/>
      <point x="459" y="406"/>
      <point x="414" y="300"/>
      <point x="356" y="222" type="qcurve" smooth="yes"/>
      <point x="232" y="56" type="line" smooth="yes"/>
      <point x="226" y="49"/>
      <point x="217" y="49" type="qcurve" smooth="yes"/>
      <point x="162" y="49" type="line" smooth="yes"/>
      <point x="152" y="49"/>
    </contour>
    <contour>
      <point x="386" y="400"/>
      <point x="386" y="463" type="qcurve" smooth="yes"/>
      <point x="386" y="526"/>
      <point x="314" y="598"/>
      <point x="252" y="598" type="qcurve" smooth="yes"/>
      <point x="190" y="598"/>
      <point x="117" y="526"/>
      <point x="117" y="463" type="qcurve" smooth="yes"/>
      <point x="117" y="400"/>
      <point x="190" y="327"/>
      <point x="252" y="327" type="qcurve" smooth="yes"/>
      <point x="314" y="327"/>
    </contour>
  </outline>
</glyph>
<glyph name="uni2469" format="2">
  <advance width="500"/>
  <unicode hex="2469"/>
  <outline>
    <contour>
      <point x="-99" y="29"/>
      <point x="-222" y="245"/>
      <point x="-222" y="380" type="qcurve" smooth="yes"/>
      <point x="-222" y="515"/>
      <point x="-99" y="730"/>
      <point x="117" y="852"/>
      <point x="251" y="852" type="qcurve" smooth="yes"/>
      <point x="386" y="852"/>
      <point x="601" y="731"/>
      <point x="722" y="515"/>
      <point x="722" y="380" type="qcurve" smooth="yes"/>
      <point x="722" y="245"/>
      <point x="601" y="29"/>
      <point x="386" y="-93"/>
      <point x="251" y="-93" type="qcurve" smooth="yes"/>
      <point x="117" y="-93"/>
    </contour>
    <contour>
      <point x="571" y="60"/>
      <point x="681" y="257"/>
      <point x="681" y="380" type="qcurve" smooth="yes"/>
      <point x="681" y="504"/>
      <point x="571" y="700"/>
      <point x="375" y="811"/>
      <point x="251" y="811" type="qcurve" smooth="yes"/>
      <point x="128" y="811"/>
      <point x="-69" y="700"/>
      <point x="-181" y="503"/>
      <point x="-181" y="380" type="qcurve" smooth="yes"/>
      <point x="-181" y="257"/>
      <point x="-69" y="60"/>
      <point x="128" y="-52"/>
      <point x="251" y="-52" type="qcurve" smooth="yes"/>
      <point x="375" y="-52"/>
    </contour>
    <contour>
      <point x="187" y="231"/>
      <point x="187" y="373" type="qcurve" smooth="yes"/>
      <point x="187" y="515"/>
      <point x="284" y="676"/>
      <point x="371" y="676" type="qcurve" smooth="yes"/>
      <point x="458" y="676"/>
      <point x="555" y="516"/>
      <point x="555" y="373" type="qcurve" smooth="yes"/>
      <point x="555" y="230"/>
      <point x="458" y="70"/>
      <point x="371" y="70" type="qcurve" smooth="yes"/>
      <point x="284" y="70"/>
    </contour>
    <contour>
      <point x="32" y="91" type="qcurve" smooth="yes"/>
      <point x="32" y="571" type="line"/>
      <point x="-51" y="511" type="line" smooth="yes"/>
      <point x="-53" y="509"/>
      <point x="-58" y="509" type="qcurve" smooth="yes"/>
      <point x="-64" y="509"/>
      <point x="-67" y="515" type="qcurve" smooth="yes"/>
      <point x="-75" y="528" type="line" smooth="yes"/>
      <point x="-77" y="531"/>
      <point x="-77" y="535" type="qcurve" smooth="yes"/>
      <point x="-77" y="541"/>
      <point x="-73" y="545" type="qcurve" smooth="yes"/>
      <point x="41" y="658" type="line" smooth="yes"/>
      <point x="47" y="664"/>
      <point x="56" y="664" type="qcurve" smooth="yes"/>
      <point x="82" y="664" type="line" smooth="yes"/>
      <point x="94" y="664"/>
      <point x="94" y="652" type="qcurve" smooth="yes"/>
      <point x="94" y="91" type="line" smooth="yes"/>
      <point x="94" y="79"/>
      <point x="82" y="79" type="qcurve" smooth="yes"/>
      <point x="44" y="79" type="line" smooth="yes"/>
      <point x="32" y="79"/>
    </contour>
    <contour>
      <point x="490" y="257"/>
      <point x="490" y="373" type="qcurve" smooth="yes"/>
      <point x="490" y="490"/>
      <point x="428" y="609"/>
      <point x="371" y="609" type="qcurve" smooth="yes"/>
      <point x="314" y="609"/>
      <point x="251" y="490"/>
      <point x="251" y="373" type="qcurve" smooth="yes"/>
      <point x="251" y="257"/>
      <point x="314" y="137"/>
      <point x="371" y="137" type="qcurve" smooth="yes"/>
      <point x="428" y="137"/>
    </contour>
  </outline>
</glyph>
<glyph name="uni246A" format="2">
  <advance width="500"/>
  <unicode hex="246A"/>
  <outline>
    <contour>
      <point x="-99" y="29"/>
      <point x="-222" y="245"/>
      <point x="-222" y="380" type="qcurve" smooth="yes"/>
      <point x="-222" y="515"/>
      <point x="-99" y="730"/>
      <point x="117" y="852"/>
      <point x="251" y="852" type="qcurve" smooth="yes"/>
      <point x="386" y="852"/>
      <point x="601" y="731"/>
      <point x="722" y="515"/>
      <point x="722" y="380" type="qcurve" smooth="yes"/>
      <point x="722" y="245"/>
      <point x="601" y="29"/>
      <point x="386" y="-93"/>
      <point x="251" y="-93" type="qcurve" smooth="yes"/>
      <point x="117" y="-93"/>
    </contour>
    <contour>
      <point x="571" y="60"/>
      <point x="681" y="257"/>
      <point x="681" y="380" type="qcurve" smooth="yes"/>
      <point x="681" y="504"/>
      <point x="571" y="700"/>
      <point x="375" y="811"/>
      <point x="251" y="811" type="qcurve" smooth="yes"/>
      <point x="128" y="811"/>
      <point x="-69" y="700"/>
      <point x="-181" y="503"/>
      <point x="-181" y="380" type="qcurve" smooth="yes"/>
      <point x="-181" y="257"/>
      <point x="-69" y="60"/>
      <point x="128" y="-52"/>
      <point x="251" y="-52" type="qcurve" smooth="yes"/>
      <point x="375" y="-52"/>
    </contour>
    <contour>
      <point x="63" y="91" type="qcurve" smooth="yes"/>
      <point x="63" y="571" type="line"/>
      <point x="-21" y="511" type="line" smooth="yes"/>
      <point x="-23" y="509"/>
      <point x="-28" y="509" type="qcurve" smooth="yes"/>
      <point x="-34" y="509"/>
      <point x="-37" y="515" type="qcurve" smooth="yes"/>
      <point x="-45" y="528" type="line" smooth="yes"/>
      <point x="-47" y="532"/>
      <point x="-47" y="535" type="qcurve" smooth="yes"/>
      <point x="-47" y="540"/>
      <point x="-42" y="545" type="qcurve" smooth="yes"/>
      <point x="72" y="658" type="line" smooth="yes"/>
      <point x="78" y="664"/>
      <point x="87" y="664" type="qcurve" smooth="yes"/>
      <point x="116" y="664" type="line" smooth="yes"/>
      <point x="128" y="664"/>
      <point x="128" y="652" type="qcurve" smooth="yes"/>
      <point x="128" y="91" type="line" smooth="yes"/>
      <point x="128" y="79"/>
      <point x="116" y="79" type="qcurve" smooth="yes"/>
      <point x="75" y="79" type="line" smooth="yes"/>
      <point x="63" y="79"/>
    </contour>
    <contour>
      <point x="399" y="91" type="qcurve" smooth="yes"/>
      <point x="399" y="571" type="line"/>
      <point x="317" y="512" type="line" smooth="yes"/>
      <point x="313" y="509"/>
      <point x="309" y="509" type="qcurve" smooth="yes"/>
      <point x="303" y="509"/>
      <point x="300" y="516" type="qcurve" smooth="yes"/>
      <point x="294" y="528" type="line" smooth="yes"/>
      <point x="292" y="534"/>
      <point x="292" y="535" type="qcurve" smooth="yes"/>
      <point x="292" y="540"/>
      <point x="296" y="544" type="qcurve" smooth="yes"/>
      <point x="408" y="658" type="line" smooth="yes"/>
      <point x="414" y="664"/>
      <point x="423" y="664" type="qcurve" smooth="yes"/>
      <point x="452" y="664" type="line" smooth="yes"/>
      <point x="464" y="664"/>
      <point x="464" y="652" type="qcurve" smooth="yes"/>
      <point x="464" y="91" type="line" smooth="yes"/>
      <point x="464" y="79"/>
      <point x="452" y="79" type="qcurve" smooth="yes"/>
      <point x="411" y="79" type="line" smooth="yes"/>
      <point x="399" y="79"/>
    </contour>
  </outline>
</glyph>
<glyph name="uni246B" format="2">
  <advance width="500"/>
  <unicode hex="246B"/>
  <outline>
    <contour>
      <point x="-99" y="29"/>
      <point x="-222" y="245"/>
      <point x="-222" y="380" type="qcurve" smooth="yes"/>
      <point x="-222" y="515"/>
      <point x="-99" y="730"/>
      <point x="117" y="852"/>
      <point x="251" y="852" type="qcurve" smooth="yes"/>
      <point x="386" y="852"/>
      <point x="601" y="731"/>
      <point x="722" y="515"/>
      <point x="722" y="380" type="qcurve" smooth="yes"/>
      <point x="722" y="245"/>
      <point x="601" y="29"/>
      <point x="386" y="-93"/>
      <point x="251" y="-93" type="qcurve" smooth="yes"/>
      <point x="117" y="-93"/>
    </contour>
    <contour>
      <point x="571" y="60"/>
      <point x="681" y="257"/>
      <point x="681" y="380" type="qcurve" smooth="yes"/>
      <point x="681" y="504"/>
      <point x="571" y="700"/>
      <point x="375" y="811"/>
      <point x="251" y="811" type="qcurve" smooth="yes"/>
      <point x="128" y="811"/>
      <point x="-69" y="700"/>
      <point x="-181" y="503"/>
      <point x="-181" y="380" type="qcurve" smooth="yes"/>
      <point x="-181" y="257"/>
      <point x="-69" y="60"/>
      <point x="128" y="-52"/>
      <point x="251" y="-52" type="qcurve" smooth="yes"/>
      <point x="375" y="-52"/>
    </contour>
    <contour>
      <point x="205" y="99" type="qcurve" smooth="yes"/>
      <point x="205" y="113" type="line" smooth="yes"/>
      <point x="205" y="120"/>
      <point x="210" y="128" type="qcurve" smooth="yes"/>
      <point x="329" y="276" type="line" smooth="yes"/>
      <point x="382" y="342"/>
      <point x="434" y="428"/>
      <point x="450" y="487"/>
      <point x="450" y="521" type="qcurve" smooth="yes"/>
      <point x="450" y="564"/>
      <point x="400" y="616"/>
      <point x="361" y="616" type="qcurve" smooth="yes"/>
      <point x="284" y="616"/>
      <point x="260" y="526" type="qcurve" smooth="yes"/>
      <point x="257" y="514"/>
      <point x="245" y="517" type="qcurve" smooth="yes"/>
      <point x="207" y="528" type="line" smooth="yes"/>
      <point x="196" y="531"/>
      <point x="199" y="543" type="qcurve" smooth="yes"/>
      <point x="216" y="610"/>
      <point x="304" y="684"/>
      <point x="364" y="684" type="qcurve" smooth="yes"/>
      <point x="431" y="684"/>
      <point x="517" y="595"/>
      <point x="517" y="525" type="qcurve" smooth="yes"/>
      <point x="517" y="483"/>
      <point x="499" y="410"/>
      <point x="438" y="307"/>
      <point x="376" y="234" type="qcurve" smooth="yes"/>
      <point x="305" y="151" type="line"/>
      <point x="517" y="151" type="line" smooth="yes"/>
      <point x="529" y="151"/>
      <point x="529" y="139" type="qcurve" smooth="yes"/>
      <point x="529" y="99" type="line" smooth="yes"/>
      <point x="529" y="87"/>
      <point x="517" y="87" type="qcurve" smooth="yes"/>
      <point x="217" y="87" type="line" smooth="yes"/>
      <point x="205" y="87"/>
    </contour>
    <contour>
      <point x="35" y="99" type="qcurve" smooth="yes"/>
      <point x="35" y="579" type="line"/>
      <point x="-49" y="519" type="line" smooth="yes"/>
      <point x="-51" y="517"/>
      <point x="-56" y="517" type="qcurve" smooth="yes"/>
      <point x="-62" y="517"/>
      <point x="-65" y="523" type="qcurve" smooth="yes"/>
      <point x="-73" y="536" type="line" smooth="yes"/>
      <point x="-75" y="540"/>
      <point x="-75" y="543" type="qcurve" smooth="yes"/>
      <point x="-75" y="548"/>
      <point x="-70" y="553" type="qcurve" smooth="yes"/>
      <point x="44" y="666" type="line" smooth="yes"/>
      <point x="50" y="672"/>
      <point x="59" y="672" type="qcurve" smooth="yes"/>
      <point x="85" y="672" type="line" smooth="yes"/>
      <point x="97" y="672"/>
      <point x="97" y="660" type="qcurve" smooth="yes"/>
      <point x="97" y="99" type="line" smooth="yes"/>
      <point x="97" y="87"/>
      <point x="85" y="87" type="qcurve" smooth="yes"/>
      <point x="47" y="87" type="line" smooth="yes"/>
      <point x="35" y="87"/>
    </contour>
  </outline>
</glyph>
<glyph name="uni246C" format="2">
  <advance width="500"/>
  <unicode hex="246C"/>
  <outline>
    <contour>
      <point x="-99" y="29"/>
      <point x="-222" y="245"/>
      <point x="-222" y="380" type="qcurve" smooth="yes"/>
      <point x="-222" y="515"/>
      <point x="-99" y="730"/>
      <point x="117" y="852"/>
      <point x="251" y="852" type="qcurve" smooth="yes"/>
      <point x="386" y="852"/>
      <point x="601" y="731"/>
      <point x="722" y="515"/>
      <point x="722" y="380" type="qcurve" smooth="yes"/>
      <point x="722" y="245"/>
      <point x="601" y="29"/>
      <point x="386" y="-93"/>
      <point x="251" y="-93" type="qcurve" smooth="yes"/>
      <point x="117" y="-93"/>
    </contour>
    <contour>
      <point x="571" y="60"/>
      <point x="681" y="257"/>
      <point x="681" y="380" type="qcurve" smooth="yes"/>
      <point x="681" y="504"/>
      <point x="570" y="700"/>
      <point x="374" y="811"/>
      <point x="251" y="811" type="qcurve" smooth="yes"/>
      <point x="128" y="811"/>
      <point x="-69" y="700"/>
      <point x="-181" y="503"/>
      <point x="-181" y="380" type="qcurve" smooth="yes"/>
      <point x="-181" y="257"/>
      <point x="-69" y="60"/>
      <point x="128" y="-52"/>
      <point x="251" y="-52" type="qcurve" smooth="yes"/>
      <point x="375" y="-52"/>
    </contour>
    <contour>
      <point x="206" y="153"/>
      <point x="194" y="227" type="qcurve"/>
      <point x="193" y="230" type="line" smooth="yes"/>
      <point x="193" y="238"/>
      <point x="203" y="241" type="qcurve" smooth="yes"/>
      <point x="240" y="251" type="line"/>
      <point x="244" y="252" type="line" smooth="yes"/>
      <point x="252" y="252"/>
      <point x="254" y="241" type="qcurve" smooth="yes"/>
      <point x="266" y="188"/>
      <point x="324" y="134"/>
      <point x="365" y="133" type="qcurve" smooth="yes"/>
      <point x="413" y="133"/>
      <point x="470" y="198"/>
      <point x="470" y="248" type="qcurve" smooth="yes"/>
      <point x="470" y="297"/>
      <point x="415" y="356"/>
      <point x="367" y="356" type="qcurve" smooth="yes"/>
      <point x="339" y="356" type="line" smooth="yes"/>
      <point x="327" y="356"/>
      <point x="327" y="368" type="qcurve" smooth="yes"/>
      <point x="327" y="406" type="line" smooth="yes"/>
      <point x="327" y="418"/>
      <point x="339" y="418" type="qcurve" smooth="yes"/>
      <point x="368" y="418" type="line" smooth="yes"/>
      <point x="409" y="418"/>
      <point x="460" y="474"/>
      <point x="460" y="516" type="qcurve" smooth="yes"/>
      <point x="460" y="559"/>
      <point x="406" y="613"/>
      <point x="364" y="613" type="qcurve" smooth="yes"/>
      <point x="326" y="613"/>
      <point x="270" y="565"/>
      <point x="260" y="522" type="qcurve" smooth="yes"/>
      <point x="258" y="508"/>
      <point x="246" y="513" type="qcurve" smooth="yes"/>
      <point x="209" y="524" type="line" smooth="yes"/>
      <point x="198" y="527"/>
      <point x="201" y="538" type="qcurve" smooth="yes"/>
      <point x="217" y="603"/>
      <point x="304" y="676"/>
      <point x="365" y="676" type="qcurve" smooth="yes"/>
      <point x="435" y="676"/>
      <point x="525" y="589"/>
      <point x="525" y="521" type="qcurve" smooth="yes"/>
      <point x="525" y="477"/>
      <point x="484" y="407"/>
      <point x="446" y="389" type="qcurve"/>
      <point x="489" y="372"/>
      <point x="537" y="296"/>
      <point x="537" y="244" type="qcurve" smooth="yes"/>
      <point x="537" y="195"/>
      <point x="493" y="115"/>
      <point x="415" y="70"/>
      <point x="365" y="70" type="qcurve" smooth="yes"/>
      <point x="301" y="70"/>
    </contour>
    <contour>
      <point x="37" y="92" type="qcurve" smooth="yes"/>
      <point x="37" y="572" type="line"/>
      <point x="-47" y="511" type="line" smooth="yes"/>
      <point x="-49" y="509"/>
      <point x="-54" y="509" type="qcurve" smooth="yes"/>
      <point x="-60" y="509"/>
      <point x="-63" y="515" type="qcurve" smooth="yes"/>
      <point x="-71" y="528" type="line" smooth="yes"/>
      <point x="-73" y="532"/>
      <point x="-73" y="535" type="qcurve" smooth="yes"/>
      <point x="-73" y="540"/>
      <point x="-68" y="545" type="qcurve" smooth="yes"/>
      <point x="46" y="659" type="line" smooth="yes"/>
      <point x="52" y="665"/>
      <point x="61" y="665" type="qcurve" smooth="yes"/>
      <point x="87" y="665" type="line" smooth="yes"/>
      <point x="99" y="665"/>
      <point x="99" y="653" type="qcurve" smooth="yes"/>
      <point x="99" y="92" type="line" smooth="yes"/>
      <point x="99" y="80"/>
      <point x="87" y="80" type="qcurve" smooth="yes"/>
      <point x="49" y="80" type="line" smooth="yes"/>
      <point x="37" y="80"/>
    </contour>
  </outline>
</glyph>
<glyph name="uni246D" format="2">
  <advance width="500"/>
  <unicode hex="246D"/>
  <outline>
    <contour>
      <point x="-99" y="29"/>
      <point x="-222" y="245"/>
      <point x="-222" y="380" type="qcurve" smooth="yes"/>
      <point x="-222" y="515"/>
      <point x="-99" y="730"/>
      <point x="117" y="852"/>
      <point x="251" y="852" type="qcurve" smooth="yes"/>
      <point x="386" y="852"/>
      <point x="601" y="731"/>
      <point x="722" y="515"/>
      <point x="722" y="380" type="qcurve" smooth="yes"/>
      <point x="722" y="245"/>
      <point x="601" y="29"/>
      <point x="386" y="-93"/>
      <point x="251" y="-93" type="qcurve" smooth="yes"/>
      <point x="117" y="-93"/>
    </contour>
    <contour>
      <point x="571" y="60"/>
      <point x="681" y="257"/>
      <point x="681" y="380" type="qcurve" smooth="yes"/>
      <point x="681" y="504"/>
      <point x="571" y="700"/>
      <point x="375" y="811"/>
      <point x="251" y="811" type="qcurve" smooth="yes"/>
      <point x="128" y="811"/>
      <point x="-69" y="700"/>
      <point x="-181" y="503"/>
      <point x="-181" y="380" type="qcurve" smooth="yes"/>
      <point x="-181" y="257"/>
      <point x="-69" y="60"/>
      <point x="128" y="-52"/>
      <point x="251" y="-52" type="qcurve" smooth="yes"/>
      <point x="375" y="-52"/>
    </contour>
    <contour>
      <point x="32" y="95" type="qcurve" smooth="yes"/>
      <point x="32" y="575" type="line"/>
      <point x="-51" y="515" type="line" smooth="yes"/>
      <point x="-53" y="513"/>
      <point x="-58" y="513" type="qcurve" smooth="yes"/>
      <point x="-63" y="513"/>
      <point x="-68" y="519" type="qcurve" smooth="yes"/>
      <point x="-75" y="531" type="line" smooth="yes"/>
      <point x="-77" y="534"/>
      <point x="-77" y="538" type="qcurve" smooth="yes"/>
      <point x="-77" y="544"/>
      <point x="-73" y="548" type="qcurve" smooth="yes"/>
      <point x="41" y="662" type="line" smooth="yes"/>
      <point x="47" y="668"/>
      <point x="56" y="668" type="qcurve" smooth="yes"/>
      <point x="82" y="668" type="line" smooth="yes"/>
      <point x="94" y="668"/>
      <point x="94" y="656" type="qcurve" smooth="yes"/>
      <point x="94" y="95" type="line" smooth="yes"/>
      <point x="94" y="83"/>
      <point x="82" y="83" type="qcurve" smooth="yes"/>
      <point x="44" y="83" type="line" smooth="yes"/>
      <point x="32" y="83"/>
    </contour>
    <contour>
      <point x="412" y="95" type="qcurve" smooth="yes"/>
      <point x="412" y="212" type="line"/>
      <point x="173" y="212" type="line" smooth="yes"/>
      <point x="161" y="212"/>
      <point x="161" y="224" type="qcurve" smooth="yes"/>
      <point x="161" y="237" type="line" smooth="yes"/>
      <point x="161" y="245"/>
      <point x="165" y="252" type="qcurve" smooth="yes"/>
      <point x="414" y="660" type="line" smooth="yes"/>
      <point x="419" y="668"/>
      <point x="429" y="668" type="qcurve" smooth="yes"/>
      <point x="463" y="668" type="line" smooth="yes"/>
      <point x="475" y="668"/>
      <point x="475" y="656" type="qcurve" smooth="yes"/>
      <point x="475" y="272" type="line"/>
      <point x="538" y="272" type="line" smooth="yes"/>
      <point x="550" y="272"/>
      <point x="550" y="260" type="qcurve" smooth="yes"/>
      <point x="550" y="224" type="line" smooth="yes"/>
      <point x="550" y="212"/>
      <point x="538" y="212" type="qcurve" smooth="yes"/>
      <point x="475" y="212" type="line"/>
      <point x="475" y="95" type="line" smooth="yes"/>
      <point x="475" y="83"/>
      <point x="463" y="83" type="qcurve" smooth="yes"/>
      <point x="424" y="83" type="line" smooth="yes"/>
      <point x="412" y="83"/>
    </contour>
    <contour>
      <point x="413" y="272" type="line"/>
      <point x="415" y="549" type="line"/>
      <point x="247" y="272" type="line"/>
    </contour>
  </outline>
</glyph>
<glyph name="uni246E" format="2">
  <advance width="500"/>
  <unicode hex="246E"/>
  <outline>
    <contour>
      <point x="-99" y="29"/>
      <point x="-222" y="245"/>
      <point x="-222" y="380" type="qcurve" smooth="yes"/>
      <point x="-222" y="515"/>
      <point x="-99" y="730"/>
      <point x="117" y="852"/>
      <point x="251" y="852" type="qcurve" smooth="yes"/>
      <point x="386" y="852"/>
      <point x="601" y="731"/>
      <point x="722" y="515"/>
      <point x="722" y="380" type="qcurve" smooth="yes"/>
      <point x="722" y="245"/>
      <point x="601" y="29"/>
      <point x="386" y="-93"/>
      <point x="251" y="-93" type="qcurve" smooth="yes"/>
      <point x="117" y="-93"/>
    </contour>
    <contour>
      <point x="571" y="60"/>
      <point x="681" y="257"/>
      <point x="681" y="380" type="qcurve" smooth="yes"/>
      <point x="681" y="504"/>
      <point x="571" y="700"/>
      <point x="375" y="811"/>
      <point x="251" y="811" type="qcurve" smooth="yes"/>
      <point x="128" y="811"/>
      <point x="-69" y="700"/>
      <point x="-181" y="503"/>
      <point x="-181" y="380" type="qcurve" smooth="yes"/>
      <point x="-181" y="257"/>
      <point x="-69" y="60"/>
      <point x="128" y="-52"/>
      <point x="251" y="-52" type="qcurve" smooth="yes"/>
      <point x="375" y="-52"/>
    </contour>
    <contour>
      <point x="32" y="91" type="qcurve" smooth="yes"/>
      <point x="32" y="571" type="line"/>
      <point x="-51" y="511" type="line" smooth="yes"/>
      <point x="-53" y="509"/>
      <point x="-58" y="509" type="qcurve" smooth="yes"/>
      <point x="-64" y="509"/>
      <point x="-67" y="515" type="qcurve" smooth="yes"/>
      <point x="-75" y="528" type="line" smooth="yes"/>
      <point x="-77" y="531"/>
      <point x="-77" y="535" type="qcurve" smooth="yes"/>
      <point x="-77" y="541"/>
      <point x="-73" y="545" type="qcurve" smooth="yes"/>
      <point x="41" y="658" type="line" smooth="yes"/>
      <point x="47" y="664"/>
      <point x="56" y="664" type="qcurve" smooth="yes"/>
      <point x="82" y="664" type="line" smooth="yes"/>
      <point x="94" y="664"/>
      <point x="94" y="652" type="qcurve" smooth="yes"/>
      <point x="94" y="91" type="line" smooth="yes"/>
      <point x="94" y="79"/>
      <point x="82" y="79" type="qcurve" smooth="yes"/>
      <point x="44" y="79" type="line" smooth="yes"/>
      <point x="32" y="79"/>
    </contour>
    <contour>
      <point x="202" y="153"/>
      <point x="190" y="228" type="qcurve"/>
      <point x="189" y="231" type="line" smooth="yes"/>
      <point x="189" y="239"/>
      <point x="199" y="242" type="qcurve" smooth="yes"/>
      <point x="237" y="252" type="line"/>
      <point x="241" y="253" type="line" smooth="yes"/>
      <point x="249" y="253"/>
      <point x="252" y="243" type="qcurve" smooth="yes"/>
      <point x="264" y="187"/>
      <point x="322" y="133"/>
      <point x="363" y="133" type="qcurve" smooth="yes"/>
      <point x="410" y="133"/>
      <point x="467" y="204"/>
      <point x="467" y="265" type="qcurve" smooth="yes"/>
      <point x="467" y="327"/>
      <point x="411" y="398"/>
      <point x="363" y="398" type="qcurve" smooth="yes"/>
      <point x="299" y="398"/>
      <point x="254" y="338" type="qcurve" smooth="yes"/>
      <point x="248" y="330"/>
      <point x="238" y="334" type="qcurve" smooth="yes"/>
      <point x="214" y="345" type="line" smooth="yes"/>
      <point x="205" y="350"/>
      <point x="206" y="359" type="qcurve" smooth="yes"/>
      <point x="232" y="653" type="line" smooth="yes"/>
      <point x="234" y="664"/>
      <point x="245" y="664" type="qcurve" smooth="yes"/>
      <point x="497" y="664" type="line" smooth="yes"/>
      <point x="509" y="664"/>
      <point x="509" y="652" type="qcurve" smooth="yes"/>
      <point x="509" y="614" type="line" smooth="yes"/>
      <point x="509" y="602"/>
      <point x="497" y="602" type="qcurve" smooth="yes"/>
      <point x="286" y="602" type="line"/>
      <point x="268" y="416" type="line"/>
      <point x="314" y="457"/>
      <point x="375" y="457" type="qcurve" smooth="yes"/>
      <point x="447" y="457"/>
      <point x="534" y="352"/>
      <point x="534" y="265" type="qcurve" smooth="yes"/>
      <point x="534" y="208"/>
      <point x="491" y="119"/>
      <point x="414" y="69"/>
      <point x="365" y="69" type="qcurve" smooth="yes"/>
      <point x="300" y="69"/>
    </contour>
  </outline>
</glyph>
<glyph name="uni246F" format="2">
  <advance width="500"/>
  <unicode hex="246F"/>
  <outline>
    <contour>
      <point x="-99" y="29"/>
      <point x="-222" y="245"/>
      <point x="-222" y="380" type="qcurve" smooth="yes"/>
      <point x="-222" y="515"/>
      <point x="-99" y="730"/>
      <point x="117" y="852"/>
      <point x="251" y="852" type="qcurve" smooth="yes"/>
      <point x="386" y="852"/>
      <point x="601" y="731"/>
      <point x="722" y="515"/>
      <point x="722" y="380" type="qcurve" smooth="yes"/>
      <point x="722" y="245"/>
      <point x="601" y="29"/>
      <point x="386" y="-93"/>
      <point x="251" y="-93" type="qcurve" smooth="yes"/>
      <point x="117" y="-93"/>
    </contour>
    <contour>
      <point x="571" y="60"/>
      <point x="681" y="257"/>
      <point x="681" y="380" type="qcurve" smooth="yes"/>
      <point x="681" y="504"/>
      <point x="571" y="700"/>
      <point x="375" y="811"/>
      <point x="251" y="811" type="qcurve" smooth="yes"/>
      <point x="128" y="811"/>
      <point x="-69" y="700"/>
      <point x="-181" y="503"/>
      <point x="-181" y="380" type="qcurve" smooth="yes"/>
      <point x="-181" y="257"/>
      <point x="-69" y="60"/>
      <point x="128" y="-52"/>
      <point x="251" y="-52" type="qcurve" smooth="yes"/>
      <point x="375" y="-52"/>
    </contour>
    <contour>
      <point x="34" y="95" type="qcurve" smooth="yes"/>
      <point x="34" y="574" type="line"/>
      <point x="-49" y="514" type="line" smooth="yes"/>
      <point x="-51" y="512"/>
      <point x="-56" y="512" type="qcurve" smooth="yes"/>
      <point x="-62" y="512"/>
      <point x="-65" y="518" type="qcurve" smooth="yes"/>
      <point x="-73" y="531" type="line" smooth="yes"/>
      <point x="-75" y="534"/>
      <point x="-75" y="538" type="qcurve" smooth="yes"/>
      <point x="-75" y="544"/>
      <point x="-71" y="548" type="qcurve" smooth="yes"/>
      <point x="43" y="661" type="line" smooth="yes"/>
      <point x="49" y="667"/>
      <point x="58" y="667" type="qcurve" smooth="yes"/>
      <point x="84" y="667" type="line" smooth="yes"/>
      <point x="96" y="667"/>
      <point x="96" y="655" type="qcurve" smooth="yes"/>
      <point x="96" y="95" type="line" smooth="yes"/>
      <point x="96" y="83"/>
      <point x="84" y="83" type="qcurve" smooth="yes"/>
      <point x="46" y="83" type="line" smooth="yes"/>
      <point x="34" y="83"/>
    </contour>
    <contour>
      <point x="198" y="182"/>
      <point x="198" y="272" type="qcurve" smooth="yes"/>
      <point x="198" y="326"/>
      <point x="234" y="427"/>
      <point x="281" y="503" type="qcurve" smooth="yes"/>
      <point x="378" y="659" type="line" smooth="yes"/>
      <point x="383" y="667"/>
      <point x="392" y="667" type="qcurve" smooth="yes"/>
      <point x="440" y="667" type="line" smooth="yes"/>
      <point x="447" y="667"/>
      <point x="452" y="659"/>
      <point x="448" y="653" type="qcurve" smooth="yes"/>
      <point x="316" y="446" type="line"/>
      <point x="348" y="463"/>
      <point x="382" y="463" type="qcurve" smooth="yes"/>
      <point x="430" y="463"/>
      <point x="505" y="414"/>
      <point x="546" y="326"/>
      <point x="546" y="269" type="qcurve" smooth="yes"/>
      <point x="546" y="180"/>
      <point x="451" y="72"/>
      <point x="371" y="72" type="qcurve" smooth="yes"/>
      <point x="291" y="72"/>
    </contour>
    <contour>
      <point x="479" y="208"/>
      <point x="479" y="269" type="qcurve" smooth="yes"/>
      <point x="479" y="330"/>
      <point x="421" y="400"/>
      <point x="373" y="400" type="qcurve" smooth="yes"/>
      <point x="322" y="400"/>
      <point x="263" y="331"/>
      <point x="263" y="269" type="qcurve" smooth="yes"/>
      <point x="263" y="208"/>
      <point x="322" y="138"/>
      <point x="371" y="138" type="qcurve" smooth="yes"/>
      <point x="420" y="138"/>
    </contour>
  </outline>
</glyph>
<glyph name="uni2470" format="2">
  <advance width="500"/>
  <unicode hex="2470"/>
  <outline>
    <contour>
      <point x="-99" y="29"/>
      <point x="-222" y="245"/>
      <point x="-222" y="380" type="qcurve" smooth="yes"/>
      <point x="-222" y="515"/>
      <point x="-99" y="730"/>
      <point x="117" y="852"/>
      <point x="251" y="852" type="qcurve" smooth="yes"/>
      <point x="386" y="852"/>
      <point x="601" y="731"/>
      <point x="722" y="515"/>
      <point x="722" y="380" type="qcurve" smooth="yes"/>
      <point x="722" y="245"/>
      <point x="601" y="29"/>
      <point x="386" y="-93"/>
      <point x="251" y="-93" type="qcurve" smooth="yes"/>
      <point x="117" y="-93"/>
    </contour>
    <contour>
      <point x="571" y="60"/>
      <point x="681" y="257"/>
      <point x="681" y="380" type="qcurve" smooth="yes"/>
      <point x="681" y="504"/>
      <point x="571" y="700"/>
      <point x="375" y="811"/>
      <point x="251" y="811" type="qcurve" smooth="yes"/>
      <point x="128" y="811"/>
      <point x="-69" y="700"/>
      <point x="-181" y="503"/>
      <point x="-181" y="380" type="qcurve" smooth="yes"/>
      <point x="-181" y="257"/>
      <point x="-69" y="60"/>
      <point x="128" y="-52"/>
      <point x="251" y="-52" type="qcurve" smooth="yes"/>
      <point x="375" y="-52"/>
    </contour>
    <contour>
      <point x="52" y="75" type="qcurve" smooth="yes"/>
      <point x="52" y="554" type="line"/>
      <point x="-32" y="494" type="line" smooth="yes"/>
      <point x="-34" y="492"/>
      <point x="-39" y="492" type="qcurve" smooth="yes"/>
      <point x="-45" y="492"/>
      <point x="-48" y="498" type="qcurve" smooth="yes"/>
      <point x="-56" y="511" type="line" smooth="yes"/>
      <point x="-58" y="515"/>
      <point x="-58" y="518" type="qcurve" smooth="yes"/>
      <point x="-58" y="523"/>
      <point x="-53" y="528" type="qcurve" smooth="yes"/>
      <point x="60" y="641" type="line" smooth="yes"/>
      <point x="66" y="647"/>
      <point x="75" y="647" type="qcurve" smooth="yes"/>
      <point x="102" y="647" type="line" smooth="yes"/>
      <point x="114" y="647"/>
      <point x="114" y="635" type="qcurve" smooth="yes"/>
      <point x="114" y="75" type="line" smooth="yes"/>
      <point x="114" y="63"/>
      <point x="102" y="63" type="qcurve" smooth="yes"/>
      <point x="64" y="63" type="line" smooth="yes"/>
      <point x="52" y="63"/>
    </contour>
    <contour>
      <point x="282" y="77" type="qcurve" smooth="yes"/>
      <point x="466" y="582" type="line"/>
      <point x="224" y="582" type="line" smooth="yes"/>
      <point x="212" y="582"/>
      <point x="212" y="594" type="qcurve" smooth="yes"/>
      <point x="212" y="635" type="line" smooth="yes"/>
      <point x="212" y="647"/>
      <point x="224" y="647" type="qcurve" smooth="yes"/>
      <point x="533" y="647" type="line" smooth="yes"/>
      <point x="545" y="647"/>
      <point x="545" y="635" type="qcurve" smooth="yes"/>
      <point x="545" y="621" type="line" smooth="yes"/>
      <point x="545" y="614"/>
      <point x="542" y="606" type="qcurve" smooth="yes"/>
      <point x="352" y="73" type="line" smooth="yes"/>
      <point x="349" y="63"/>
      <point x="339" y="63" type="qcurve" smooth="yes"/>
      <point x="292" y="63" type="line" smooth="yes"/>
      <point x="277" y="63"/>
    </contour>
  </outline>
</glyph>
<glyph name="uni2471" format="2">
  <advance width="500"/>
  <unicode hex="2471"/>
  <outline>
    <contour>
      <point x="-99" y="29"/>
      <point x="-222" y="245"/>
      <point x="-222" y="380" type="qcurve" smooth="yes"/>
      <point x="-222" y="515"/>
      <point x="-99" y="730"/>
      <point x="117" y="852"/>
      <point x="251" y="852" type="qcurve" smooth="yes"/>
      <point x="386" y="852"/>
      <point x="601" y="731"/>
      <point x="722" y="515"/>
      <point x="722" y="380" type="qcurve" smooth="yes"/>
      <point x="722" y="245"/>
      <point x="601" y="29"/>
      <point x="386" y="-93"/>
      <point x="251" y="-93" type="qcurve" smooth="yes"/>
      <point x="117" y="-93"/>
    </contour>
    <contour>
      <point x="571" y="60"/>
      <point x="681" y="257"/>
      <point x="681" y="380" type="qcurve" smooth="yes"/>
      <point x="681" y="504"/>
      <point x="571" y="700"/>
      <point x="375" y="811"/>
      <point x="251" y="811" type="qcurve" smooth="yes"/>
      <point x="128" y="811"/>
      <point x="-69" y="700"/>
      <point x="-181" y="503"/>
      <point x="-181" y="380" type="qcurve" smooth="yes"/>
      <point x="-181" y="257"/>
      <point x="-69" y="60"/>
      <point x="128" y="-52"/>
      <point x="251" y="-52" type="qcurve" smooth="yes"/>
      <point x="375" y="-52"/>
    </contour>
    <contour>
      <point x="232" y="111"/>
      <point x="185" y="190"/>
      <point x="185" y="240" type="qcurve" smooth="yes"/>
      <point x="185" y="290"/>
      <point x="237" y="369"/>
      <point x="282" y="387" type="qcurve"/>
      <point x="244" y="404"/>
      <point x="200" y="476"/>
      <point x="200" y="519" type="qcurve" smooth="yes"/>
      <point x="200" y="563"/>
      <point x="243" y="634"/>
      <point x="320" y="674"/>
      <point x="367" y="674" type="qcurve" smooth="yes"/>
      <point x="414" y="674"/>
      <point x="490" y="634"/>
      <point x="533" y="563"/>
      <point x="533" y="519" type="qcurve" smooth="yes"/>
      <point x="533" y="476"/>
      <point x="489" y="404"/>
      <point x="451" y="387" type="qcurve"/>
      <point x="496" y="369"/>
      <point x="548" y="290"/>
      <point x="548" y="240" type="qcurve" smooth="yes"/>
      <point x="548" y="190"/>
      <point x="502" y="111"/>
      <point x="419" y="67"/>
      <point x="367" y="67" type="qcurve" smooth="yes"/>
      <point x="315" y="67"/>
    </contour>
    <contour>
      <point x="29" y="90" type="qcurve" smooth="yes"/>
      <point x="29" y="570" type="line"/>
      <point x="-55" y="509" type="line" smooth="yes"/>
      <point x="-57" y="507"/>
      <point x="-62" y="507" type="qcurve" smooth="yes"/>
      <point x="-68" y="507"/>
      <point x="-71" y="513" type="qcurve" smooth="yes"/>
      <point x="-79" y="526" type="line" smooth="yes"/>
      <point x="-81" y="530"/>
      <point x="-81" y="533" type="qcurve" smooth="yes"/>
      <point x="-81" y="538"/>
      <point x="-76" y="543" type="qcurve" smooth="yes"/>
      <point x="38" y="656" type="line" smooth="yes"/>
      <point x="44" y="662"/>
      <point x="53" y="662" type="qcurve" smooth="yes"/>
      <point x="79" y="662" type="line" smooth="yes"/>
      <point x="91" y="662"/>
      <point x="91" y="650" type="qcurve" smooth="yes"/>
      <point x="91" y="90" type="line" smooth="yes"/>
      <point x="91" y="78"/>
      <point x="79" y="78" type="qcurve" smooth="yes"/>
      <point x="41" y="78" type="line" smooth="yes"/>
      <point x="29" y="78"/>
    </contour>
    <contour>
      <point x="467" y="469"/>
      <point x="467" y="514" type="qcurve" smooth="yes"/>
      <point x="467" y="558"/>
      <point x="412" y="612"/>
      <point x="367" y="612" type="qcurve" smooth="yes"/>
      <point x="322" y="612"/>
      <point x="266" y="558"/>
      <point x="266" y="514" type="qcurve" smooth="yes"/>
      <point x="266" y="469"/>
      <point x="322" y="415"/>
      <point x="367" y="415" type="qcurve" smooth="yes"/>
      <point x="412" y="415"/>
    </contour>
    <contour>
      <point x="482" y="191"/>
      <point x="482" y="242" type="qcurve" smooth="yes"/>
      <point x="482" y="291"/>
      <point x="417" y="355"/>
      <point x="367" y="355" type="qcurve" smooth="yes"/>
      <point x="316" y="355"/>
      <point x="251" y="292"/>
      <point x="251" y="242" type="qcurve" smooth="yes"/>
      <point x="251" y="191"/>
      <point x="315" y="128"/>
      <point x="367" y="128" type="qcurve" smooth="yes"/>
      <point x="418" y="128"/>
    </contour>
  </outline>
</glyph>
<glyph name="uni2472" format="2">
  <advance width="500"/>
  <unicode hex="2472"/>
  <outline>
    <contour>
      <point x="-99" y="29"/>
      <point x="-222" y="245"/>
      <point x="-222" y="380" type="qcurve" smooth="yes"/>
      <point x="-222" y="515"/>
      <point x="-99" y="730"/>
      <point x="117" y="852"/>
      <point x="251" y="852" type="qcurve" smooth="yes"/>
      <point x="386" y="852"/>
      <point x="601" y="731"/>
      <point x="722" y="515"/>
      <point x="722" y="380" type="qcurve" smooth="yes"/>
      <point x="722" y="245"/>
      <point x="601" y="29"/>
      <point x="386" y="-93"/>
      <point x="251" y="-93" type="qcurve" smooth="yes"/>
      <point x="117" y="-93"/>
    </contour>
    <contour>
      <point x="571" y="60"/>
      <point x="681" y="257"/>
      <point x="681" y="380" type="qcurve" smooth="yes"/>
      <point x="681" y="504"/>
      <point x="571" y="700"/>
      <point x="375" y="811"/>
      <point x="251" y="811" type="qcurve" smooth="yes"/>
      <point x="128" y="811"/>
      <point x="-69" y="700"/>
      <point x="-181" y="503"/>
      <point x="-181" y="380" type="qcurve" smooth="yes"/>
      <point x="-181" y="257"/>
      <point x="-69" y="60"/>
      <point x="128" y="-52"/>
      <point x="251" y="-52" type="qcurve" smooth="yes"/>
      <point x="375" y="-52"/>
    </contour>
    <contour>
      <point x="285" y="87"/>
      <point x="289" y="94" type="qcurve" smooth="yes"/>
      <point x="423" y="301" type="line"/>
      <point x="393" y="285"/>
      <point x="359" y="285" type="qcurve" smooth="yes"/>
      <point x="286" y="285"/>
      <point x="196" y="392"/>
      <point x="196" y="478" type="qcurve" smooth="yes"/>
      <point x="196" y="536"/>
      <point x="240" y="625"/>
      <point x="319" y="675"/>
      <point x="370" y="675" type="qcurve" smooth="yes"/>
      <point x="421" y="675"/>
      <point x="499" y="624"/>
      <point x="543" y="534"/>
      <point x="543" y="476" type="qcurve" smooth="yes"/>
      <point x="543" y="423"/>
      <point x="506" y="321"/>
      <point x="458" y="244" type="qcurve" smooth="yes"/>
      <point x="358" y="87" type="line" smooth="yes"/>
      <point x="354" y="79"/>
      <point x="344" y="79" type="qcurve" smooth="yes"/>
      <point x="297" y="79" type="line" smooth="yes"/>
      <point x="290" y="79"/>
    </contour>
    <contour>
      <point x="31" y="91" type="qcurve" smooth="yes"/>
      <point x="31" y="570" type="line"/>
      <point x="-53" y="510" type="line" smooth="yes"/>
      <point x="-55" y="508"/>
      <point x="-60" y="508" type="qcurve" smooth="yes"/>
      <point x="-66" y="508"/>
      <point x="-69" y="514" type="qcurve" smooth="yes"/>
      <point x="-77" y="527" type="line" smooth="yes"/>
      <point x="-79" y="531"/>
      <point x="-79" y="534" type="qcurve" smooth="yes"/>
      <point x="-79" y="539"/>
      <point x="-74" y="544" type="qcurve" smooth="yes"/>
      <point x="40" y="657" type="line" smooth="yes"/>
      <point x="46" y="663"/>
      <point x="55" y="663" type="qcurve" smooth="yes"/>
      <point x="81" y="663" type="line" smooth="yes"/>
      <point x="93" y="663"/>
      <point x="93" y="651" type="qcurve" smooth="yes"/>
      <point x="93" y="91" type="line" smooth="yes"/>
      <point x="93" y="79"/>
      <point x="81" y="79" type="qcurve" smooth="yes"/>
      <point x="43" y="79" type="line" smooth="yes"/>
      <point x="31" y="79"/>
    </contour>
    <contour>
      <point x="476" y="415"/>
      <point x="476" y="477" type="qcurve" smooth="yes"/>
      <point x="476" y="538"/>
      <point x="419" y="607"/>
      <point x="370" y="607" type="qcurve" smooth="yes"/>
      <point x="321" y="607"/>
      <point x="263" y="538"/>
      <point x="263" y="477" type="qcurve" smooth="yes"/>
      <point x="263" y="416"/>
      <point x="321" y="346"/>
      <point x="370" y="346" type="qcurve" smooth="yes"/>
      <point x="419" y="346"/>
    </contour>
  </outline>
</glyph>
<glyph name="uni2473" format="2">
  <advance width="500"/>
  <unicode hex="2473"/>
  <outline>
    <contour>
      <point x="-99" y="29"/>
      <point x="-222" y="245"/>
      <point x="-222" y="380" type="qcurve" smooth="yes"/>
      <point x="-222" y="515"/>
      <point x="-99" y="730"/>
      <point x="117" y="852"/>
      <point x="251" y="852" type="qcurve" smooth="yes"/>
      <point x="386" y="852"/>
      <point x="601" y="731"/>
      <point x="722" y="515"/>
      <point x="722" y="380" type="qcurve" smooth="yes"/>
      <point x="722" y="245"/>
      <point x="601" y="29"/>
      <point x="386" y="-93"/>
      <point x="251" y="-93" type="qcurve" smooth="yes"/>
      <point x="117" y="-93"/>
    </contour>
    <contour>
      <point x="571" y="60"/>
      <point x="681" y="257"/>
      <point x="681" y="380" type="qcurve" smooth="yes"/>
      <point x="681" y="504"/>
      <point x="571" y="700"/>
      <point x="375" y="811"/>
      <point x="251" y="811" type="qcurve" smooth="yes"/>
      <point x="128" y="811"/>
      <point x="-69" y="700"/>
      <point x="-181" y="503"/>
      <point x="-181" y="380" type="qcurve" smooth="yes"/>
      <point x="-181" y="257"/>
      <point x="-69" y="60"/>
      <point x="128" y="-52"/>
      <point x="251" y="-52" type="qcurve" smooth="yes"/>
      <point x="375" y="-52"/>
    </contour>
    <contour>
      <point x="-47" y="107" type="qcurve" smooth="yes"/>
      <point x="-47" y="121" type="line" smooth="yes"/>
      <point x="-47" y="129"/>
      <point x="-43" y="136" type="qcurve" smooth="yes"/>
      <point x="51" y="280" type="line" smooth="yes"/>
      <point x="109" y="368"/>
      <point x="145" y="471"/>
      <point x="145" y="521" type="qcurve" smooth="yes"/>
      <point x="145" y="565"/>
      <point x="110" y="615"/>
      <point x="79" y="615" type="qcurve" smooth="yes"/>
      <point x="51" y="615"/>
      <point x="11" y="573"/>
      <point x="2" y="530" type="qcurve" smooth="yes"/>
      <point x="0" y="517"/>
      <point x="-12" y="520" type="qcurve" smooth="yes"/>
      <point x="-44" y="527" type="line" smooth="yes"/>
      <point x="-54" y="530"/>
      <point x="-53" y="542" type="qcurve" smooth="yes"/>
      <point x="-40" y="608"/>
      <point x="33" y="679"/>
      <point x="81" y="679" type="qcurve" smooth="yes"/>
      <point x="137" y="679"/>
      <point x="206" y="594"/>
      <point x="206" y="524" type="qcurve" smooth="yes"/>
      <point x="206" y="482"/>
      <point x="191" y="409"/>
      <point x="143" y="308"/>
      <point x="94" y="236" type="qcurve" smooth="yes"/>
      <point x="38" y="156" type="line"/>
      <point x="200" y="156" type="line" smooth="yes"/>
      <point x="212" y="156"/>
      <point x="212" y="144" type="qcurve" smooth="yes"/>
      <point x="212" y="107" type="line" smooth="yes"/>
      <point x="212" y="95"/>
      <point x="200" y="95" type="qcurve" smooth="yes"/>
      <point x="-35" y="95" type="line" smooth="yes"/>
      <point x="-47" y="95"/>
    </contour>
    <contour>
      <point x="268" y="238"/>
      <point x="268" y="381" type="qcurve" smooth="yes"/>
      <point x="268" y="524"/>
      <point x="344" y="679"/>
      <point x="416" y="679" type="qcurve" smooth="yes"/>
      <point x="487" y="679"/>
      <point x="562" y="524"/>
      <point x="562" y="381" type="qcurve" smooth="yes"/>
      <point x="562" y="238"/>
      <point x="487" y="83"/>
      <point x="416" y="83" type="qcurve" smooth="yes"/>
      <point x="344" y="83"/>
    </contour>
    <contour>
      <point x="504" y="265"/>
      <point x="504" y="381" type="qcurve" smooth="yes"/>
      <point x="504" y="497"/>
      <point x="459" y="615"/>
      <point x="416" y="615" type="qcurve" smooth="yes"/>
      <point x="373" y="615"/>
      <point x="326" y="497"/>
      <point x="326" y="381" type="qcurve" smooth="yes"/>
      <point x="326" y="265"/>
      <point x="373" y="147"/>
      <point x="416" y="147" type="qcurve" smooth="yes"/>
      <point x="459" y="147"/>
    </contour>
  </outline>
</glyph>
<glyph name="uni24EA" format="2">
  <advance width="500"/>
  <unicode hex="24EA"/>
  <outline>
    <contour>
      <point x="-99" y="29"/>
      <point x="-222" y="245"/>
      <point x="-222" y="380" type="qcurve" smooth="yes"/>
      <point x="-222" y="515"/>
      <point x="-99" y="730"/>
      <point x="117" y="852"/>
      <point x="251" y="852" type="qcurve" smooth="yes"/>
      <point x="386" y="852"/>
      <point x="601" y="731"/>
      <point x="722" y="515"/>
      <point x="722" y="380" type="qcurve" smooth="yes"/>
      <point x="722" y="245"/>
      <point x="601" y="29"/>
      <point x="386" y="-93"/>
      <point x="251" y="-93" type="qcurve" smooth="yes"/>
      <point x="117" y="-93"/>
    </contour>
    <contour>
      <point x="571" y="60"/>
      <point x="681" y="257"/>
      <point x="681" y="380" type="qcurve" smooth="yes"/>
      <point x="681" y="504"/>
      <point x="571" y="700"/>
      <point x="375" y="811"/>
      <point x="251" y="811" type="qcurve" smooth="yes"/>
      <point x="128" y="811"/>
      <point x="-69" y="700"/>
      <point x="-181" y="503"/>
      <point x="-181" y="380" type="qcurve" smooth="yes"/>
      <point x="-181" y="257"/>
      <point x="-69" y="60"/>
      <point x="128" y="-52"/>
      <point x="251" y="-52" type="qcurve" smooth="yes"/>
      <point x="375" y="-52"/>
    </contour>
    <contour>
      <point x="25" y="233"/>
      <point x="25" y="381" type="qcurve" smooth="yes"/>
      <point x="25" y="528"/>
      <point x="145" y="696"/>
      <point x="251" y="696" type="qcurve" smooth="yes"/>
      <point x="356" y="696"/>
      <point x="475" y="528"/>
      <point x="475" y="381" type="qcurve" smooth="yes"/>
      <point x="475" y="233"/>
      <point x="356" y="64"/>
      <point x="251" y="64" type="qcurve" smooth="yes"/>
      <point x="145" y="64"/>
    </contour>
    <contour>
      <point x="402" y="260"/>
      <point x="402" y="381" type="qcurve" smooth="yes"/>
      <point x="402" y="502"/>
      <point x="324" y="626"/>
      <point x="251" y="626" type="qcurve" smooth="yes"/>
      <point x="177" y="626"/>
      <point x="99" y="502"/>
      <point x="99" y="381" type="qcurve" smooth="yes"/>
      <point x="99" y="260"/>
      <point x="178" y="135"/>
      <point x="251" y="135" type="qcurve" smooth="yes"/>
      <point x="324" y="135"/>
    </contour>
  </outline>
</glyph>
<glyph name="uni24F9" format="2">
  <advance width="500"/>
  <unicode hex="24F9"/>
  <outline>
    <contour>
      <point x="-99" y="29"/>
      <point x="-222" y="245"/>
      <point x="-222" y="380" type="qcurve" smooth="yes"/>
      <point x="-222" y="515"/>
      <point x="-99" y="730"/>
      <point x="117" y="852"/>
      <point x="251" y="852" type="qcurve" smooth="yes"/>
      <point x="386" y="852"/>
      <point x="601" y="731"/>
      <point x="722" y="515"/>
      <point x="722" y="380" type="qcurve" smooth="yes"/>
      <point x="722" y="245"/>
      <point x="601" y="29"/>
      <point x="386" y="-93"/>
      <point x="251" y="-93" type="qcurve" smooth="yes"/>
      <point x="117" y="-93"/>
    </contour>
    <contour>
      <point x="571" y="60"/>
      <point x="681" y="257"/>
      <point x="681" y="380" type="qcurve" smooth="yes"/>
      <point x="681" y="504"/>
      <point x="571" y="700"/>
      <point x="375" y="811"/>
      <point x="251" y="811" type="qcurve" smooth="yes"/>
      <point x="128" y="811"/>
      <point x="-69" y="700"/>
      <point x="-181" y="503"/>
      <point x="-181" y="380" type="qcurve" smooth="yes"/>
      <point x="-181" y="257"/>
      <point x="-69" y="60"/>
      <point x="128" y="-52"/>
      <point x="251" y="-52" type="qcurve" smooth="yes"/>
      <point x="375" y="-52"/>
    </contour>
    <contour>
      <point x="63" y="141"/>
      <point x="44" y="220" type="qcurve" smooth="yes"/>
      <point x="43" y="225" type="line" smooth="yes"/>
      <point x="43" y="232"/>
      <point x="52" y="235" type="qcurve" smooth="yes"/>
      <point x="94" y="245" type="line"/>
      <point x="98" y="246" type="line" smooth="yes"/>
      <point x="105" y="246"/>
      <point x="108" y="237" type="qcurve" smooth="yes"/>
      <point x="145" y="124"/>
      <point x="253" y="124" type="qcurve" smooth="yes"/>
      <point x="313" y="124"/>
      <point x="386" y="196"/>
      <point x="386" y="259" type="qcurve" smooth="yes"/>
      <point x="386" y="322"/>
      <point x="315" y="395"/>
      <point x="254" y="395" type="qcurve" smooth="yes"/>
      <point x="173" y="395"/>
      <point x="112" y="333" type="qcurve" smooth="yes"/>
      <point x="105" y="325"/>
      <point x="96" y="329" type="qcurve" smooth="yes"/>
      <point x="73" y="340" type="line" smooth="yes"/>
      <point x="64" y="345"/>
      <point x="65" y="354" type="qcurve" smooth="yes"/>
      <point x="93" y="663" type="line" smooth="yes"/>
      <point x="95" y="674"/>
      <point x="106" y="674" type="qcurve" smooth="yes"/>
      <point x="417" y="674" type="line" smooth="yes"/>
      <point x="429" y="674"/>
      <point x="429" y="662" type="qcurve" smooth="yes"/>
      <point x="429" y="618" type="line" smooth="yes"/>
      <point x="429" y="606"/>
      <point x="417" y="606" type="qcurve" smooth="yes"/>
      <point x="151" y="606" type="line"/>
      <point x="132" y="413" type="line"/>
      <point x="190" y="460"/>
      <point x="268" y="460" type="qcurve" smooth="yes"/>
      <point x="324" y="460"/>
      <point x="411" y="410"/>
      <point x="459" y="319"/>
      <point x="459" y="259" type="qcurve" smooth="yes"/>
      <point x="459" y="199"/>
      <point x="407" y="105"/>
      <point x="315" y="53"/>
      <point x="256" y="53" type="qcurve" smooth="yes"/>
      <point x="179" y="53"/>
    </contour>
  </outline>
</glyph>
<glyph name="uni24FC" format="2">
  <advance width="500"/>
  <unicode hex="24FC"/>
  <outline>
    <contour>
      <point x="-99" y="29"/>
      <point x="-222" y="245"/>
      <point x="-222" y="380" type="qcurve" smooth="yes"/>
      <point x="-222" y="515"/>
      <point x="-99" y="730"/>
      <point x="117" y="852"/>
      <point x="251" y="852" type="qcurve" smooth="yes"/>
      <point x="386" y="852"/>
      <point x="601" y="731"/>
      <point x="722" y="515"/>
      <point x="722" y="380" type="qcurve" smooth="yes"/>
      <point x="722" y="245"/>
      <point x="601" y="29"/>
      <point x="386" y="-93"/>
      <point x="251" y="-93" type="qcurve" smooth="yes"/>
      <point x="117" y="-93"/>
    </contour>
    <contour>
      <point x="571" y="60"/>
      <point x="681" y="257"/>
      <point x="681" y="380" type="qcurve" smooth="yes"/>
      <point x="681" y="504"/>
      <point x="571" y="700"/>
      <point x="375" y="811"/>
      <point x="251" y="811" type="qcurve" smooth="yes"/>
      <point x="128" y="811"/>
      <point x="-69" y="700"/>
      <point x="-181" y="503"/>
      <point x="-181" y="380" type="qcurve" smooth="yes"/>
      <point x="-181" y="257"/>
      <point x="-69" y="60"/>
      <point x="128" y="-52"/>
      <point x="251" y="-52" type="qcurve" smooth="yes"/>
      <point x="375" y="-52"/>
    </contour>
    <contour>
      <point x="89" y="109"/>
      <point x="33" y="191"/>
      <point x="33" y="244" type="qcurve" smooth="yes"/>
      <point x="33" y="297"/>
      <point x="95" y="378"/>
      <point x="148" y="397" type="qcurve"/>
      <point x="103" y="415"/>
      <point x="50" y="489"/>
      <point x="50" y="535" type="qcurve" smooth="yes"/>
      <point x="50" y="581"/>
      <point x="102" y="655"/>
      <point x="194" y="696"/>
      <point x="251" y="696" type="qcurve" smooth="yes"/>
      <point x="308" y="696"/>
      <point x="399" y="655"/>
      <point x="450" y="581"/>
      <point x="450" y="535" type="qcurve" smooth="yes"/>
      <point x="450" y="489"/>
      <point x="397" y="415"/>
      <point x="352" y="397" type="qcurve"/>
      <point x="406" y="378"/>
      <point x="467" y="297"/>
      <point x="467" y="244" type="qcurve" smooth="yes"/>
      <point x="467" y="191"/>
      <point x="411" y="109"/>
      <point x="313" y="64"/>
      <point x="251" y="64" type="qcurve" smooth="yes"/>
      <point x="188" y="64"/>
    </contour>
    <contour>
      <point x="376" y="482"/>
      <point x="376" y="528" type="qcurve" smooth="yes"/>
      <point x="376" y="572"/>
      <point x="306" y="630"/>
      <point x="251" y="630" type="qcurve" smooth="yes"/>
      <point x="195" y="630"/>
      <point x="124" y="572"/>
      <point x="124" y="528" type="qcurve" smooth="yes"/>
      <point x="124" y="482"/>
      <point x="195" y="424"/>
      <point x="251" y="424" type="qcurve" smooth="yes"/>
      <point x="307" y="424"/>
    </contour>
    <contour>
      <point x="395" y="198"/>
      <point x="395" y="250" type="qcurve" smooth="yes"/>
      <point x="395" y="301"/>
      <point x="314" y="365"/>
      <point x="251" y="365" type="qcurve" smooth="yes"/>
      <point x="186" y="365"/>
      <point x="105" y="301"/>
      <point x="105" y="250" type="qcurve" smooth="yes"/>
      <point x="105" y="197"/>
      <point x="187" y="131"/>
      <point x="251" y="131" type="qcurve" smooth="yes"/>
      <point x="314" y="131"/>
    </contour>
  </outline>
</glyph>
<glyph name="uni3251" format="2">
  <advance width="500"/>
  <unicode hex="3251"/>
  <outline>
    <contour>
      <point x="-99" y="29"/>
      <point x="-222" y="245"/>
      <point x="-222" y="380" type="qcurve" smooth="yes"/>
      <point x="-222" y="515"/>
      <point x="-99" y="730"/>
      <point x="117" y="852"/>
      <point x="251" y="852" type="qcurve" smooth="yes"/>
      <point x="386" y="852"/>
      <point x="601" y="731"/>
      <point x="722" y="515"/>
      <point x="722" y="380" type="qcurve" smooth="yes"/>
      <point x="722" y="245"/>
      <point x="601" y="29"/>
      <point x="386" y="-93"/>
      <point x="251" y="-93" type="qcurve" smooth="yes"/>
      <point x="117" y="-93"/>
    </contour>
    <contour>
      <point x="571" y="60"/>
      <point x="681" y="257"/>
      <point x="681" y="380" type="qcurve" smooth="yes"/>
      <point x="681" y="504"/>
      <point x="571" y="700"/>
      <point x="375" y="811"/>
      <point x="251" y="811" type="qcurve" smooth="yes"/>
      <point x="128" y="811"/>
      <point x="-69" y="700"/>
      <point x="-181" y="503"/>
      <point x="-181" y="380" type="qcurve" smooth="yes"/>
      <point x="-181" y="257"/>
      <point x="-69" y="60"/>
      <point x="128" y="-52"/>
      <point x="251" y="-52" type="qcurve" smooth="yes"/>
      <point x="375" y="-52"/>
    </contour>
    <contour>
      <point x="-30" y="109" type="qcurve" smooth="yes"/>
      <point x="-30" y="122" type="line" smooth="yes"/>
      <point x="-30" y="130"/>
      <point x="-26" y="137" type="qcurve" smooth="yes"/>
      <point x="69" y="281" type="line" smooth="yes"/>
      <point x="127" y="369"/>
      <point x="163" y="474"/>
      <point x="163" y="523" type="qcurve" smooth="yes"/>
      <point x="163" y="566"/>
      <point x="127" y="616"/>
      <point x="96" y="616" type="qcurve" smooth="yes"/>
      <point x="68" y="616"/>
      <point x="28" y="574"/>
      <point x="20" y="531" type="qcurve" smooth="yes"/>
      <point x="18" y="518"/>
      <point x="6" y="521" type="qcurve" smooth="yes"/>
      <point x="-27" y="528" type="line" smooth="yes"/>
      <point x="-37" y="531"/>
      <point x="-36" y="543" type="qcurve" smooth="yes"/>
      <point x="-23" y="609"/>
      <point x="50" y="680"/>
      <point x="98" y="680" type="qcurve" smooth="yes"/>
      <point x="154" y="680"/>
      <point x="223" y="595"/>
      <point x="223" y="525" type="qcurve" smooth="yes"/>
      <point x="223" y="483"/>
      <point x="209" y="410"/>
      <point x="161" y="309"/>
      <point x="112" y="237" type="qcurve" smooth="yes"/>
      <point x="56" y="157" type="line"/>
      <point x="218" y="157" type="line" smooth="yes"/>
      <point x="230" y="157"/>
      <point x="230" y="145" type="qcurve" smooth="yes"/>
      <point x="230" y="109" type="line" smooth="yes"/>
      <point x="230" y="97"/>
      <point x="218" y="97" type="qcurve" smooth="yes"/>
      <point x="-18" y="97" type="line" smooth="yes"/>
      <point x="-30" y="97"/>
    </contour>
    <contour>
      <point x="412" y="101" type="qcurve" smooth="yes"/>
      <point x="412" y="581" type="line"/>
      <point x="329" y="521" type="line" smooth="yes"/>
      <point x="327" y="519"/>
      <point x="322" y="519" type="qcurve" smooth="yes"/>
      <point x="316" y="519"/>
      <point x="313" y="525" type="qcurve" smooth="yes"/>
      <point x="305" y="538" type="line" smooth="yes"/>
      <point x="303" y="542"/>
      <point x="303" y="545" type="qcurve" smooth="yes"/>
      <point x="303" y="550"/>
      <point x="308" y="555" type="qcurve" smooth="yes"/>
      <point x="421" y="668" type="line" smooth="yes"/>
      <point x="427" y="674"/>
      <point x="436" y="674" type="qcurve" smooth="yes"/>
      <point x="464" y="674" type="line" smooth="yes"/>
      <point x="476" y="674"/>
      <point x="476" y="662" type="qcurve" smooth="yes"/>
      <point x="476" y="101" type="line" smooth="yes"/>
      <point x="476" y="89"/>
      <point x="464" y="89" type="qcurve" smooth="yes"/>
      <point x="424" y="89" type="line" smooth="yes"/>
      <point x="412" y="89"/>
    </contour>
  </outline>
</glyph>
<glyph name="uni3252" format="2">
  <advance width="500"/>
  <unicode hex="3252"/>
  <outline>
    <contour>
      <point x="-99" y="29"/>
      <point x="-222" y="245"/>
      <point x="-222" y="380" type="qcurve" smooth="yes"/>
      <point x="-222" y="515"/>
      <point x="-99" y="730"/>
      <point x="117" y="852"/>
      <point x="251" y="852" type="qcurve" smooth="yes"/>
      <point x="386" y="852"/>
      <point x="601" y="731"/>
      <point x="722" y="515"/>
      <point x="722" y="380" type="qcurve" smooth="yes"/>
      <point x="722" y="245"/>
      <point x="601" y="29"/>
      <point x="386" y="-93"/>
      <point x="251" y="-93" type="qcurve" smooth="yes"/>
      <point x="117" y="-93"/>
    </contour>
    <contour>
      <point x="571" y="60"/>
      <point x="681" y="257"/>
      <point x="681" y="380" type="qcurve" smooth="yes"/>
      <point x="681" y="504"/>
      <point x="571" y="700"/>
      <point x="375" y="811"/>
      <point x="251" y="811" type="qcurve" smooth="yes"/>
      <point x="128" y="811"/>
      <point x="-69" y="700"/>
      <point x="-181" y="503"/>
      <point x="-181" y="380" type="qcurve" smooth="yes"/>
      <point x="-181" y="257"/>
      <point x="-69" y="60"/>
      <point x="128" y="-52"/>
      <point x="251" y="-52" type="qcurve" smooth="yes"/>
      <point x="375" y="-52"/>
    </contour>
    <contour>
      <point x="-46" y="107" type="qcurve" smooth="yes"/>
      <point x="-46" y="121" type="line" smooth="yes"/>
      <point x="-46" y="129"/>
      <point x="-42" y="136" type="qcurve" smooth="yes"/>
      <point x="53" y="280" type="line" smooth="yes"/>
      <point x="111" y="368"/>
      <point x="147" y="471"/>
      <point x="147" y="521" type="qcurve" smooth="yes"/>
      <point x="147" y="565"/>
      <point x="111" y="615"/>
      <point x="80" y="615" type="qcurve" smooth="yes"/>
      <point x="52" y="615"/>
      <point x="12" y="573"/>
      <point x="4" y="530" type="qcurve" smooth="yes"/>
      <point x="2" y="517"/>
      <point x="-10" y="520" type="qcurve" smooth="yes"/>
      <point x="-42" y="527" type="line" smooth="yes"/>
      <point x="-52" y="530"/>
      <point x="-51" y="542" type="qcurve" smooth="yes"/>
      <point x="-38" y="608"/>
      <point x="34" y="679"/>
      <point x="83" y="679" type="qcurve" smooth="yes"/>
      <point x="139" y="679"/>
      <point x="207" y="594"/>
      <point x="207" y="524" type="qcurve" smooth="yes"/>
      <point x="207" y="481"/>
      <point x="193" y="409"/>
      <point x="145" y="308"/>
      <point x="96" y="236" type="qcurve" smooth="yes"/>
      <point x="40" y="156" type="line"/>
      <point x="202" y="156" type="line" smooth="yes"/>
      <point x="214" y="156"/>
      <point x="214" y="144" type="qcurve" smooth="yes"/>
      <point x="214" y="107" type="line" smooth="yes"/>
      <point x="214" y="95"/>
      <point x="202" y="95" type="qcurve" smooth="yes"/>
      <point x="-34" y="95" type="line" smooth="yes"/>
      <point x="-46" y="95"/>
    </contour>
    <contour>
      <point x="281" y="107" type="qcurve" smooth="yes"/>
      <point x="281" y="121" type="line" smooth="yes"/>
      <point x="281" y="129"/>
      <point x="285" y="136" type="qcurve" smooth="yes"/>
      <point x="380" y="280" type="line" smooth="yes"/>
      <point x="438" y="368"/>
      <point x="474" y="472"/>
      <point x="474" y="521" type="qcurve" smooth="yes"/>
      <point x="474" y="565"/>
      <point x="438" y="615"/>
      <point x="407" y="615" type="qcurve" smooth="yes"/>
      <point x="379" y="615"/>
      <point x="339" y="573"/>
      <point x="331" y="530" type="qcurve" smooth="yes"/>
      <point x="329" y="517"/>
      <point x="317" y="520" type="qcurve" smooth="yes"/>
      <point x="285" y="527" type="line" smooth="yes"/>
      <point x="275" y="530"/>
      <point x="276" y="542" type="qcurve" smooth="yes"/>
      <point x="289" y="608"/>
      <point x="361" y="679"/>
      <point x="410" y="679" type="qcurve" smooth="yes"/>
      <point x="466" y="679"/>
      <point x="534" y="594"/>
      <point x="534" y="524" type="qcurve" smooth="yes"/>
      <point x="534" y="481"/>
      <point x="520" y="409"/>
      <point x="472" y="308"/>
      <point x="423" y="236" type="qcurve" smooth="yes"/>
      <point x="367" y="156" type="line"/>
      <point x="529" y="156" type="line" smooth="yes"/>
      <point x="541" y="156"/>
      <point x="541" y="144" type="qcurve" smooth="yes"/>
      <point x="541" y="107" type="line" smooth="yes"/>
      <point x="541" y="95"/>
      <point x="529" y="95" type="qcurve" smooth="yes"/>
      <point x="293" y="95" type="line" smooth="yes"/>
      <point x="281" y="95"/>
    </contour>
  </outline>
</glyph>
<glyph name="uni3253" format="2">
  <advance width="500"/>
  <unicode hex="3253"/>
  <outline>
    <contour>
      <point x="-99" y="29"/>
      <point x="-222" y="245"/>
      <point x="-222" y="380" type="qcurve" smooth="yes"/>
      <point x="-222" y="515"/>
      <point x="-99" y="730"/>
      <point x="117" y="852"/>
      <point x="251" y="852" type="qcurve" smooth="yes"/>
      <point x="386" y="852"/>
      <point x="601" y="731"/>
      <point x="722" y="515"/>
      <point x="722" y="380" type="qcurve" smooth="yes"/>
      <point x="722" y="245"/>
      <point x="601" y="29"/>
      <point x="386" y="-93"/>
      <point x="251" y="-93" type="qcurve" smooth="yes"/>
      <point x="117" y="-93"/>
    </contour>
    <contour>
      <point x="571" y="60"/>
      <point x="681" y="257"/>
      <point x="681" y="380" type="qcurve" smooth="yes"/>
      <point x="681" y="504"/>
      <point x="571" y="700"/>
      <point x="375" y="811"/>
      <point x="251" y="811" type="qcurve" smooth="yes"/>
      <point x="128" y="811"/>
      <point x="-69" y="700"/>
      <point x="-181" y="503"/>
      <point x="-181" y="380" type="qcurve" smooth="yes"/>
      <point x="-181" y="257"/>
      <point x="-69" y="60"/>
      <point x="128" y="-52"/>
      <point x="251" y="-52" type="qcurve" smooth="yes"/>
      <point x="375" y="-52"/>
    </contour>
    <contour>
      <point x="-53" y="107" type="qcurve" smooth="yes"/>
      <point x="-53" y="121" type="line" smooth="yes"/>
      <point x="-53" y="129"/>
      <point x="-49" y="136" type="qcurve" smooth="yes"/>
      <point x="46" y="280" type="line" smooth="yes"/>
      <point x="104" y="368"/>
      <point x="140" y="472"/>
      <point x="140" y="521" type="qcurve" smooth="yes"/>
      <point x="140" y="565"/>
      <point x="104" y="615"/>
      <point x="73" y="615" type="qcurve" smooth="yes"/>
      <point x="45" y="615"/>
      <point x="5" y="573"/>
      <point x="-3" y="530" type="qcurve" smooth="yes"/>
      <point x="-5" y="517"/>
      <point x="-17" y="520" type="qcurve" smooth="yes"/>
      <point x="-50" y="527" type="line" smooth="yes"/>
      <point x="-60" y="530"/>
      <point x="-59" y="542" type="qcurve" smooth="yes"/>
      <point x="-46" y="608"/>
      <point x="27" y="679"/>
      <point x="75" y="679" type="qcurve" smooth="yes"/>
      <point x="131" y="679"/>
      <point x="200" y="594"/>
      <point x="200" y="524" type="qcurve" smooth="yes"/>
      <point x="200" y="481"/>
      <point x="186" y="409"/>
      <point x="138" y="308"/>
      <point x="89" y="236" type="qcurve" smooth="yes"/>
      <point x="33" y="156" type="line"/>
      <point x="195" y="156" type="line" smooth="yes"/>
      <point x="207" y="156"/>
      <point x="207" y="144" type="qcurve" smooth="yes"/>
      <point x="207" y="107" type="line" smooth="yes"/>
      <point x="207" y="95"/>
      <point x="195" y="95" type="qcurve" smooth="yes"/>
      <point x="-41" y="95" type="line" smooth="yes"/>
      <point x="-53" y="95"/>
    </contour>
    <contour>
      <point x="272" y="163"/>
      <point x="264" y="237" type="qcurve"/>
      <point x="264" y="239" type="line" smooth="yes"/>
      <point x="264" y="248"/>
      <point x="274" y="250" type="qcurve" smooth="yes"/>
      <point x="305" y="257" type="line"/>
      <point x="309" y="258" type="line" smooth="yes"/>
      <point x="316" y="258"/>
      <point x="319" y="247" type="qcurve" smooth="yes"/>
      <point x="326" y="195"/>
      <point x="373" y="144"/>
      <point x="407" y="144" type="qcurve" smooth="yes"/>
      <point x="446" y="144"/>
      <point x="488" y="207"/>
      <point x="488" y="257" type="qcurve" smooth="yes"/>
      <point x="488" y="306"/>
      <point x="445" y="365"/>
      <point x="408" y="365" type="qcurve" smooth="yes"/>
      <point x="385" y="365" type="line" smooth="yes"/>
      <point x="373" y="365"/>
      <point x="373" y="377" type="qcurve" smooth="yes"/>
      <point x="373" y="412" type="line" smooth="yes"/>
      <point x="373" y="424"/>
      <point x="385" y="424" type="qcurve" smooth="yes"/>
      <point x="409" y="424" type="line" smooth="yes"/>
      <point x="441" y="424"/>
      <point x="481" y="481"/>
      <point x="481" y="523" type="qcurve" smooth="yes"/>
      <point x="481" y="566"/>
      <point x="439" y="619"/>
      <point x="405" y="619" type="qcurve" smooth="yes"/>
      <point x="374" y="619"/>
      <point x="330" y="574"/>
      <point x="323" y="532" type="qcurve" smooth="yes"/>
      <point x="321" y="519"/>
      <point x="309" y="522" type="qcurve" smooth="yes"/>
      <point x="278" y="530" type="line" smooth="yes"/>
      <point x="268" y="533"/>
      <point x="269" y="545" type="qcurve" smooth="yes"/>
      <point x="281" y="608"/>
      <point x="356" y="679"/>
      <point x="406" y="679" type="qcurve" smooth="yes"/>
      <point x="465" y="679"/>
      <point x="540" y="597"/>
      <point x="540" y="527" type="qcurve" smooth="yes"/>
      <point x="540" y="483"/>
      <point x="505" y="413"/>
      <point x="474" y="397" type="qcurve"/>
      <point x="508" y="380"/>
      <point x="549" y="304"/>
      <point x="549" y="254" type="qcurve" smooth="yes"/>
      <point x="549" y="176"/>
      <point x="475" y="84"/>
      <point x="408" y="84" type="qcurve" smooth="yes"/>
      <point x="354" y="84"/>
    </contour>
  </outline>
</glyph>
<glyph name="uni3254" format="2">
  <advance width="500"/>
  <unicode hex="3254"/>
  <outline>
    <contour>
      <point x="-99" y="29"/>
      <point x="-222" y="245"/>
      <point x="-222" y="380" type="qcurve" smooth="yes"/>
      <point x="-222" y="515"/>
      <point x="-99" y="730"/>
      <point x="117" y="852"/>
      <point x="251" y="852" type="qcurve" smooth="yes"/>
      <point x="386" y="852"/>
      <point x="601" y="731"/>
      <point x="722" y="515"/>
      <point x="722" y="380" type="qcurve" smooth="yes"/>
      <point x="722" y="245"/>
      <point x="601" y="29"/>
      <point x="386" y="-93"/>
      <point x="251" y="-93" type="qcurve" smooth="yes"/>
      <point x="117" y="-93"/>
    </contour>
    <contour>
      <point x="571" y="60"/>
      <point x="681" y="257"/>
      <point x="681" y="380" type="qcurve" smooth="yes"/>
      <point x="681" y="504"/>
      <point x="571" y="700"/>
      <point x="375" y="811"/>
      <point x="251" y="811" type="qcurve" smooth="yes"/>
      <point x="128" y="811"/>
      <point x="-69" y="700"/>
      <point x="-181" y="503"/>
      <point x="-181" y="380" type="qcurve" smooth="yes"/>
      <point x="-181" y="257"/>
      <point x="-69" y="60"/>
      <point x="128" y="-52"/>
      <point x="251" y="-52" type="qcurve" smooth="yes"/>
      <point x="375" y="-52"/>
    </contour>
    <contour>
      <point x="-47" y="107" type="qcurve" smooth="yes"/>
      <point x="-47" y="121" type="line" smooth="yes"/>
      <point x="-47" y="129"/>
      <point x="-43" y="136" type="qcurve" smooth="yes"/>
      <point x="51" y="280" type="line" smooth="yes"/>
      <point x="109" y="368"/>
      <point x="145" y="471"/>
      <point x="145" y="521" type="qcurve" smooth="yes"/>
      <point x="145" y="565"/>
      <point x="110" y="615"/>
      <point x="79" y="615" type="qcurve" smooth="yes"/>
      <point x="51" y="615"/>
      <point x="11" y="573"/>
      <point x="2" y="530" type="qcurve" smooth="yes"/>
      <point x="0" y="517"/>
      <point x="-12" y="520" type="qcurve" smooth="yes"/>
      <point x="-44" y="527" type="line" smooth="yes"/>
      <point x="-54" y="530"/>
      <point x="-53" y="542" type="qcurve" smooth="yes"/>
      <point x="-40" y="608"/>
      <point x="33" y="679"/>
      <point x="81" y="679" type="qcurve" smooth="yes"/>
      <point x="134" y="679"/>
      <point x="201" y="603"/>
      <point x="205" y="539" type="qcurve" smooth="yes"/>
      <point x="206" y="514" type="line"/>
      <point x="204" y="455"/>
      <point x="160" y="335"/>
      <point x="94" y="236" type="qcurve" smooth="yes"/>
      <point x="38" y="156" type="line"/>
      <point x="200" y="156" type="line" smooth="yes"/>
      <point x="212" y="156"/>
      <point x="212" y="144" type="qcurve" smooth="yes"/>
      <point x="212" y="107" type="line" smooth="yes"/>
      <point x="212" y="95"/>
      <point x="200" y="95" type="qcurve" smooth="yes"/>
      <point x="-35" y="95" type="line" smooth="yes"/>
      <point x="-47" y="95"/>
    </contour>
    <contour>
      <point x="452" y="107" type="qcurve" smooth="yes"/>
      <point x="452" y="222" type="line"/>
      <point x="260" y="222" type="line" smooth="yes"/>
      <point x="248" y="222"/>
      <point x="248" y="234" type="qcurve" smooth="yes"/>
      <point x="248" y="247" type="line" smooth="yes"/>
      <point x="248" y="255"/>
      <point x="251" y="262" type="qcurve" smooth="yes"/>
      <point x="448" y="665" type="line" smooth="yes"/>
      <point x="453" y="674"/>
      <point x="462" y="674" type="qcurve" smooth="yes"/>
      <point x="499" y="674" type="line" smooth="yes"/>
      <point x="511" y="674"/>
      <point x="511" y="662" type="qcurve" smooth="yes"/>
      <point x="511" y="279" type="line"/>
      <point x="552" y="279" type="line" smooth="yes"/>
      <point x="564" y="279"/>
      <point x="564" y="267" type="qcurve" smooth="yes"/>
      <point x="564" y="234" type="line" smooth="yes"/>
      <point x="564" y="222"/>
      <point x="552" y="222" type="qcurve" smooth="yes"/>
      <point x="511" y="222" type="line"/>
      <point x="511" y="107" type="line" smooth="yes"/>
      <point x="511" y="95"/>
      <point x="499" y="95" type="qcurve" smooth="yes"/>
      <point x="464" y="95" type="line" smooth="yes"/>
      <point x="452" y="95"/>
    </contour>
    <contour>
      <point x="453" y="279" type="line"/>
      <point x="457" y="569" type="line"/>
      <point x="322" y="279" type="line"/>
    </contour>
  </outline>
</glyph>
<glyph name="uni3255" format="2">
  <advance width="500"/>
  <unicode hex="3255"/>
  <outline>
    <contour>
      <point x="-99" y="29"/>
      <point x="-222" y="245"/>
      <point x="-222" y="380" type="qcurve" smooth="yes"/>
      <point x="-222" y="515"/>
      <point x="-99" y="730"/>
      <point x="117" y="852"/>
      <point x="251" y="852" type="qcurve" smooth="yes"/>
      <point x="386" y="852"/>
      <point x="601" y="731"/>
      <point x="722" y="515"/>
      <point x="722" y="380" type="qcurve" smooth="yes"/>
      <point x="722" y="245"/>
      <point x="601" y="29"/>
      <point x="386" y="-93"/>
      <point x="251" y="-93" type="qcurve" smooth="yes"/>
      <point x="117" y="-93"/>
    </contour>
    <contour>
      <point x="571" y="60"/>
      <point x="681" y="257"/>
      <point x="681" y="380" type="qcurve" smooth="yes"/>
      <point x="681" y="504"/>
      <point x="571" y="700"/>
      <point x="375" y="811"/>
      <point x="251" y="811" type="qcurve" smooth="yes"/>
      <point x="128" y="811"/>
      <point x="-69" y="700"/>
      <point x="-181" y="503"/>
      <point x="-181" y="380" type="qcurve" smooth="yes"/>
      <point x="-181" y="257"/>
      <point x="-69" y="60"/>
      <point x="128" y="-52"/>
      <point x="251" y="-52" type="qcurve" smooth="yes"/>
      <point x="375" y="-52"/>
    </contour>
    <contour>
      <point x="-47" y="107" type="qcurve" smooth="yes"/>
      <point x="-47" y="121" type="line" smooth="yes"/>
      <point x="-47" y="129"/>
      <point x="-43" y="136" type="qcurve" smooth="yes"/>
      <point x="51" y="280" type="line" smooth="yes"/>
      <point x="109" y="368"/>
      <point x="145" y="471"/>
      <point x="145" y="521" type="qcurve" smooth="yes"/>
      <point x="145" y="565"/>
      <point x="110" y="615"/>
      <point x="79" y="615" type="qcurve" smooth="yes"/>
      <point x="51" y="615"/>
      <point x="11" y="573"/>
      <point x="2" y="530" type="qcurve" smooth="yes"/>
      <point x="0" y="517"/>
      <point x="-12" y="520" type="qcurve" smooth="yes"/>
      <point x="-44" y="527" type="line" smooth="yes"/>
      <point x="-54" y="530"/>
      <point x="-53" y="542" type="qcurve" smooth="yes"/>
      <point x="-40" y="608"/>
      <point x="33" y="679"/>
      <point x="81" y="679" type="qcurve" smooth="yes"/>
      <point x="137" y="679"/>
      <point x="206" y="594"/>
      <point x="206" y="524" type="qcurve" smooth="yes"/>
      <point x="206" y="482"/>
      <point x="191" y="409"/>
      <point x="143" y="308"/>
      <point x="94" y="236" type="qcurve" smooth="yes"/>
      <point x="38" y="156" type="line"/>
      <point x="200" y="156" type="line" smooth="yes"/>
      <point x="212" y="156"/>
      <point x="212" y="144" type="qcurve" smooth="yes"/>
      <point x="212" y="107" type="line" smooth="yes"/>
      <point x="212" y="95"/>
      <point x="200" y="95" type="qcurve" smooth="yes"/>
      <point x="-35" y="95" type="line" smooth="yes"/>
      <point x="-47" y="95"/>
    </contour>
    <contour>
      <point x="279" y="167"/>
      <point x="270" y="241" type="qcurve"/>
      <point x="270" y="243" type="line" smooth="yes"/>
      <point x="270" y="252"/>
      <point x="280" y="255" type="qcurve" smooth="yes"/>
      <point x="312" y="263" type="line"/>
      <point x="316" y="264" type="line" smooth="yes"/>
      <point x="324" y="264"/>
      <point x="326" y="253" type="qcurve" smooth="yes"/>
      <point x="343" y="144"/>
      <point x="415" y="144" type="qcurve" smooth="yes"/>
      <point x="454" y="144"/>
      <point x="500" y="216"/>
      <point x="500" y="278" type="qcurve" smooth="yes"/>
      <point x="500" y="342"/>
      <point x="456" y="412"/>
      <point x="416" y="412" type="qcurve" smooth="yes"/>
      <point x="362" y="412"/>
      <point x="329" y="356" type="qcurve" smooth="yes"/>
      <point x="323" y="346"/>
      <point x="313" y="350" type="qcurve" smooth="yes"/>
      <point x="290" y="358" type="line" smooth="yes"/>
      <point x="280" y="363"/>
      <point x="281" y="373" type="qcurve" smooth="yes"/>
      <point x="309" y="662" type="line" smooth="yes"/>
      <point x="311" y="673"/>
      <point x="321" y="673" type="qcurve" smooth="yes"/>
      <point x="526" y="673" type="line" smooth="yes"/>
      <point x="538" y="673"/>
      <point x="538" y="661" type="qcurve" smooth="yes"/>
      <point x="538" y="625" type="line" smooth="yes"/>
      <point x="538" y="613"/>
      <point x="526" y="613" type="qcurve" smooth="yes"/>
      <point x="358" y="613" type="line"/>
      <point x="339" y="431" type="line"/>
      <point x="373" y="468"/>
      <point x="428" y="468" type="qcurve" smooth="yes"/>
      <point x="489" y="468"/>
      <point x="560" y="366"/>
      <point x="560" y="278" type="qcurve" smooth="yes"/>
      <point x="560" y="191"/>
      <point x="483" y="85"/>
      <point x="417" y="85" type="qcurve" smooth="yes"/>
      <point x="360" y="85"/>
    </contour>
  </outline>
</glyph>
<glyph name="uni3256" format="2">
  <advance width="500"/>
  <unicode hex="3256"/>
  <outline>
    <contour>
      <point x="-99" y="29"/>
      <point x="-222" y="245"/>
      <point x="-222" y="380" type="qcurve" smooth="yes"/>
      <point x="-222" y="515"/>
      <point x="-99" y="730"/>
      <point x="117" y="852"/>
      <point x="251" y="852" type="qcurve" smooth="yes"/>
      <point x="386" y="852"/>
      <point x="601" y="731"/>
      <point x="722" y="515"/>
      <point x="722" y="380" type="qcurve" smooth="yes"/>
      <point x="722" y="245"/>
      <point x="601" y="29"/>
      <point x="386" y="-93"/>
      <point x="251" y="-93" type="qcurve" smooth="yes"/>
      <point x="117" y="-93"/>
    </contour>
    <contour>
      <point x="571" y="60"/>
      <point x="681" y="257"/>
      <point x="681" y="380" type="qcurve" smooth="yes"/>
      <point x="681" y="504"/>
      <point x="571" y="700"/>
      <point x="375" y="811"/>
      <point x="251" y="811" type="qcurve" smooth="yes"/>
      <point x="128" y="811"/>
      <point x="-69" y="700"/>
      <point x="-181" y="503"/>
      <point x="-181" y="380" type="qcurve" smooth="yes"/>
      <point x="-181" y="257"/>
      <point x="-69" y="60"/>
      <point x="128" y="-52"/>
      <point x="251" y="-52" type="qcurve" smooth="yes"/>
      <point x="375" y="-52"/>
    </contour>
    <contour>
      <point x="-47" y="107" type="qcurve" smooth="yes"/>
      <point x="-47" y="121" type="line" smooth="yes"/>
      <point x="-47" y="129"/>
      <point x="-43" y="136" type="qcurve" smooth="yes"/>
      <point x="51" y="280" type="line" smooth="yes"/>
      <point x="109" y="368"/>
      <point x="145" y="471"/>
      <point x="145" y="521" type="qcurve" smooth="yes"/>
      <point x="145" y="565"/>
      <point x="110" y="615"/>
      <point x="79" y="615" type="qcurve" smooth="yes"/>
      <point x="51" y="615"/>
      <point x="11" y="573"/>
      <point x="2" y="530" type="qcurve" smooth="yes"/>
      <point x="0" y="517"/>
      <point x="-12" y="520" type="qcurve" smooth="yes"/>
      <point x="-44" y="527" type="line" smooth="yes"/>
      <point x="-54" y="530"/>
      <point x="-53" y="542" type="qcurve" smooth="yes"/>
      <point x="-40" y="608"/>
      <point x="33" y="679"/>
      <point x="81" y="679" type="qcurve" smooth="yes"/>
      <point x="137" y="679"/>
      <point x="206" y="594"/>
      <point x="206" y="524" type="qcurve" smooth="yes"/>
      <point x="206" y="482"/>
      <point x="191" y="409"/>
      <point x="143" y="308"/>
      <point x="94" y="236" type="qcurve" smooth="yes"/>
      <point x="38" y="156" type="line"/>
      <point x="200" y="156" type="line" smooth="yes"/>
      <point x="212" y="156"/>
      <point x="212" y="144" type="qcurve" smooth="yes"/>
      <point x="212" y="107" type="line" smooth="yes"/>
      <point x="212" y="95"/>
      <point x="200" y="95" type="qcurve" smooth="yes"/>
      <point x="-35" y="95" type="line" smooth="yes"/>
      <point x="-47" y="95"/>
    </contour>
    <contour>
      <point x="271" y="189"/>
      <point x="271" y="280" type="qcurve" smooth="yes"/>
      <point x="271" y="335"/>
      <point x="300" y="437"/>
      <point x="338" y="511" type="qcurve" smooth="yes"/>
      <point x="419" y="664" type="line" smooth="yes"/>
      <point x="424" y="673"/>
      <point x="433" y="673" type="qcurve" smooth="yes"/>
      <point x="473" y="673" type="line" smooth="yes"/>
      <point x="480" y="673"/>
      <point x="485" y="665"/>
      <point x="481" y="659" type="qcurve" smooth="yes"/>
      <point x="372" y="454" type="line"/>
      <point x="396" y="470"/>
      <point x="425" y="470" type="qcurve" smooth="yes"/>
      <point x="487" y="470"/>
      <point x="558" y="367"/>
      <point x="558" y="279" type="qcurve" smooth="yes"/>
      <point x="558" y="189"/>
      <point x="481" y="85"/>
      <point x="414" y="85" type="qcurve" smooth="yes"/>
      <point x="347" y="85"/>
    </contour>
    <contour>
      <point x="498" y="217"/>
      <point x="498" y="279" type="qcurve" smooth="yes"/>
      <point x="498" y="341"/>
      <point x="455" y="412"/>
      <point x="416" y="412" type="qcurve" smooth="yes"/>
      <point x="374" y="412"/>
      <point x="331" y="341"/>
      <point x="331" y="275" type="qcurve" smooth="yes"/>
      <point x="331" y="215"/>
      <point x="375" y="148"/>
      <point x="414" y="148" type="qcurve" smooth="yes"/>
      <point x="454" y="148"/>
    </contour>
  </outline>
</glyph>
<glyph name="uni3257" format="2">
  <advance width="500"/>
  <unicode hex="3257"/>
  <outline>
    <contour>
      <point x="-99" y="29"/>
      <point x="-222" y="245"/>
      <point x="-222" y="380" type="qcurve" smooth="yes"/>
      <point x="-222" y="515"/>
      <point x="-99" y="730"/>
      <point x="117" y="852"/>
      <point x="251" y="852" type="qcurve" smooth="yes"/>
      <point x="386" y="852"/>
      <point x="601" y="731"/>
      <point x="722" y="515"/>
      <point x="722" y="380" type="qcurve" smooth="yes"/>
      <point x="722" y="245"/>
      <point x="601" y="29"/>
      <point x="386" y="-93"/>
      <point x="251" y="-93" type="qcurve" smooth="yes"/>
      <point x="117" y="-93"/>
    </contour>
    <contour>
      <point x="571" y="60"/>
      <point x="681" y="257"/>
      <point x="681" y="380" type="qcurve" smooth="yes"/>
      <point x="681" y="504"/>
      <point x="571" y="700"/>
      <point x="375" y="811"/>
      <point x="251" y="811" type="qcurve" smooth="yes"/>
      <point x="128" y="811"/>
      <point x="-69" y="700"/>
      <point x="-181" y="503"/>
      <point x="-181" y="380" type="qcurve" smooth="yes"/>
      <point x="-181" y="257"/>
      <point x="-69" y="60"/>
      <point x="128" y="-52"/>
      <point x="251" y="-52" type="qcurve" smooth="yes"/>
      <point x="375" y="-52"/>
    </contour>
    <contour>
      <point x="-40" y="98" type="qcurve" smooth="yes"/>
      <point x="-40" y="111" type="line" smooth="yes"/>
      <point x="-40" y="119"/>
      <point x="-36" y="126" type="qcurve" smooth="yes"/>
      <point x="58" y="270" type="line" smooth="yes"/>
      <point x="116" y="358"/>
      <point x="152" y="462"/>
      <point x="152" y="512" type="qcurve" smooth="yes"/>
      <point x="152" y="556"/>
      <point x="117" y="606"/>
      <point x="86" y="606" type="qcurve" smooth="yes"/>
      <point x="58" y="606"/>
      <point x="18" y="564"/>
      <point x="9" y="521" type="qcurve" smooth="yes"/>
      <point x="7" y="508"/>
      <point x="-5" y="511" type="qcurve" smooth="yes"/>
      <point x="-37" y="518" type="line" smooth="yes"/>
      <point x="-47" y="521"/>
      <point x="-46" y="533" type="qcurve" smooth="yes"/>
      <point x="-33" y="599"/>
      <point x="40" y="670"/>
      <point x="88" y="670" type="qcurve" smooth="yes"/>
      <point x="144" y="670"/>
      <point x="213" y="585"/>
      <point x="213" y="515" type="qcurve" smooth="yes"/>
      <point x="213" y="473"/>
      <point x="198" y="400"/>
      <point x="150" y="299"/>
      <point x="101" y="227" type="qcurve" smooth="yes"/>
      <point x="45" y="146" type="line"/>
      <point x="207" y="146" type="line" smooth="yes"/>
      <point x="219" y="146"/>
      <point x="219" y="134" type="qcurve" smooth="yes"/>
      <point x="219" y="98" type="line" smooth="yes"/>
      <point x="219" y="86"/>
      <point x="207" y="86" type="qcurve" smooth="yes"/>
      <point x="-28" y="86" type="line" smooth="yes"/>
      <point x="-40" y="86"/>
    </contour>
    <contour>
      <point x="334" y="100" type="qcurve" smooth="yes"/>
      <point x="483" y="602" type="line"/>
      <point x="294" y="602" type="line" smooth="yes"/>
      <point x="282" y="602"/>
      <point x="282" y="614" type="qcurve" smooth="yes"/>
      <point x="282" y="652" type="line" smooth="yes"/>
      <point x="282" y="664"/>
      <point x="294" y="664" type="qcurve" smooth="yes"/>
      <point x="541" y="664" type="line" smooth="yes"/>
      <point x="553" y="664"/>
      <point x="553" y="652" type="qcurve" smooth="yes"/>
      <point x="553" y="637" type="line" smooth="yes"/>
      <point x="553" y="628"/>
      <point x="551" y="623" type="qcurve" smooth="yes"/>
      <point x="401" y="96" type="line" smooth="yes"/>
      <point x="398" y="86"/>
      <point x="388" y="86" type="qcurve" smooth="yes"/>
      <point x="344" y="86" type="line" smooth="yes"/>
      <point x="331" y="86"/>
    </contour>
  </outline>
</glyph>
<glyph name="uni3258" format="2">
  <advance width="500"/>
  <unicode hex="3258"/>
  <outline>
    <contour>
      <point x="-99" y="29"/>
      <point x="-222" y="245"/>
      <point x="-222" y="380" type="qcurve" smooth="yes"/>
      <point x="-222" y="515"/>
      <point x="-99" y="730"/>
      <point x="117" y="852"/>
      <point x="251" y="852" type="qcurve" smooth="yes"/>
      <point x="386" y="852"/>
      <point x="601" y="731"/>
      <point x="722" y="515"/>
      <point x="722" y="380" type="qcurve" smooth="yes"/>
      <point x="722" y="245"/>
      <point x="601" y="29"/>
      <point x="386" y="-93"/>
      <point x="251" y="-93" type="qcurve" smooth="yes"/>
      <point x="117" y="-93"/>
    </contour>
    <contour>
      <point x="571" y="60"/>
      <point x="681" y="257"/>
      <point x="681" y="380" type="qcurve" smooth="yes"/>
      <point x="681" y="504"/>
      <point x="571" y="700"/>
      <point x="375" y="811"/>
      <point x="251" y="811" type="qcurve" smooth="yes"/>
      <point x="128" y="811"/>
      <point x="-69" y="700"/>
      <point x="-181" y="503"/>
      <point x="-181" y="380" type="qcurve" smooth="yes"/>
      <point x="-181" y="257"/>
      <point x="-69" y="60"/>
      <point x="128" y="-52"/>
      <point x="251" y="-52" type="qcurve" smooth="yes"/>
      <point x="375" y="-52"/>
    </contour>
    <contour>
      <point x="-47" y="107" type="qcurve" smooth="yes"/>
      <point x="-47" y="121" type="line" smooth="yes"/>
      <point x="-47" y="129"/>
      <point x="-43" y="136" type="qcurve" smooth="yes"/>
      <point x="51" y="280" type="line" smooth="yes"/>
      <point x="109" y="368"/>
      <point x="145" y="471"/>
      <point x="145" y="521" type="qcurve" smooth="yes"/>
      <point x="145" y="565"/>
      <point x="110" y="615"/>
      <point x="79" y="615" type="qcurve" smooth="yes"/>
      <point x="51" y="615"/>
      <point x="11" y="573"/>
      <point x="2" y="530" type="qcurve" smooth="yes"/>
      <point x="0" y="517"/>
      <point x="-12" y="520" type="qcurve" smooth="yes"/>
      <point x="-44" y="527" type="line" smooth="yes"/>
      <point x="-54" y="530"/>
      <point x="-53" y="542" type="qcurve" smooth="yes"/>
      <point x="-40" y="608"/>
      <point x="33" y="679"/>
      <point x="81" y="679" type="qcurve" smooth="yes"/>
      <point x="134" y="679"/>
      <point x="201" y="603"/>
      <point x="205" y="539" type="qcurve" smooth="yes"/>
      <point x="206" y="514" type="line"/>
      <point x="204" y="455"/>
      <point x="160" y="335"/>
      <point x="94" y="236" type="qcurve" smooth="yes"/>
      <point x="38" y="156" type="line"/>
      <point x="200" y="156" type="line" smooth="yes"/>
      <point x="212" y="156"/>
      <point x="212" y="144" type="qcurve" smooth="yes"/>
      <point x="212" y="107" type="line" smooth="yes"/>
      <point x="212" y="95"/>
      <point x="200" y="95" type="qcurve" smooth="yes"/>
      <point x="-35" y="95" type="line" smooth="yes"/>
      <point x="-47" y="95"/>
    </contour>
    <contour>
      <point x="270" y="176"/>
      <point x="270" y="252" type="qcurve" smooth="yes"/>
      <point x="270" y="302"/>
      <point x="312" y="380"/>
      <point x="348" y="397" type="qcurve"/>
      <point x="317" y="413"/>
      <point x="282" y="483"/>
      <point x="282" y="527" type="qcurve" smooth="yes"/>
      <point x="282" y="594"/>
      <point x="358" y="679"/>
      <point x="417" y="679" type="qcurve" smooth="yes"/>
      <point x="476" y="679"/>
      <point x="553" y="594"/>
      <point x="553" y="527" type="qcurve" smooth="yes"/>
      <point x="553" y="483"/>
      <point x="517" y="413"/>
      <point x="486" y="397" type="qcurve"/>
      <point x="522" y="380"/>
      <point x="565" y="301"/>
      <point x="565" y="252" type="qcurve" smooth="yes"/>
      <point x="565" y="176"/>
      <point x="484" y="82"/>
      <point x="417" y="82" type="qcurve" smooth="yes"/>
      <point x="351" y="82"/>
    </contour>
    <contour>
      <point x="496" y="479"/>
      <point x="496" y="525" type="qcurve" smooth="yes"/>
      <point x="496" y="569"/>
      <point x="453" y="622"/>
      <point x="417" y="622" type="qcurve" smooth="yes"/>
      <point x="382" y="622"/>
      <point x="339" y="569"/>
      <point x="339" y="525" type="qcurve" smooth="yes"/>
      <point x="339" y="479"/>
      <point x="382" y="425"/>
      <point x="417" y="425" type="qcurve" smooth="yes"/>
      <point x="453" y="425"/>
    </contour>
    <contour>
      <point x="507" y="200"/>
      <point x="507" y="252" type="qcurve" smooth="yes"/>
      <point x="507" y="302"/>
      <point x="457" y="363"/>
      <point x="417" y="363" type="qcurve" smooth="yes"/>
      <point x="378" y="363"/>
      <point x="328" y="303"/>
      <point x="328" y="255" type="qcurve" smooth="yes"/>
      <point x="328" y="202"/>
      <point x="376" y="138"/>
      <point x="417" y="138" type="qcurve" smooth="yes"/>
      <point x="458" y="138"/>
    </contour>
  </outline>
</glyph>
<glyph name="uni3259" format="2">
  <advance width="500"/>
  <unicode hex="3259"/>
  <outline>
    <contour>
      <point x="-99" y="29"/>
      <point x="-222" y="245"/>
      <point x="-222" y="380" type="qcurve" smooth="yes"/>
      <point x="-222" y="515"/>
      <point x="-99" y="730"/>
      <point x="117" y="852"/>
      <point x="251" y="852" type="qcurve" smooth="yes"/>
      <point x="386" y="852"/>
      <point x="601" y="731"/>
      <point x="722" y="515"/>
      <point x="722" y="380" type="qcurve" smooth="yes"/>
      <point x="722" y="245"/>
      <point x="601" y="29"/>
      <point x="386" y="-93"/>
      <point x="251" y="-93" type="qcurve" smooth="yes"/>
      <point x="117" y="-93"/>
    </contour>
    <contour>
      <point x="571" y="60"/>
      <point x="681" y="257"/>
      <point x="681" y="380" type="qcurve" smooth="yes"/>
      <point x="681" y="504"/>
      <point x="571" y="700"/>
      <point x="375" y="811"/>
      <point x="251" y="811" type="qcurve" smooth="yes"/>
      <point x="128" y="811"/>
      <point x="-69" y="700"/>
      <point x="-181" y="503"/>
      <point x="-181" y="380" type="qcurve" smooth="yes"/>
      <point x="-181" y="257"/>
      <point x="-69" y="60"/>
      <point x="128" y="-52"/>
      <point x="251" y="-52" type="qcurve" smooth="yes"/>
      <point x="375" y="-52"/>
    </contour>
    <contour>
      <point x="-47" y="106" type="qcurve" smooth="yes"/>
      <point x="-47" y="119" type="line" smooth="yes"/>
      <point x="-47" y="127"/>
      <point x="-43" y="134" type="qcurve" smooth="yes"/>
      <point x="51" y="278" type="line" smooth="yes"/>
      <point x="109" y="366"/>
      <point x="145" y="470"/>
      <point x="145" y="520" type="qcurve" smooth="yes"/>
      <point x="145" y="564"/>
      <point x="110" y="614"/>
      <point x="79" y="614" type="qcurve" smooth="yes"/>
      <point x="51" y="614"/>
      <point x="11" y="572"/>
      <point x="2" y="529" type="qcurve" smooth="yes"/>
      <point x="0" y="516"/>
      <point x="-12" y="519" type="qcurve" smooth="yes"/>
      <point x="-44" y="526" type="line" smooth="yes"/>
      <point x="-54" y="529"/>
      <point x="-53" y="541" type="qcurve" smooth="yes"/>
      <point x="-40" y="607"/>
      <point x="33" y="678"/>
      <point x="81" y="678" type="qcurve" smooth="yes"/>
      <point x="134" y="678"/>
      <point x="201" y="602"/>
      <point x="205" y="538" type="qcurve"/>
      <point x="205" y="532" type="line"/>
      <point x="206" y="519" type="line"/>
      <point x="206" y="446"/>
      <point x="149" y="316"/>
      <point x="94" y="235" type="qcurve" smooth="yes"/>
      <point x="38" y="154" type="line"/>
      <point x="200" y="154" type="line" smooth="yes"/>
      <point x="212" y="154"/>
      <point x="212" y="142" type="qcurve" smooth="yes"/>
      <point x="212" y="106" type="line" smooth="yes"/>
      <point x="212" y="94"/>
      <point x="200" y="94" type="qcurve" smooth="yes"/>
      <point x="-35" y="94" type="line" smooth="yes"/>
      <point x="-47" y="94"/>
    </contour>
    <contour>
      <point x="347" y="102"/>
      <point x="351" y="108" type="qcurve" smooth="yes"/>
      <point x="458" y="309" type="line"/>
      <point x="438" y="295"/>
      <point x="413" y="295" type="qcurve" smooth="yes"/>
      <point x="402" y="294" type="line"/>
      <point x="342" y="294"/>
      <point x="270" y="398"/>
      <point x="270" y="484" type="qcurve" smooth="yes"/>
      <point x="270" y="572"/>
      <point x="350" y="677"/>
      <point x="415" y="677" type="qcurve" smooth="yes"/>
      <point x="481" y="677"/>
      <point x="558" y="569"/>
      <point x="558" y="481" type="qcurve" smooth="yes"/>
      <point x="558" y="430"/>
      <point x="526" y="323"/>
      <point x="489" y="250" type="qcurve" smooth="yes"/>
      <point x="413" y="103" type="line" smooth="yes"/>
      <point x="407" y="94"/>
      <point x="398" y="94" type="qcurve" smooth="yes"/>
      <point x="359" y="94" type="line" smooth="yes"/>
      <point x="352" y="94"/>
    </contour>
    <contour>
      <point x="499" y="420"/>
      <point x="499" y="482" type="qcurve" smooth="yes"/>
      <point x="499" y="544"/>
      <point x="455" y="612"/>
      <point x="415" y="612" type="qcurve" smooth="yes"/>
      <point x="375" y="612"/>
      <point x="330" y="543"/>
      <point x="330" y="482" type="qcurve" smooth="yes"/>
      <point x="330" y="420"/>
      <point x="375" y="352"/>
      <point x="415" y="352" type="qcurve" smooth="yes"/>
      <point x="455" y="352"/>
    </contour>
  </outline>
</glyph>
<glyph name="uni325A" format="2">
  <advance width="500"/>
  <unicode hex="325A"/>
  <outline>
    <contour>
      <point x="-99" y="29"/>
      <point x="-222" y="245"/>
      <point x="-222" y="380" type="qcurve" smooth="yes"/>
      <point x="-222" y="515"/>
      <point x="-99" y="730"/>
      <point x="117" y="852"/>
      <point x="251" y="852" type="qcurve" smooth="yes"/>
      <point x="387" y="852"/>
      <point x="601" y="731"/>
      <point x="722" y="516"/>
      <point x="722" y="380" type="qcurve" smooth="yes"/>
      <point x="722" y="245"/>
      <point x="601" y="29"/>
      <point x="386" y="-93"/>
      <point x="251" y="-93" type="qcurve" smooth="yes"/>
      <point x="117" y="-93"/>
    </contour>
    <contour>
      <point x="571" y="60"/>
      <point x="681" y="257"/>
      <point x="681" y="380" type="qcurve" smooth="yes"/>
      <point x="681" y="504"/>
      <point x="571" y="700"/>
      <point x="375" y="811"/>
      <point x="251" y="811" type="qcurve" smooth="yes"/>
      <point x="128" y="811"/>
      <point x="-69" y="700"/>
      <point x="-181" y="503"/>
      <point x="-181" y="380" type="qcurve" smooth="yes"/>
      <point x="-181" y="257"/>
      <point x="-69" y="60"/>
      <point x="128" y="-52"/>
      <point x="251" y="-52" type="qcurve" smooth="yes"/>
      <point x="375" y="-52"/>
    </contour>
    <contour>
      <point x="-53" y="163"/>
      <point x="-61" y="237" type="qcurve"/>
      <point x="-61" y="239" type="line" smooth="yes"/>
      <point x="-61" y="248"/>
      <point x="-51" y="250" type="qcurve" smooth="yes"/>
      <point x="-20" y="257" type="line"/>
      <point x="-16" y="258" type="line" smooth="yes"/>
      <point x="-9" y="258"/>
      <point x="-6" y="247" type="qcurve" smooth="yes"/>
      <point x="1" y="195"/>
      <point x="48" y="144"/>
      <point x="82" y="144" type="qcurve" smooth="yes"/>
      <point x="121" y="144"/>
      <point x="163" y="207"/>
      <point x="163" y="257" type="qcurve" smooth="yes"/>
      <point x="163" y="306"/>
      <point x="121" y="365"/>
      <point x="83" y="365" type="qcurve" smooth="yes"/>
      <point x="60" y="365" type="line" smooth="yes"/>
      <point x="48" y="365"/>
      <point x="48" y="377" type="qcurve" smooth="yes"/>
      <point x="48" y="412" type="line" smooth="yes"/>
      <point x="48" y="424"/>
      <point x="60" y="424" type="qcurve" smooth="yes"/>
      <point x="84" y="424" type="line" smooth="yes"/>
      <point x="116" y="424"/>
      <point x="157" y="481"/>
      <point x="157" y="523" type="qcurve" smooth="yes"/>
      <point x="157" y="566"/>
      <point x="114" y="619"/>
      <point x="80" y="619" type="qcurve" smooth="yes"/>
      <point x="49" y="619"/>
      <point x="6" y="574"/>
      <point x="-1" y="532" type="qcurve" smooth="yes"/>
      <point x="-3" y="519"/>
      <point x="-15" y="522" type="qcurve" smooth="yes"/>
      <point x="-46" y="530" type="line" smooth="yes"/>
      <point x="-58" y="533"/>
      <point x="-55" y="545" type="qcurve" smooth="yes"/>
      <point x="-44" y="608"/>
      <point x="31" y="679"/>
      <point x="82" y="679" type="qcurve" smooth="yes"/>
      <point x="141" y="679"/>
      <point x="216" y="596"/>
      <point x="216" y="527" type="qcurve" smooth="yes"/>
      <point x="216" y="484"/>
      <point x="180" y="414"/>
      <point x="149" y="397" type="qcurve"/>
      <point x="184" y="380"/>
      <point x="224" y="305"/>
      <point x="224" y="254" type="qcurve" smooth="yes"/>
      <point x="224" y="176"/>
      <point x="150" y="84"/>
      <point x="84" y="84" type="qcurve" smooth="yes"/>
      <point x="29" y="84"/>
    </contour>
    <contour>
      <point x="273" y="238"/>
      <point x="273" y="381" type="qcurve" smooth="yes"/>
      <point x="273" y="524"/>
      <point x="349" y="679"/>
      <point x="421" y="679" type="qcurve" smooth="yes"/>
      <point x="492" y="679"/>
      <point x="567" y="524"/>
      <point x="567" y="381" type="qcurve" smooth="yes"/>
      <point x="567" y="238"/>
      <point x="492" y="83"/>
      <point x="421" y="83" type="qcurve" smooth="yes"/>
      <point x="349" y="83"/>
    </contour>
    <contour>
      <point x="509" y="265"/>
      <point x="509" y="381" type="qcurve" smooth="yes"/>
      <point x="509" y="497"/>
      <point x="464" y="615"/>
      <point x="421" y="615" type="qcurve" smooth="yes"/>
      <point x="378" y="615"/>
      <point x="331" y="497"/>
      <point x="331" y="381" type="qcurve" smooth="yes"/>
      <point x="331" y="265"/>
      <point x="378" y="147"/>
      <point x="421" y="147" type="qcurve" smooth="yes"/>
      <point x="464" y="147"/>
    </contour>
  </outline>
</glyph>
<glyph name="uni325C" format="2">
  <advance width="500"/>
  <unicode hex="325C"/>
  <outline>
    <contour>
      <point x="290" y="109" type="qcurve" smooth="yes"/>
      <point x="290" y="122" type="line" smooth="yes"/>
      <point x="290" y="130"/>
      <point x="294" y="137" type="qcurve" smooth="yes"/>
      <point x="389" y="281" type="line" smooth="yes"/>
      <point x="447" y="369"/>
      <point x="483" y="474"/>
      <point x="483" y="523" type="qcurve" smooth="yes"/>
      <point x="483" y="566"/>
      <point x="447" y="616"/>
      <point x="416" y="616" type="qcurve" smooth="yes"/>
      <point x="388" y="616"/>
      <point x="348" y="574"/>
      <point x="340" y="531" type="qcurve" smooth="yes"/>
      <point x="338" y="518"/>
      <point x="326" y="521" type="qcurve" smooth="yes"/>
      <point x="293" y="528" type="line" smooth="yes"/>
      <point x="283" y="531"/>
      <point x="284" y="543" type="qcurve" smooth="yes"/>
      <point x="297" y="609"/>
      <point x="370" y="680"/>
      <point x="418" y="680" type="qcurve" smooth="yes"/>
      <point x="474" y="680"/>
      <point x="543" y="595"/>
      <point x="543" y="525" type="qcurve" smooth="yes"/>
      <point x="543" y="483"/>
      <point x="529" y="410"/>
      <point x="481" y="309"/>
      <point x="432" y="237" type="qcurve" smooth="yes"/>
      <point x="376" y="157" type="line"/>
      <point x="538" y="157" type="line" smooth="yes"/>
      <point x="550" y="157"/>
      <point x="550" y="145" type="qcurve" smooth="yes"/>
      <point x="550" y="109" type="line" smooth="yes"/>
      <point x="550" y="97"/>
      <point x="538" y="97" type="qcurve" smooth="yes"/>
      <point x="302" y="97" type="line" smooth="yes"/>
      <point x="290" y="97"/>
    </contour>
    <contour>
      <point x="-99" y="29"/>
      <point x="-222" y="245"/>
      <point x="-222" y="380" type="qcurve" smooth="yes"/>
      <point x="-222" y="515"/>
      <point x="-99" y="730"/>
      <point x="117" y="852"/>
      <point x="251" y="852" type="qcurve" smooth="yes"/>
      <point x="387" y="852"/>
      <point x="601" y="731"/>
      <point x="722" y="516"/>
      <point x="722" y="380" type="qcurve" smooth="yes"/>
      <point x="722" y="245"/>
      <point x="601" y="29"/>
      <point x="386" y="-93"/>
      <point x="251" y="-93" type="qcurve" smooth="yes"/>
      <point x="117" y="-93"/>
    </contour>
    <contour>
      <point x="571" y="60"/>
      <point x="681" y="257"/>
      <point x="681" y="380" type="qcurve" smooth="yes"/>
      <point x="681" y="504"/>
      <point x="571" y="700"/>
      <point x="375" y="811"/>
      <point x="251" y="811" type="qcurve" smooth="yes"/>
      <point x="128" y="811"/>
      <point x="-69" y="700"/>
      <point x="-181" y="503"/>
      <point x="-181" y="380" type="qcurve" smooth="yes"/>
      <point x="-181" y="257"/>
      <point x="-69" y="60"/>
      <point x="128" y="-52"/>
      <point x="251" y="-52" type="qcurve" smooth="yes"/>
      <point x="375" y="-52"/>
    </contour>
    <contour>
      <point x="-30" y="163"/>
      <point x="-38" y="237" type="qcurve"/>
      <point x="-38" y="239" type="line" smooth="yes"/>
      <point x="-38" y="248"/>
      <point x="-28" y="250" type="qcurve" smooth="yes"/>
      <point x="3" y="257" type="line"/>
      <point x="7" y="258" type="line" smooth="yes"/>
      <point x="14" y="258"/>
      <point x="17" y="247" type="qcurve" smooth="yes"/>
      <point x="24" y="195"/>
      <point x="71" y="144"/>
      <point x="105" y="144" type="qcurve" smooth="yes"/>
      <point x="144" y="144"/>
      <point x="186" y="207"/>
      <point x="186" y="257" type="qcurve" smooth="yes"/>
      <point x="186" y="306"/>
      <point x="144" y="365"/>
      <point x="106" y="365" type="qcurve" smooth="yes"/>
      <point x="83" y="365" type="line" smooth="yes"/>
      <point x="71" y="365"/>
      <point x="71" y="377" type="qcurve" smooth="yes"/>
      <point x="71" y="412" type="line" smooth="yes"/>
      <point x="71" y="424"/>
      <point x="83" y="424" type="qcurve" smooth="yes"/>
      <point x="107" y="424" type="line" smooth="yes"/>
      <point x="139" y="424"/>
      <point x="180" y="481"/>
      <point x="180" y="523" type="qcurve" smooth="yes"/>
      <point x="180" y="566"/>
      <point x="137" y="619"/>
      <point x="103" y="619" type="qcurve" smooth="yes"/>
      <point x="72" y="619"/>
      <point x="29" y="574"/>
      <point x="22" y="532" type="qcurve" smooth="yes"/>
      <point x="20" y="519"/>
      <point x="8" y="522" type="qcurve" smooth="yes"/>
      <point x="-23" y="530" type="line" smooth="yes"/>
      <point x="-35" y="533"/>
      <point x="-32" y="545" type="qcurve" smooth="yes"/>
      <point x="-21" y="608"/>
      <point x="54" y="679"/>
      <point x="105" y="679" type="qcurve" smooth="yes"/>
      <point x="164" y="679"/>
      <point x="239" y="596"/>
      <point x="239" y="527" type="qcurve" smooth="yes"/>
      <point x="239" y="484"/>
      <point x="203" y="414"/>
      <point x="172" y="397" type="qcurve"/>
      <point x="207" y="380"/>
      <point x="247" y="305"/>
      <point x="247" y="254" type="qcurve" smooth="yes"/>
      <point x="247" y="176"/>
      <point x="173" y="84"/>
      <point x="107" y="84" type="qcurve" smooth="yes"/>
      <point x="52" y="84"/>
    </contour>
  </outline>
</glyph>
<glyph name="uni325D" format="2">
  <advance width="500"/>
  <unicode hex="325D"/>
  <outline>
    <contour>
      <point x="290" y="163"/>
      <point x="282" y="237" type="qcurve"/>
      <point x="282" y="239" type="line" smooth="yes"/>
      <point x="282" y="248"/>
      <point x="292" y="250" type="qcurve" smooth="yes"/>
      <point x="323" y="257" type="line"/>
      <point x="327" y="258" type="line" smooth="yes"/>
      <point x="334" y="258"/>
      <point x="337" y="247" type="qcurve" smooth="yes"/>
      <point x="344" y="195"/>
      <point x="391" y="144"/>
      <point x="425" y="144" type="qcurve" smooth="yes"/>
      <point x="464" y="144"/>
      <point x="506" y="207"/>
      <point x="506" y="257" type="qcurve" smooth="yes"/>
      <point x="506" y="306"/>
      <point x="464" y="365"/>
      <point x="426" y="365" type="qcurve" smooth="yes"/>
      <point x="403" y="365" type="line" smooth="yes"/>
      <point x="391" y="365"/>
      <point x="391" y="377" type="qcurve" smooth="yes"/>
      <point x="391" y="412" type="line" smooth="yes"/>
      <point x="391" y="424"/>
      <point x="403" y="424" type="qcurve" smooth="yes"/>
      <point x="427" y="424" type="line" smooth="yes"/>
      <point x="459" y="424"/>
      <point x="500" y="481"/>
      <point x="500" y="523" type="qcurve" smooth="yes"/>
      <point x="500" y="566"/>
      <point x="457" y="619"/>
      <point x="423" y="619" type="qcurve" smooth="yes"/>
      <point x="392" y="619"/>
      <point x="349" y="574"/>
      <point x="342" y="532" type="qcurve" smooth="yes"/>
      <point x="340" y="519"/>
      <point x="328" y="522" type="qcurve" smooth="yes"/>
      <point x="297" y="530" type="line" smooth="yes"/>
      <point x="285" y="533"/>
      <point x="288" y="545" type="qcurve" smooth="yes"/>
      <point x="299" y="608"/>
      <point x="374" y="679"/>
      <point x="425" y="679" type="qcurve" smooth="yes"/>
      <point x="484" y="679"/>
      <point x="559" y="596"/>
      <point x="559" y="527" type="qcurve" smooth="yes"/>
      <point x="559" y="484"/>
      <point x="523" y="414"/>
      <point x="492" y="397" type="qcurve"/>
      <point x="527" y="380"/>
      <point x="567" y="305"/>
      <point x="567" y="254" type="qcurve" smooth="yes"/>
      <point x="567" y="176"/>
      <point x="493" y="84"/>
      <point x="427" y="84" type="qcurve" smooth="yes"/>
      <point x="372" y="84"/>
    </contour>
    <contour>
      <point x="-99" y="29"/>
      <point x="-222" y="245"/>
      <point x="-222" y="380" type="qcurve" smooth="yes"/>
      <point x="-222" y="515"/>
      <point x="-99" y="730"/>
      <point x="117" y="852"/>
      <point x="251" y="852" type="qcurve" smooth="yes"/>
      <point x="387" y="852"/>
      <point x="601" y="731"/>
      <point x="722" y="516"/>
      <point x="722" y="380" type="qcurve" smooth="yes"/>
      <point x="722" y="245"/>
      <point x="601" y="29"/>
      <point x="386" y="-93"/>
      <point x="251" y="-93" type="qcurve" smooth="yes"/>
      <point x="117" y="-93"/>
    </contour>
    <contour>
      <point x="571" y="60"/>
      <point x="681" y="257"/>
      <point x="681" y="380" type="qcurve" smooth="yes"/>
      <point x="681" y="504"/>
      <point x="571" y="700"/>
      <point x="375" y="811"/>
      <point x="251" y="811" type="qcurve" smooth="yes"/>
      <point x="128" y="811"/>
      <point x="-69" y="700"/>
      <point x="-181" y="503"/>
      <point x="-181" y="380" type="qcurve" smooth="yes"/>
      <point x="-181" y="257"/>
      <point x="-69" y="60"/>
      <point x="128" y="-52"/>
      <point x="251" y="-52" type="qcurve" smooth="yes"/>
      <point x="375" y="-52"/>
    </contour>
    <contour>
      <point x="-30" y="163"/>
      <point x="-38" y="237" type="qcurve"/>
      <point x="-38" y="239" type="line" smooth="yes"/>
      <point x="-38" y="248"/>
      <point x="-28" y="250" type="qcurve" smooth="yes"/>
      <point x="3" y="257" type="line"/>
      <point x="7" y="258" type="line" smooth="yes"/>
      <point x="14" y="258"/>
      <point x="17" y="247" type="qcurve" smooth="yes"/>
      <point x="24" y="195"/>
      <point x="71" y="144"/>
      <point x="105" y="144" type="qcurve" smooth="yes"/>
      <point x="144" y="144"/>
      <point x="186" y="207"/>
      <point x="186" y="257" type="qcurve" smooth="yes"/>
      <point x="186" y="306"/>
      <point x="144" y="365"/>
      <point x="106" y="365" type="qcurve" smooth="yes"/>
      <point x="83" y="365" type="line" smooth="yes"/>
      <point x="71" y="365"/>
      <point x="71" y="377" type="qcurve" smooth="yes"/>
      <point x="71" y="412" type="line" smooth="yes"/>
      <point x="71" y="424"/>
      <point x="83" y="424" type="qcurve" smooth="yes"/>
      <point x="107" y="424" type="line" smooth="yes"/>
      <point x="139" y="424"/>
      <point x="180" y="481"/>
      <point x="180" y="523" type="qcurve" smooth="yes"/>
      <point x="180" y="566"/>
      <point x="137" y="619"/>
      <point x="103" y="619" type="qcurve" smooth="yes"/>
      <point x="72" y="619"/>
      <point x="29" y="574"/>
      <point x="22" y="532" type="qcurve" smooth="yes"/>
      <point x="20" y="519"/>
      <point x="8" y="522" type="qcurve" smooth="yes"/>
      <point x="-23" y="530" type="line" smooth="yes"/>
      <point x="-35" y="533"/>
      <point x="-32" y="545" type="qcurve" smooth="yes"/>
      <point x="-21" y="608"/>
      <point x="54" y="679"/>
      <point x="105" y="679" type="qcurve" smooth="yes"/>
      <point x="164" y="679"/>
      <point x="239" y="596"/>
      <point x="239" y="527" type="qcurve" smooth="yes"/>
      <point x="239" y="484"/>
      <point x="203" y="414"/>
      <point x="172" y="397" type="qcurve"/>
      <point x="207" y="380"/>
      <point x="247" y="305"/>
      <point x="247" y="254" type="qcurve" smooth="yes"/>
      <point x="247" y="176"/>
      <point x="173" y="84"/>
      <point x="107" y="84" type="qcurve" smooth="yes"/>
      <point x="52" y="84"/>
    </contour>
  </outline>
</glyph>
<glyph name="uni325E" format="2">
  <advance width="500"/>
  <unicode hex="325E"/>
  <outline>
    <contour>
      <point x="-69" y="163"/>
      <point x="-77" y="237" type="qcurve"/>
      <point x="-77" y="239" type="line" smooth="yes"/>
      <point x="-77" y="248"/>
      <point x="-67" y="250" type="qcurve" smooth="yes"/>
      <point x="-36" y="257" type="line"/>
      <point x="-32" y="258" type="line" smooth="yes"/>
      <point x="-25" y="258"/>
      <point x="-22" y="247" type="qcurve" smooth="yes"/>
      <point x="-15" y="195"/>
      <point x="32" y="144"/>
      <point x="66" y="144" type="qcurve" smooth="yes"/>
      <point x="105" y="144"/>
      <point x="147" y="207"/>
      <point x="147" y="257" type="qcurve" smooth="yes"/>
      <point x="147" y="306"/>
      <point x="105" y="365"/>
      <point x="67" y="365" type="qcurve" smooth="yes"/>
      <point x="44" y="365" type="line" smooth="yes"/>
      <point x="32" y="365"/>
      <point x="32" y="377" type="qcurve" smooth="yes"/>
      <point x="32" y="412" type="line" smooth="yes"/>
      <point x="32" y="424"/>
      <point x="44" y="424" type="qcurve" smooth="yes"/>
      <point x="68" y="424" type="line" smooth="yes"/>
      <point x="100" y="424"/>
      <point x="141" y="481"/>
      <point x="141" y="523" type="qcurve" smooth="yes"/>
      <point x="141" y="566"/>
      <point x="98" y="619"/>
      <point x="64" y="619" type="qcurve" smooth="yes"/>
      <point x="33" y="619"/>
      <point x="-10" y="574"/>
      <point x="-17" y="532" type="qcurve" smooth="yes"/>
      <point x="-19" y="519"/>
      <point x="-31" y="522" type="qcurve" smooth="yes"/>
      <point x="-62" y="530" type="line" smooth="yes"/>
      <point x="-74" y="533"/>
      <point x="-71" y="545" type="qcurve" smooth="yes"/>
      <point x="-60" y="608"/>
      <point x="15" y="679"/>
      <point x="66" y="679" type="qcurve" smooth="yes"/>
      <point x="125" y="679"/>
      <point x="200" y="596"/>
      <point x="200" y="527" type="qcurve" smooth="yes"/>
      <point x="200" y="484"/>
      <point x="164" y="414"/>
      <point x="133" y="397" type="qcurve"/>
      <point x="168" y="380"/>
      <point x="208" y="305"/>
      <point x="208" y="254" type="qcurve" smooth="yes"/>
      <point x="208" y="176"/>
      <point x="134" y="84"/>
      <point x="68" y="84" type="qcurve" smooth="yes"/>
      <point x="13" y="84"/>
    </contour>
    <contour>
      <point x="-99" y="29"/>
      <point x="-222" y="245"/>
      <point x="-222" y="380" type="qcurve" smooth="yes"/>
      <point x="-222" y="515"/>
      <point x="-99" y="730"/>
      <point x="117" y="852"/>
      <point x="251" y="852" type="qcurve" smooth="yes"/>
      <point x="386" y="852"/>
      <point x="601" y="731"/>
      <point x="722" y="515"/>
      <point x="722" y="380" type="qcurve" smooth="yes"/>
      <point x="722" y="245"/>
      <point x="601" y="29"/>
      <point x="386" y="-93"/>
      <point x="251" y="-93" type="qcurve" smooth="yes"/>
      <point x="117" y="-93"/>
    </contour>
    <contour>
      <point x="571" y="60"/>
      <point x="681" y="257"/>
      <point x="681" y="380" type="qcurve" smooth="yes"/>
      <point x="681" y="504"/>
      <point x="571" y="700"/>
      <point x="375" y="811"/>
      <point x="251" y="811" type="qcurve" smooth="yes"/>
      <point x="128" y="811"/>
      <point x="-69" y="700"/>
      <point x="-181" y="503"/>
      <point x="-181" y="380" type="qcurve" smooth="yes"/>
      <point x="-181" y="257"/>
      <point x="-69" y="60"/>
      <point x="128" y="-52"/>
      <point x="251" y="-52" type="qcurve" smooth="yes"/>
      <point x="375" y="-52"/>
    </contour>
    <contour>
      <point x="452" y="107" type="qcurve" smooth="yes"/>
      <point x="452" y="222" type="line"/>
      <point x="260" y="222" type="line" smooth="yes"/>
      <point x="248" y="222"/>
      <point x="248" y="234" type="qcurve" smooth="yes"/>
      <point x="248" y="247" type="line" smooth="yes"/>
      <point x="248" y="255"/>
      <point x="251" y="262" type="qcurve" smooth="yes"/>
      <point x="448" y="665" type="line" smooth="yes"/>
      <point x="453" y="674"/>
      <point x="462" y="674" type="qcurve" smooth="yes"/>
      <point x="499" y="674" type="line" smooth="yes"/>
      <point x="511" y="674"/>
      <point x="511" y="662" type="qcurve" smooth="yes"/>
      <point x="511" y="279" type="line"/>
      <point x="552" y="279" type="line" smooth="yes"/>
      <point x="564" y="279"/>
      <point x="564" y="267" type="qcurve" smooth="yes"/>
      <point x="564" y="234" type="line" smooth="yes"/>
      <point x="564" y="222"/>
      <point x="552" y="222" type="qcurve" smooth="yes"/>
      <point x="511" y="222" type="line"/>
      <point x="511" y="107" type="line" smooth="yes"/>
      <point x="511" y="95"/>
      <point x="499" y="95" type="qcurve" smooth="yes"/>
      <point x="464" y="95" type="line" smooth="yes"/>
      <point x="452" y="95"/>
    </contour>
    <contour>
      <point x="453" y="279" type="line"/>
      <point x="457" y="569" type="line"/>
      <point x="322" y="279" type="line"/>
    </contour>
  </outline>
</glyph>
<glyph name="uni325F" format="2">
  <advance width="500"/>
  <unicode hex="325F"/>
  <outline>
    <contour>
      <point x="-60" y="163"/>
      <point x="-68" y="237" type="qcurve"/>
      <point x="-68" y="239" type="line" smooth="yes"/>
      <point x="-68" y="248"/>
      <point x="-58" y="250" type="qcurve" smooth="yes"/>
      <point x="-27" y="257" type="line"/>
      <point x="-23" y="258" type="line" smooth="yes"/>
      <point x="-16" y="258"/>
      <point x="-13" y="247" type="qcurve" smooth="yes"/>
      <point x="-6" y="195"/>
      <point x="41" y="144"/>
      <point x="75" y="144" type="qcurve" smooth="yes"/>
      <point x="114" y="144"/>
      <point x="156" y="207"/>
      <point x="156" y="257" type="qcurve" smooth="yes"/>
      <point x="156" y="306"/>
      <point x="114" y="365"/>
      <point x="76" y="365" type="qcurve" smooth="yes"/>
      <point x="53" y="365" type="line" smooth="yes"/>
      <point x="41" y="365"/>
      <point x="41" y="377" type="qcurve" smooth="yes"/>
      <point x="41" y="412" type="line" smooth="yes"/>
      <point x="41" y="424"/>
      <point x="53" y="424" type="qcurve" smooth="yes"/>
      <point x="77" y="424" type="line" smooth="yes"/>
      <point x="109" y="424"/>
      <point x="150" y="481"/>
      <point x="150" y="523" type="qcurve" smooth="yes"/>
      <point x="150" y="566"/>
      <point x="107" y="619"/>
      <point x="73" y="619" type="qcurve" smooth="yes"/>
      <point x="42" y="619"/>
      <point x="-1" y="574"/>
      <point x="-8" y="532" type="qcurve" smooth="yes"/>
      <point x="-10" y="519"/>
      <point x="-22" y="522" type="qcurve" smooth="yes"/>
      <point x="-53" y="530" type="line" smooth="yes"/>
      <point x="-65" y="533"/>
      <point x="-62" y="545" type="qcurve" smooth="yes"/>
      <point x="-51" y="608"/>
      <point x="24" y="679"/>
      <point x="75" y="679" type="qcurve" smooth="yes"/>
      <point x="134" y="679"/>
      <point x="209" y="596"/>
      <point x="209" y="527" type="qcurve" smooth="yes"/>
      <point x="209" y="484"/>
      <point x="173" y="414"/>
      <point x="142" y="397" type="qcurve"/>
      <point x="177" y="380"/>
      <point x="217" y="305"/>
      <point x="217" y="254" type="qcurve" smooth="yes"/>
      <point x="217" y="176"/>
      <point x="143" y="84"/>
      <point x="77" y="84" type="qcurve" smooth="yes"/>
      <point x="22" y="84"/>
    </contour>
    <contour>
      <point x="-99" y="29"/>
      <point x="-222" y="245"/>
      <point x="-222" y="380" type="qcurve" smooth="yes"/>
      <point x="-222" y="515"/>
      <point x="-99" y="730"/>
      <point x="117" y="852"/>
      <point x="251" y="852" type="qcurve" smooth="yes"/>
      <point x="386" y="852"/>
      <point x="601" y="731"/>
      <point x="722" y="515"/>
      <point x="722" y="380" type="qcurve" smooth="yes"/>
      <point x="722" y="245"/>
      <point x="601" y="29"/>
      <point x="386" y="-93"/>
      <point x="251" y="-93" type="qcurve" smooth="yes"/>
      <point x="117" y="-93"/>
    </contour>
    <contour>
      <point x="571" y="60"/>
      <point x="681" y="257"/>
      <point x="681" y="380" type="qcurve" smooth="yes"/>
      <point x="681" y="504"/>
      <point x="571" y="700"/>
      <point x="375" y="811"/>
      <point x="251" y="811" type="qcurve" smooth="yes"/>
      <point x="128" y="811"/>
      <point x="-69" y="700"/>
      <point x="-181" y="503"/>
      <point x="-181" y="380" type="qcurve" smooth="yes"/>
      <point x="-181" y="257"/>
      <point x="-69" y="60"/>
      <point x="128" y="-52"/>
      <point x="251" y="-52" type="qcurve" smooth="yes"/>
      <point x="375" y="-52"/>
    </contour>
    <contour>
      <point x="279" y="167"/>
      <point x="270" y="241" type="qcurve"/>
      <point x="270" y="243" type="line" smooth="yes"/>
      <point x="270" y="252"/>
      <point x="280" y="255" type="qcurve" smooth="yes"/>
      <point x="312" y="263" type="line"/>
      <point x="316" y="264" type="line" smooth="yes"/>
      <point x="324" y="264"/>
      <point x="326" y="253" type="qcurve" smooth="yes"/>
      <point x="343" y="144"/>
      <point x="415" y="144" type="qcurve" smooth="yes"/>
      <point x="454" y="144"/>
      <point x="500" y="216"/>
      <point x="500" y="278" type="qcurve" smooth="yes"/>
      <point x="500" y="342"/>
      <point x="456" y="412"/>
      <point x="416" y="412" type="qcurve" smooth="yes"/>
      <point x="362" y="412"/>
      <point x="329" y="356" type="qcurve" smooth="yes"/>
      <point x="323" y="346"/>
      <point x="313" y="350" type="qcurve" smooth="yes"/>
      <point x="290" y="358" type="line" smooth="yes"/>
      <point x="280" y="363"/>
      <point x="281" y="373" type="qcurve" smooth="yes"/>
      <point x="309" y="662" type="line" smooth="yes"/>
      <point x="311" y="673"/>
      <point x="321" y="673" type="qcurve" smooth="yes"/>
      <point x="526" y="673" type="line" smooth="yes"/>
      <point x="538" y="673"/>
      <point x="538" y="661" type="qcurve" smooth="yes"/>
      <point x="538" y="625" type="line" smooth="yes"/>
      <point x="538" y="613"/>
      <point x="526" y="613" type="qcurve" smooth="yes"/>
      <point x="358" y="613" type="line"/>
      <point x="339" y="431" type="line"/>
      <point x="373" y="468"/>
      <point x="428" y="468" type="qcurve" smooth="yes"/>
      <point x="489" y="468"/>
      <point x="560" y="366"/>
      <point x="560" y="278" type="qcurve" smooth="yes"/>
      <point x="560" y="191"/>
      <point x="483" y="85"/>
      <point x="417" y="85" type="qcurve" smooth="yes"/>
      <point x="360" y="85"/>
    </contour>
  </outline>
</glyph>
<glyph name="uni32B1" format="2">
  <advance width="500"/>
  <unicode hex="32B1"/>
  <outline>
    <contour>
      <point x="-60" y="163"/>
      <point x="-68" y="237" type="qcurve"/>
      <point x="-68" y="239" type="line" smooth="yes"/>
      <point x="-68" y="248"/>
      <point x="-58" y="250" type="qcurve" smooth="yes"/>
      <point x="-27" y="257" type="line"/>
      <point x="-23" y="258" type="line" smooth="yes"/>
      <point x="-16" y="258"/>
      <point x="-13" y="247" type="qcurve" smooth="yes"/>
      <point x="-6" y="195"/>
      <point x="41" y="144"/>
      <point x="75" y="144" type="qcurve" smooth="yes"/>
      <point x="114" y="144"/>
      <point x="156" y="207"/>
      <point x="156" y="257" type="qcurve" smooth="yes"/>
      <point x="156" y="306"/>
      <point x="114" y="365"/>
      <point x="76" y="365" type="qcurve" smooth="yes"/>
      <point x="53" y="365" type="line" smooth="yes"/>
      <point x="41" y="365"/>
      <point x="41" y="377" type="qcurve" smooth="yes"/>
      <point x="41" y="412" type="line" smooth="yes"/>
      <point x="41" y="424"/>
      <point x="53" y="424" type="qcurve" smooth="yes"/>
      <point x="77" y="424" type="line" smooth="yes"/>
      <point x="109" y="424"/>
      <point x="150" y="481"/>
      <point x="150" y="523" type="qcurve" smooth="yes"/>
      <point x="150" y="566"/>
      <point x="107" y="619"/>
      <point x="73" y="619" type="qcurve" smooth="yes"/>
      <point x="42" y="619"/>
      <point x="-1" y="574"/>
      <point x="-8" y="532" type="qcurve" smooth="yes"/>
      <point x="-10" y="519"/>
      <point x="-22" y="522" type="qcurve" smooth="yes"/>
      <point x="-53" y="530" type="line" smooth="yes"/>
      <point x="-65" y="533"/>
      <point x="-62" y="545" type="qcurve" smooth="yes"/>
      <point x="-51" y="608"/>
      <point x="24" y="679"/>
      <point x="75" y="679" type="qcurve" smooth="yes"/>
      <point x="134" y="679"/>
      <point x="209" y="596"/>
      <point x="209" y="527" type="qcurve" smooth="yes"/>
      <point x="209" y="484"/>
      <point x="173" y="414"/>
      <point x="142" y="397" type="qcurve"/>
      <point x="177" y="380"/>
      <point x="217" y="305"/>
      <point x="217" y="254" type="qcurve" smooth="yes"/>
      <point x="217" y="176"/>
      <point x="143" y="84"/>
      <point x="77" y="84" type="qcurve" smooth="yes"/>
      <point x="22" y="84"/>
    </contour>
    <contour>
      <point x="-99" y="29"/>
      <point x="-222" y="245"/>
      <point x="-222" y="380" type="qcurve" smooth="yes"/>
      <point x="-222" y="515"/>
      <point x="-99" y="730"/>
      <point x="117" y="852"/>
      <point x="251" y="852" type="qcurve" smooth="yes"/>
      <point x="386" y="852"/>
      <point x="601" y="731"/>
      <point x="722" y="515"/>
      <point x="722" y="380" type="qcurve" smooth="yes"/>
      <point x="722" y="245"/>
      <point x="601" y="29"/>
      <point x="386" y="-93"/>
      <point x="251" y="-93" type="qcurve" smooth="yes"/>
      <point x="117" y="-93"/>
    </contour>
    <contour>
      <point x="571" y="60"/>
      <point x="681" y="257"/>
      <point x="681" y="380" type="qcurve" smooth="yes"/>
      <point x="681" y="504"/>
      <point x="571" y="700"/>
      <point x="375" y="811"/>
      <point x="251" y="811" type="qcurve" smooth="yes"/>
      <point x="128" y="811"/>
      <point x="-69" y="700"/>
      <point x="-181" y="503"/>
      <point x="-181" y="380" type="qcurve" smooth="yes"/>
      <point x="-181" y="257"/>
      <point x="-69" y="60"/>
      <point x="128" y="-52"/>
      <point x="251" y="-52" type="qcurve" smooth="yes"/>
      <point x="375" y="-52"/>
    </contour>
    <contour>
      <point x="271" y="189"/>
      <point x="271" y="280" type="qcurve" smooth="yes"/>
      <point x="271" y="335"/>
      <point x="300" y="437"/>
      <point x="338" y="511" type="qcurve" smooth="yes"/>
      <point x="419" y="664" type="line" smooth="yes"/>
      <point x="424" y="673"/>
      <point x="433" y="673" type="qcurve" smooth="yes"/>
      <point x="473" y="673" type="line" smooth="yes"/>
      <point x="480" y="673"/>
      <point x="485" y="665"/>
      <point x="481" y="659" type="qcurve" smooth="yes"/>
      <point x="372" y="454" type="line"/>
      <point x="396" y="470"/>
      <point x="425" y="470" type="qcurve" smooth="yes"/>
      <point x="487" y="470"/>
      <point x="558" y="367"/>
      <point x="558" y="279" type="qcurve" smooth="yes"/>
      <point x="558" y="189"/>
      <point x="481" y="85"/>
      <point x="414" y="85" type="qcurve" smooth="yes"/>
      <point x="347" y="85"/>
    </contour>
    <contour>
      <point x="498" y="217"/>
      <point x="498" y="279" type="qcurve" smooth="yes"/>
      <point x="498" y="341"/>
      <point x="455" y="412"/>
      <point x="416" y="412" type="qcurve" smooth="yes"/>
      <point x="374" y="412"/>
      <point x="331" y="341"/>
      <point x="331" y="275" type="qcurve" smooth="yes"/>
      <point x="331" y="215"/>
      <point x="375" y="148"/>
      <point x="414" y="148" type="qcurve" smooth="yes"/>
      <point x="454" y="148"/>
    </contour>
  </outline>
</glyph>
<glyph name="uni32B2" format="2">
  <advance width="500"/>
  <unicode hex="32B2"/>
  <outline>
    <contour>
      <point x="-50" y="163"/>
      <point x="-58" y="237" type="qcurve"/>
      <point x="-58" y="239" type="line" smooth="yes"/>
      <point x="-58" y="248"/>
      <point x="-48" y="250" type="qcurve" smooth="yes"/>
      <point x="-17" y="257" type="line"/>
      <point x="-13" y="258" type="line" smooth="yes"/>
      <point x="-6" y="258"/>
      <point x="-3" y="247" type="qcurve" smooth="yes"/>
      <point x="4" y="195"/>
      <point x="51" y="144"/>
      <point x="85" y="144" type="qcurve" smooth="yes"/>
      <point x="124" y="144"/>
      <point x="166" y="207"/>
      <point x="166" y="257" type="qcurve" smooth="yes"/>
      <point x="166" y="306"/>
      <point x="124" y="365"/>
      <point x="86" y="365" type="qcurve" smooth="yes"/>
      <point x="63" y="365" type="line" smooth="yes"/>
      <point x="51" y="365"/>
      <point x="51" y="377" type="qcurve" smooth="yes"/>
      <point x="51" y="412" type="line" smooth="yes"/>
      <point x="51" y="424"/>
      <point x="63" y="424" type="qcurve" smooth="yes"/>
      <point x="87" y="424" type="line" smooth="yes"/>
      <point x="119" y="424"/>
      <point x="160" y="481"/>
      <point x="160" y="523" type="qcurve" smooth="yes"/>
      <point x="160" y="566"/>
      <point x="117" y="619"/>
      <point x="83" y="619" type="qcurve" smooth="yes"/>
      <point x="52" y="619"/>
      <point x="9" y="574"/>
      <point x="2" y="532" type="qcurve" smooth="yes"/>
      <point x="0" y="519"/>
      <point x="-12" y="522" type="qcurve" smooth="yes"/>
      <point x="-43" y="530" type="line" smooth="yes"/>
      <point x="-55" y="533"/>
      <point x="-52" y="545" type="qcurve" smooth="yes"/>
      <point x="-41" y="608"/>
      <point x="34" y="679"/>
      <point x="85" y="679" type="qcurve" smooth="yes"/>
      <point x="144" y="679"/>
      <point x="219" y="596"/>
      <point x="219" y="527" type="qcurve" smooth="yes"/>
      <point x="219" y="484"/>
      <point x="183" y="414"/>
      <point x="152" y="397" type="qcurve"/>
      <point x="187" y="380"/>
      <point x="227" y="305"/>
      <point x="227" y="254" type="qcurve" smooth="yes"/>
      <point x="227" y="176"/>
      <point x="153" y="84"/>
      <point x="87" y="84" type="qcurve" smooth="yes"/>
      <point x="32" y="84"/>
    </contour>
    <contour>
      <point x="-99" y="29"/>
      <point x="-222" y="245"/>
      <point x="-222" y="380" type="qcurve" smooth="yes"/>
      <point x="-222" y="515"/>
      <point x="-99" y="730"/>
      <point x="117" y="852"/>
      <point x="251" y="852" type="qcurve" smooth="yes"/>
      <point x="386" y="852"/>
      <point x="601" y="731"/>
      <point x="722" y="515"/>
      <point x="722" y="380" type="qcurve" smooth="yes"/>
      <point x="722" y="245"/>
      <point x="601" y="29"/>
      <point x="386" y="-93"/>
      <point x="251" y="-93" type="qcurve" smooth="yes"/>
      <point x="117" y="-93"/>
    </contour>
    <contour>
      <point x="571" y="60"/>
      <point x="681" y="257"/>
      <point x="681" y="380" type="qcurve" smooth="yes"/>
      <point x="681" y="504"/>
      <point x="571" y="700"/>
      <point x="375" y="811"/>
      <point x="251" y="811" type="qcurve" smooth="yes"/>
      <point x="128" y="811"/>
      <point x="-69" y="700"/>
      <point x="-181" y="503"/>
      <point x="-181" y="380" type="qcurve" smooth="yes"/>
      <point x="-181" y="257"/>
      <point x="-69" y="60"/>
      <point x="128" y="-52"/>
      <point x="251" y="-52" type="qcurve" smooth="yes"/>
      <point x="375" y="-52"/>
    </contour>
    <contour>
      <point x="334" y="100" type="qcurve" smooth="yes"/>
      <point x="483" y="602" type="line"/>
      <point x="294" y="602" type="line" smooth="yes"/>
      <point x="282" y="602"/>
      <point x="282" y="614" type="qcurve" smooth="yes"/>
      <point x="282" y="652" type="line" smooth="yes"/>
      <point x="282" y="664"/>
      <point x="294" y="664" type="qcurve" smooth="yes"/>
      <point x="541" y="664" type="line" smooth="yes"/>
      <point x="553" y="664"/>
      <point x="553" y="652" type="qcurve" smooth="yes"/>
      <point x="553" y="637" type="line" smooth="yes"/>
      <point x="553" y="628"/>
      <point x="551" y="623" type="qcurve" smooth="yes"/>
      <point x="401" y="96" type="line" smooth="yes"/>
      <point x="398" y="86"/>
      <point x="388" y="86" type="qcurve" smooth="yes"/>
      <point x="344" y="86" type="line" smooth="yes"/>
      <point x="331" y="86"/>
    </contour>
  </outline>
</glyph>
<glyph name="uni32B3" format="2">
  <advance width="500"/>
  <unicode hex="32B3"/>
  <outline>
    <contour>
      <point x="-60" y="163"/>
      <point x="-68" y="237" type="qcurve"/>
      <point x="-68" y="239" type="line" smooth="yes"/>
      <point x="-68" y="248"/>
      <point x="-58" y="250" type="qcurve" smooth="yes"/>
      <point x="-27" y="257" type="line"/>
      <point x="-23" y="258" type="line" smooth="yes"/>
      <point x="-16" y="258"/>
      <point x="-13" y="247" type="qcurve" smooth="yes"/>
      <point x="-6" y="195"/>
      <point x="41" y="144"/>
      <point x="75" y="144" type="qcurve" smooth="yes"/>
      <point x="114" y="144"/>
      <point x="156" y="207"/>
      <point x="156" y="257" type="qcurve" smooth="yes"/>
      <point x="156" y="306"/>
      <point x="114" y="365"/>
      <point x="76" y="365" type="qcurve" smooth="yes"/>
      <point x="53" y="365" type="line" smooth="yes"/>
      <point x="41" y="365"/>
      <point x="41" y="377" type="qcurve" smooth="yes"/>
      <point x="41" y="412" type="line" smooth="yes"/>
      <point x="41" y="424"/>
      <point x="53" y="424" type="qcurve" smooth="yes"/>
      <point x="77" y="424" type="line" smooth="yes"/>
      <point x="109" y="424"/>
      <point x="150" y="481"/>
      <point x="150" y="523" type="qcurve" smooth="yes"/>
      <point x="150" y="566"/>
      <point x="107" y="619"/>
      <point x="73" y="619" type="qcurve" smooth="yes"/>
      <point x="42" y="619"/>
      <point x="-1" y="574"/>
      <point x="-8" y="532" type="qcurve" smooth="yes"/>
      <point x="-10" y="519"/>
      <point x="-22" y="522" type="qcurve" smooth="yes"/>
      <point x="-53" y="530" type="line" smooth="yes"/>
      <point x="-65" y="533"/>
      <point x="-62" y="545" type="qcurve" smooth="yes"/>
      <point x="-51" y="608"/>
      <point x="24" y="679"/>
      <point x="75" y="679" type="qcurve" smooth="yes"/>
      <point x="134" y="679"/>
      <point x="209" y="596"/>
      <point x="209" y="527" type="qcurve" smooth="yes"/>
      <point x="209" y="484"/>
      <point x="173" y="414"/>
      <point x="142" y="397" type="qcurve"/>
      <point x="177" y="380"/>
      <point x="217" y="305"/>
      <point x="217" y="254" type="qcurve" smooth="yes"/>
      <point x="217" y="176"/>
      <point x="143" y="84"/>
      <point x="77" y="84" type="qcurve" smooth="yes"/>
      <point x="22" y="84"/>
    </contour>
    <contour>
      <point x="-99" y="29"/>
      <point x="-222" y="245"/>
      <point x="-222" y="380" type="qcurve" smooth="yes"/>
      <point x="-222" y="515"/>
      <point x="-99" y="730"/>
      <point x="117" y="852"/>
      <point x="251" y="852" type="qcurve" smooth="yes"/>
      <point x="386" y="852"/>
      <point x="601" y="731"/>
      <point x="722" y="515"/>
      <point x="722" y="380" type="qcurve" smooth="yes"/>
      <point x="722" y="245"/>
      <point x="601" y="29"/>
      <point x="386" y="-93"/>
      <point x="251" y="-93" type="qcurve" smooth="yes"/>
      <point x="117" y="-93"/>
    </contour>
    <contour>
      <point x="571" y="60"/>
      <point x="681" y="257"/>
      <point x="681" y="380" type="qcurve" smooth="yes"/>
      <point x="681" y="504"/>
      <point x="571" y="700"/>
      <point x="375" y="811"/>
      <point x="251" y="811" type="qcurve" smooth="yes"/>
      <point x="128" y="811"/>
      <point x="-69" y="700"/>
      <point x="-181" y="503"/>
      <point x="-181" y="380" type="qcurve" smooth="yes"/>
      <point x="-181" y="257"/>
      <point x="-69" y="60"/>
      <point x="128" y="-52"/>
      <point x="251" y="-52" type="qcurve" smooth="yes"/>
      <point x="375" y="-52"/>
    </contour>
    <contour>
      <point x="270" y="176"/>
      <point x="270" y="252" type="qcurve" smooth="yes"/>
      <point x="270" y="302"/>
      <point x="312" y="380"/>
      <point x="348" y="397" type="qcurve"/>
      <point x="317" y="413"/>
      <point x="282" y="483"/>
      <point x="282" y="527" type="qcurve" smooth="yes"/>
      <point x="282" y="594"/>
      <point x="358" y="679"/>
      <point x="417" y="679" type="qcurve" smooth="yes"/>
      <point x="476" y="679"/>
      <point x="553" y="594"/>
      <point x="553" y="527" type="qcurve" smooth="yes"/>
      <point x="553" y="483"/>
      <point x="517" y="413"/>
      <point x="486" y="397" type="qcurve"/>
      <point x="522" y="380"/>
      <point x="565" y="301"/>
      <point x="565" y="252" type="qcurve" smooth="yes"/>
      <point x="565" y="176"/>
      <point x="484" y="82"/>
      <point x="417" y="82" type="qcurve" smooth="yes"/>
      <point x="351" y="82"/>
    </contour>
    <contour>
      <point x="496" y="479"/>
      <point x="496" y="525" type="qcurve" smooth="yes"/>
      <point x="496" y="569"/>
      <point x="453" y="622"/>
      <point x="417" y="622" type="qcurve" smooth="yes"/>
      <point x="382" y="622"/>
      <point x="339" y="569"/>
      <point x="339" y="525" type="qcurve" smooth="yes"/>
      <point x="339" y="479"/>
      <point x="382" y="425"/>
      <point x="417" y="425" type="qcurve" smooth="yes"/>
      <point x="453" y="425"/>
    </contour>
    <contour>
      <point x="507" y="200"/>
      <point x="507" y="252" type="qcurve" smooth="yes"/>
      <point x="507" y="302"/>
      <point x="457" y="363"/>
      <point x="417" y="363" type="qcurve" smooth="yes"/>
      <point x="378" y="363"/>
      <point x="328" y="303"/>
      <point x="328" y="255" type="qcurve" smooth="yes"/>
      <point x="328" y="202"/>
      <point x="376" y="138"/>
      <point x="417" y="138" type="qcurve" smooth="yes"/>
      <point x="458" y="138"/>
    </contour>
  </outline>
</glyph>
<glyph name="uni32B4" format="2">
  <advance width="500"/>
  <unicode hex="32B4"/>
  <outline>
    <contour>
      <point x="-59" y="163"/>
      <point x="-67" y="237" type="qcurve"/>
      <point x="-67" y="239" type="line" smooth="yes"/>
      <point x="-67" y="248"/>
      <point x="-57" y="250" type="qcurve" smooth="yes"/>
      <point x="-26" y="257" type="line"/>
      <point x="-22" y="258" type="line" smooth="yes"/>
      <point x="-15" y="258"/>
      <point x="-12" y="247" type="qcurve" smooth="yes"/>
      <point x="-5" y="195"/>
      <point x="42" y="144"/>
      <point x="76" y="144" type="qcurve" smooth="yes"/>
      <point x="115" y="144"/>
      <point x="157" y="207"/>
      <point x="157" y="257" type="qcurve" smooth="yes"/>
      <point x="157" y="306"/>
      <point x="115" y="365"/>
      <point x="77" y="365" type="qcurve" smooth="yes"/>
      <point x="54" y="365" type="line" smooth="yes"/>
      <point x="42" y="365"/>
      <point x="42" y="377" type="qcurve" smooth="yes"/>
      <point x="42" y="412" type="line" smooth="yes"/>
      <point x="42" y="424"/>
      <point x="54" y="424" type="qcurve" smooth="yes"/>
      <point x="78" y="424" type="line" smooth="yes"/>
      <point x="110" y="424"/>
      <point x="151" y="481"/>
      <point x="151" y="523" type="qcurve" smooth="yes"/>
      <point x="151" y="566"/>
      <point x="108" y="619"/>
      <point x="74" y="619" type="qcurve" smooth="yes"/>
      <point x="43" y="619"/>
      <point x="0" y="574"/>
      <point x="-7" y="532" type="qcurve" smooth="yes"/>
      <point x="-9" y="519"/>
      <point x="-21" y="522" type="qcurve" smooth="yes"/>
      <point x="-52" y="530" type="line" smooth="yes"/>
      <point x="-64" y="533"/>
      <point x="-61" y="545" type="qcurve" smooth="yes"/>
      <point x="-50" y="608"/>
      <point x="25" y="679"/>
      <point x="76" y="679" type="qcurve" smooth="yes"/>
      <point x="135" y="679"/>
      <point x="210" y="596"/>
      <point x="210" y="527" type="qcurve" smooth="yes"/>
      <point x="210" y="484"/>
      <point x="174" y="414"/>
      <point x="143" y="397" type="qcurve"/>
      <point x="178" y="380"/>
      <point x="218" y="305"/>
      <point x="218" y="254" type="qcurve" smooth="yes"/>
      <point x="218" y="176"/>
      <point x="144" y="84"/>
      <point x="78" y="84" type="qcurve" smooth="yes"/>
      <point x="23" y="84"/>
    </contour>
    <contour>
      <point x="-99" y="29"/>
      <point x="-222" y="245"/>
      <point x="-222" y="380" type="qcurve" smooth="yes"/>
      <point x="-222" y="515"/>
      <point x="-99" y="730"/>
      <point x="117" y="852"/>
      <point x="251" y="852" type="qcurve" smooth="yes"/>
      <point x="386" y="852"/>
      <point x="601" y="731"/>
      <point x="722" y="515"/>
      <point x="722" y="380" type="qcurve" smooth="yes"/>
      <point x="722" y="245"/>
      <point x="601" y="29"/>
      <point x="386" y="-93"/>
      <point x="251" y="-93" type="qcurve" smooth="yes"/>
      <point x="117" y="-93"/>
    </contour>
    <contour>
      <point x="571" y="60"/>
      <point x="681" y="257"/>
      <point x="681" y="380" type="qcurve" smooth="yes"/>
      <point x="681" y="504"/>
      <point x="571" y="700"/>
      <point x="375" y="811"/>
      <point x="251" y="811" type="qcurve" smooth="yes"/>
      <point x="128" y="811"/>
      <point x="-69" y="700"/>
      <point x="-181" y="503"/>
      <point x="-181" y="380" type="qcurve" smooth="yes"/>
      <point x="-181" y="257"/>
      <point x="-69" y="60"/>
      <point x="128" y="-52"/>
      <point x="251" y="-52" type="qcurve" smooth="yes"/>
      <point x="375" y="-52"/>
    </contour>
    <contour>
      <point x="347" y="102"/>
      <point x="351" y="108" type="qcurve" smooth="yes"/>
      <point x="458" y="309" type="line"/>
      <point x="438" y="295"/>
      <point x="413" y="295" type="qcurve" smooth="yes"/>
      <point x="402" y="294" type="line"/>
      <point x="342" y="294"/>
      <point x="270" y="398"/>
      <point x="270" y="484" type="qcurve" smooth="yes"/>
      <point x="270" y="572"/>
      <point x="350" y="677"/>
      <point x="415" y="677" type="qcurve" smooth="yes"/>
      <point x="481" y="677"/>
      <point x="558" y="569"/>
      <point x="558" y="481" type="qcurve" smooth="yes"/>
      <point x="558" y="430"/>
      <point x="526" y="323"/>
      <point x="489" y="250" type="qcurve" smooth="yes"/>
      <point x="413" y="103" type="line" smooth="yes"/>
      <point x="407" y="94"/>
      <point x="398" y="94" type="qcurve" smooth="yes"/>
      <point x="359" y="94" type="line" smooth="yes"/>
      <point x="352" y="94"/>
    </contour>
    <contour>
      <point x="499" y="420"/>
      <point x="499" y="482" type="qcurve" smooth="yes"/>
      <point x="499" y="544"/>
      <point x="455" y="612"/>
      <point x="415" y="612" type="qcurve" smooth="yes"/>
      <point x="375" y="612"/>
      <point x="330" y="543"/>
      <point x="330" y="482" type="qcurve" smooth="yes"/>
      <point x="330" y="420"/>
      <point x="375" y="352"/>
      <point x="415" y="352" type="qcurve" smooth="yes"/>
      <point x="455" y="352"/>
    </contour>
  </outline>
</glyph>
<glyph name="uni32B5" format="2">
  <advance width="500"/>
  <unicode hex="32B5"/>
  <outline>
    <contour>
      <point x="102" y="107" type="qcurve" smooth="yes"/>
      <point x="102" y="222" type="line"/>
      <point x="-90" y="222" type="line" smooth="yes"/>
      <point x="-102" y="222"/>
      <point x="-102" y="234" type="qcurve" smooth="yes"/>
      <point x="-102" y="247" type="line" smooth="yes"/>
      <point x="-102" y="255"/>
      <point x="-99" y="262" type="qcurve" smooth="yes"/>
      <point x="98" y="665" type="line" smooth="yes"/>
      <point x="103" y="674"/>
      <point x="112" y="674" type="qcurve" smooth="yes"/>
      <point x="149" y="674" type="line" smooth="yes"/>
      <point x="161" y="674"/>
      <point x="161" y="662" type="qcurve" smooth="yes"/>
      <point x="161" y="279" type="line"/>
      <point x="202" y="279" type="line" smooth="yes"/>
      <point x="214" y="279"/>
      <point x="214" y="267" type="qcurve" smooth="yes"/>
      <point x="214" y="234" type="line" smooth="yes"/>
      <point x="214" y="222"/>
      <point x="202" y="222" type="qcurve" smooth="yes"/>
      <point x="161" y="222" type="line"/>
      <point x="161" y="107" type="line" smooth="yes"/>
      <point x="161" y="95"/>
      <point x="149" y="95" type="qcurve" smooth="yes"/>
      <point x="114" y="95" type="line" smooth="yes"/>
      <point x="102" y="95"/>
    </contour>
    <contour>
      <point x="103" y="279" type="line"/>
      <point x="107" y="569" type="line"/>
      <point x="-28" y="279" type="line"/>
    </contour>
    <contour>
      <point x="-99" y="29"/>
      <point x="-222" y="245"/>
      <point x="-222" y="380" type="qcurve" smooth="yes"/>
      <point x="-222" y="515"/>
      <point x="-99" y="730"/>
      <point x="117" y="852"/>
      <point x="251" y="852" type="qcurve" smooth="yes"/>
      <point x="387" y="852"/>
      <point x="601" y="731"/>
      <point x="722" y="516"/>
      <point x="722" y="380" type="qcurve" smooth="yes"/>
      <point x="722" y="245"/>
      <point x="601" y="29"/>
      <point x="386" y="-93"/>
      <point x="251" y="-93" type="qcurve" smooth="yes"/>
      <point x="117" y="-93"/>
    </contour>
    <contour>
      <point x="571" y="60"/>
      <point x="681" y="257"/>
      <point x="681" y="380" type="qcurve" smooth="yes"/>
      <point x="681" y="504"/>
      <point x="571" y="700"/>
      <point x="375" y="811"/>
      <point x="251" y="811" type="qcurve" smooth="yes"/>
      <point x="128" y="811"/>
      <point x="-69" y="700"/>
      <point x="-181" y="503"/>
      <point x="-181" y="380" type="qcurve" smooth="yes"/>
      <point x="-181" y="257"/>
      <point x="-69" y="60"/>
      <point x="128" y="-52"/>
      <point x="251" y="-52" type="qcurve" smooth="yes"/>
      <point x="375" y="-52"/>
    </contour>
    <contour>
      <point x="273" y="238"/>
      <point x="273" y="381" type="qcurve" smooth="yes"/>
      <point x="273" y="524"/>
      <point x="349" y="679"/>
      <point x="421" y="679" type="qcurve" smooth="yes"/>
      <point x="492" y="679"/>
      <point x="567" y="524"/>
      <point x="567" y="381" type="qcurve" smooth="yes"/>
      <point x="567" y="238"/>
      <point x="492" y="83"/>
      <point x="421" y="83" type="qcurve" smooth="yes"/>
      <point x="349" y="83"/>
    </contour>
    <contour>
      <point x="509" y="265"/>
      <point x="509" y="381" type="qcurve" smooth="yes"/>
      <point x="509" y="497"/>
      <point x="464" y="615"/>
      <point x="421" y="615" type="qcurve" smooth="yes"/>
      <point x="378" y="615"/>
      <point x="331" y="497"/>
      <point x="331" y="381" type="qcurve" smooth="yes"/>
      <point x="331" y="265"/>
      <point x="378" y="147"/>
      <point x="421" y="147" type="qcurve" smooth="yes"/>
      <point x="464" y="147"/>
    </contour>
  </outline>
</glyph>
<glyph name="uni32B6" format="2">
  <advance width="500"/>
  <unicode hex="32B6"/>
  <outline>
    <contour>
      <point x="132" y="107" type="qcurve" smooth="yes"/>
      <point x="132" y="222" type="line"/>
      <point x="-60" y="222" type="line" smooth="yes"/>
      <point x="-72" y="222"/>
      <point x="-72" y="234" type="qcurve" smooth="yes"/>
      <point x="-72" y="247" type="line" smooth="yes"/>
      <point x="-72" y="255"/>
      <point x="-69" y="262" type="qcurve" smooth="yes"/>
      <point x="128" y="665" type="line" smooth="yes"/>
      <point x="133" y="674"/>
      <point x="142" y="674" type="qcurve" smooth="yes"/>
      <point x="179" y="674" type="line" smooth="yes"/>
      <point x="191" y="674"/>
      <point x="191" y="662" type="qcurve" smooth="yes"/>
      <point x="191" y="279" type="line"/>
      <point x="232" y="279" type="line" smooth="yes"/>
      <point x="244" y="279"/>
      <point x="244" y="267" type="qcurve" smooth="yes"/>
      <point x="244" y="234" type="line" smooth="yes"/>
      <point x="244" y="222"/>
      <point x="232" y="222" type="qcurve" smooth="yes"/>
      <point x="191" y="222" type="line"/>
      <point x="191" y="107" type="line" smooth="yes"/>
      <point x="191" y="95"/>
      <point x="179" y="95" type="qcurve" smooth="yes"/>
      <point x="144" y="95" type="line" smooth="yes"/>
      <point x="132" y="95"/>
    </contour>
    <contour>
      <point x="133" y="279" type="line"/>
      <point x="137" y="569" type="line"/>
      <point x="2" y="279" type="line"/>
    </contour>
    <contour>
      <point x="-99" y="29"/>
      <point x="-222" y="245"/>
      <point x="-222" y="380" type="qcurve" smooth="yes"/>
      <point x="-222" y="515"/>
      <point x="-99" y="730"/>
      <point x="117" y="852"/>
      <point x="251" y="852" type="qcurve" smooth="yes"/>
      <point x="387" y="852"/>
      <point x="601" y="731"/>
      <point x="722" y="516"/>
      <point x="722" y="380" type="qcurve" smooth="yes"/>
      <point x="722" y="245"/>
      <point x="601" y="29"/>
      <point x="386" y="-93"/>
      <point x="251" y="-93" type="qcurve" smooth="yes"/>
      <point x="117" y="-93"/>
    </contour>
    <contour>
      <point x="571" y="60"/>
      <point x="681" y="257"/>
      <point x="681" y="380" type="qcurve" smooth="yes"/>
      <point x="681" y="504"/>
      <point x="571" y="700"/>
      <point x="375" y="811"/>
      <point x="251" y="811" type="qcurve" smooth="yes"/>
      <point x="128" y="811"/>
      <point x="-69" y="700"/>
      <point x="-181" y="503"/>
      <point x="-181" y="380" type="qcurve" smooth="yes"/>
      <point x="-181" y="257"/>
      <point x="-69" y="60"/>
      <point x="128" y="-52"/>
      <point x="251" y="-52" type="qcurve" smooth="yes"/>
      <point x="375" y="-52"/>
    </contour>
    <contour>
      <point x="423" y="101" type="qcurve" smooth="yes"/>
      <point x="423" y="581" type="line"/>
      <point x="339" y="521" type="line" smooth="yes"/>
      <point x="337" y="519"/>
      <point x="332" y="519" type="qcurve" smooth="yes"/>
      <point x="326" y="519"/>
      <point x="323" y="525" type="qcurve" smooth="yes"/>
      <point x="316" y="538" type="line" smooth="yes"/>
      <point x="314" y="544"/>
      <point x="314" y="545" type="qcurve" smooth="yes"/>
      <point x="314" y="550"/>
      <point x="318" y="554" type="qcurve" smooth="yes"/>
      <point x="431" y="668" type="line" smooth="yes"/>
      <point x="437" y="674"/>
      <point x="446" y="674" type="qcurve" smooth="yes"/>
      <point x="474" y="674" type="line" smooth="yes"/>
      <point x="486" y="674"/>
      <point x="486" y="662" type="qcurve" smooth="yes"/>
      <point x="486" y="101" type="line" smooth="yes"/>
      <point x="486" y="89"/>
      <point x="474" y="89" type="qcurve" smooth="yes"/>
      <point x="435" y="89" type="line" smooth="yes"/>
      <point x="423" y="89"/>
    </contour>
  </outline>
</glyph>
<glyph name="uni32B7" format="2">
  <advance width="500"/>
  <unicode hex="32B7"/>
  <outline>
    <contour>
      <point x="122" y="107" type="qcurve" smooth="yes"/>
      <point x="122" y="222" type="line"/>
      <point x="-70" y="222" type="line" smooth="yes"/>
      <point x="-82" y="222"/>
      <point x="-82" y="234" type="qcurve" smooth="yes"/>
      <point x="-82" y="247" type="line" smooth="yes"/>
      <point x="-82" y="255"/>
      <point x="-79" y="262" type="qcurve" smooth="yes"/>
      <point x="118" y="665" type="line" smooth="yes"/>
      <point x="123" y="674"/>
      <point x="132" y="674" type="qcurve" smooth="yes"/>
      <point x="169" y="674" type="line" smooth="yes"/>
      <point x="181" y="674"/>
      <point x="181" y="662" type="qcurve" smooth="yes"/>
      <point x="181" y="279" type="line"/>
      <point x="222" y="279" type="line" smooth="yes"/>
      <point x="234" y="279"/>
      <point x="234" y="267" type="qcurve" smooth="yes"/>
      <point x="234" y="234" type="line" smooth="yes"/>
      <point x="234" y="222"/>
      <point x="222" y="222" type="qcurve" smooth="yes"/>
      <point x="181" y="222" type="line"/>
      <point x="181" y="107" type="line" smooth="yes"/>
      <point x="181" y="95"/>
      <point x="169" y="95" type="qcurve" smooth="yes"/>
      <point x="134" y="95" type="line" smooth="yes"/>
      <point x="122" y="95"/>
    </contour>
    <contour>
      <point x="123" y="279" type="line"/>
      <point x="127" y="569" type="line"/>
      <point x="-8" y="279" type="line"/>
    </contour>
    <contour>
      <point x="290" y="109" type="qcurve" smooth="yes"/>
      <point x="290" y="122" type="line" smooth="yes"/>
      <point x="290" y="130"/>
      <point x="294" y="137" type="qcurve" smooth="yes"/>
      <point x="389" y="281" type="line" smooth="yes"/>
      <point x="447" y="369"/>
      <point x="483" y="474"/>
      <point x="483" y="523" type="qcurve" smooth="yes"/>
      <point x="483" y="566"/>
      <point x="447" y="616"/>
      <point x="416" y="616" type="qcurve" smooth="yes"/>
      <point x="388" y="616"/>
      <point x="348" y="574"/>
      <point x="340" y="531" type="qcurve" smooth="yes"/>
      <point x="338" y="518"/>
      <point x="326" y="521" type="qcurve" smooth="yes"/>
      <point x="293" y="528" type="line" smooth="yes"/>
      <point x="283" y="531"/>
      <point x="284" y="543" type="qcurve" smooth="yes"/>
      <point x="297" y="609"/>
      <point x="370" y="680"/>
      <point x="418" y="680" type="qcurve" smooth="yes"/>
      <point x="474" y="680"/>
      <point x="543" y="595"/>
      <point x="543" y="525" type="qcurve" smooth="yes"/>
      <point x="543" y="483"/>
      <point x="529" y="410"/>
      <point x="481" y="309"/>
      <point x="432" y="237" type="qcurve" smooth="yes"/>
      <point x="376" y="157" type="line"/>
      <point x="538" y="157" type="line" smooth="yes"/>
      <point x="550" y="157"/>
      <point x="550" y="145" type="qcurve" smooth="yes"/>
      <point x="550" y="109" type="line" smooth="yes"/>
      <point x="550" y="97"/>
      <point x="538" y="97" type="qcurve" smooth="yes"/>
      <point x="302" y="97" type="line" smooth="yes"/>
      <point x="290" y="97"/>
    </contour>
    <contour>
      <point x="-99" y="29"/>
      <point x="-222" y="245"/>
      <point x="-222" y="380" type="qcurve" smooth="yes"/>
      <point x="-222" y="515"/>
      <point x="-99" y="730"/>
      <point x="117" y="852"/>
      <point x="251" y="852" type="qcurve" smooth="yes"/>
      <point x="387" y="852"/>
      <point x="601" y="731"/>
      <point x="722" y="516"/>
      <point x="722" y="380" type="qcurve" smooth="yes"/>
      <point x="722" y="245"/>
      <point x="601" y="29"/>
      <point x="386" y="-93"/>
      <point x="251" y="-93" type="qcurve" smooth="yes"/>
      <point x="117" y="-93"/>
    </contour>
    <contour>
      <point x="571" y="60"/>
      <point x="681" y="257"/>
      <point x="681" y="380" type="qcurve" smooth="yes"/>
      <point x="681" y="504"/>
      <point x="571" y="700"/>
      <point x="375" y="811"/>
      <point x="251" y="811" type="qcurve" smooth="yes"/>
      <point x="128" y="811"/>
      <point x="-69" y="700"/>
      <point x="-181" y="503"/>
      <point x="-181" y="380" type="qcurve" smooth="yes"/>
      <point x="-181" y="257"/>
      <point x="-69" y="60"/>
      <point x="128" y="-52"/>
      <point x="251" y="-52" type="qcurve" smooth="yes"/>
      <point x="375" y="-52"/>
    </contour>
  </outline>
</glyph>
<glyph name="uni32B8" format="2">
  <advance width="500"/>
  <unicode hex="32B8"/>
  <outline>
    <contour>
      <point x="112" y="107" type="qcurve" smooth="yes"/>
      <point x="112" y="222" type="line"/>
      <point x="-80" y="222" type="line" smooth="yes"/>
      <point x="-92" y="222"/>
      <point x="-92" y="234" type="qcurve" smooth="yes"/>
      <point x="-92" y="247" type="line" smooth="yes"/>
      <point x="-92" y="255"/>
      <point x="-89" y="262" type="qcurve" smooth="yes"/>
      <point x="108" y="665" type="line" smooth="yes"/>
      <point x="113" y="674"/>
      <point x="122" y="674" type="qcurve" smooth="yes"/>
      <point x="159" y="674" type="line" smooth="yes"/>
      <point x="171" y="674"/>
      <point x="171" y="662" type="qcurve" smooth="yes"/>
      <point x="171" y="279" type="line"/>
      <point x="212" y="279" type="line" smooth="yes"/>
      <point x="224" y="279"/>
      <point x="224" y="267" type="qcurve" smooth="yes"/>
      <point x="224" y="234" type="line" smooth="yes"/>
      <point x="224" y="222"/>
      <point x="212" y="222" type="qcurve" smooth="yes"/>
      <point x="171" y="222" type="line"/>
      <point x="171" y="107" type="line" smooth="yes"/>
      <point x="171" y="95"/>
      <point x="159" y="95" type="qcurve" smooth="yes"/>
      <point x="124" y="95" type="line" smooth="yes"/>
      <point x="112" y="95"/>
    </contour>
    <contour>
      <point x="113" y="279" type="line"/>
      <point x="117" y="569" type="line"/>
      <point x="-18" y="279" type="line"/>
    </contour>
    <contour>
      <point x="290" y="163"/>
      <point x="282" y="237" type="qcurve"/>
      <point x="282" y="239" type="line" smooth="yes"/>
      <point x="282" y="248"/>
      <point x="292" y="250" type="qcurve" smooth="yes"/>
      <point x="323" y="257" type="line"/>
      <point x="327" y="258" type="line" smooth="yes"/>
      <point x="334" y="258"/>
      <point x="337" y="247" type="qcurve" smooth="yes"/>
      <point x="344" y="195"/>
      <point x="391" y="144"/>
      <point x="425" y="144" type="qcurve" smooth="yes"/>
      <point x="464" y="144"/>
      <point x="506" y="207"/>
      <point x="506" y="257" type="qcurve" smooth="yes"/>
      <point x="506" y="306"/>
      <point x="464" y="365"/>
      <point x="426" y="365" type="qcurve" smooth="yes"/>
      <point x="403" y="365" type="line" smooth="yes"/>
      <point x="391" y="365"/>
      <point x="391" y="377" type="qcurve" smooth="yes"/>
      <point x="391" y="412" type="line" smooth="yes"/>
      <point x="391" y="424"/>
      <point x="403" y="424" type="qcurve" smooth="yes"/>
      <point x="427" y="424" type="line" smooth="yes"/>
      <point x="459" y="424"/>
      <point x="500" y="481"/>
      <point x="500" y="523" type="qcurve" smooth="yes"/>
      <point x="500" y="566"/>
      <point x="457" y="619"/>
      <point x="423" y="619" type="qcurve" smooth="yes"/>
      <point x="392" y="619"/>
      <point x="349" y="574"/>
      <point x="342" y="532" type="qcurve" smooth="yes"/>
      <point x="340" y="519"/>
      <point x="328" y="522" type="qcurve" smooth="yes"/>
      <point x="297" y="530" type="line" smooth="yes"/>
      <point x="285" y="533"/>
      <point x="288" y="545" type="qcurve" smooth="yes"/>
      <point x="299" y="608"/>
      <point x="374" y="679"/>
      <point x="425" y="679" type="qcurve" smooth="yes"/>
      <point x="484" y="679"/>
      <point x="559" y="596"/>
      <point x="559" y="527" type="qcurve" smooth="yes"/>
      <point x="559" y="484"/>
      <point x="523" y="414"/>
      <point x="492" y="397" type="qcurve"/>
      <point x="527" y="380"/>
      <point x="567" y="305"/>
      <point x="567" y="254" type="qcurve" smooth="yes"/>
      <point x="567" y="176"/>
      <point x="493" y="84"/>
      <point x="427" y="84" type="qcurve" smooth="yes"/>
      <point x="372" y="84"/>
    </contour>
    <contour>
      <point x="-99" y="29"/>
      <point x="-222" y="245"/>
      <point x="-222" y="380" type="qcurve" smooth="yes"/>
      <point x="-222" y="515"/>
      <point x="-99" y="730"/>
      <point x="117" y="852"/>
      <point x="251" y="852" type="qcurve" smooth="yes"/>
      <point x="387" y="852"/>
      <point x="601" y="731"/>
      <point x="722" y="516"/>
      <point x="722" y="380" type="qcurve" smooth="yes"/>
      <point x="722" y="245"/>
      <point x="601" y="29"/>
      <point x="386" y="-93"/>
      <point x="251" y="-93" type="qcurve" smooth="yes"/>
      <point x="117" y="-93"/>
    </contour>
    <contour>
      <point x="571" y="60"/>
      <point x="681" y="257"/>
      <point x="681" y="380" type="qcurve" smooth="yes"/>
      <point x="681" y="504"/>
      <point x="571" y="700"/>
      <point x="375" y="811"/>
      <point x="251" y="811" type="qcurve" smooth="yes"/>
      <point x="128" y="811"/>
      <point x="-69" y="700"/>
      <point x="-181" y="503"/>
      <point x="-181" y="380" type="qcurve" smooth="yes"/>
      <point x="-181" y="257"/>
      <point x="-69" y="60"/>
      <point x="128" y="-52"/>
      <point x="251" y="-52" type="qcurve" smooth="yes"/>
      <point x="375" y="-52"/>
    </contour>
  </outline>
</glyph>
<glyph name="uni32B9" format="2">
  <advance width="500"/>
  <unicode hex="32B9"/>
  <outline>
    <contour>
      <point x="92" y="107" type="qcurve" smooth="yes"/>
      <point x="92" y="222" type="line"/>
      <point x="-100" y="222" type="line" smooth="yes"/>
      <point x="-112" y="222"/>
      <point x="-112" y="234" type="qcurve" smooth="yes"/>
      <point x="-112" y="247" type="line" smooth="yes"/>
      <point x="-112" y="255"/>
      <point x="-109" y="262" type="qcurve" smooth="yes"/>
      <point x="88" y="665" type="line" smooth="yes"/>
      <point x="93" y="674"/>
      <point x="102" y="674" type="qcurve" smooth="yes"/>
      <point x="139" y="674" type="line" smooth="yes"/>
      <point x="151" y="674"/>
      <point x="151" y="662" type="qcurve" smooth="yes"/>
      <point x="151" y="279" type="line"/>
      <point x="192" y="279" type="line" smooth="yes"/>
      <point x="204" y="279"/>
      <point x="204" y="267" type="qcurve" smooth="yes"/>
      <point x="204" y="234" type="line" smooth="yes"/>
      <point x="204" y="222"/>
      <point x="192" y="222" type="qcurve" smooth="yes"/>
      <point x="151" y="222" type="line"/>
      <point x="151" y="107" type="line" smooth="yes"/>
      <point x="151" y="95"/>
      <point x="139" y="95" type="qcurve" smooth="yes"/>
      <point x="104" y="95" type="line" smooth="yes"/>
      <point x="92" y="95"/>
    </contour>
    <contour>
      <point x="93" y="279" type="line"/>
      <point x="97" y="569" type="line"/>
      <point x="-38" y="279" type="line"/>
    </contour>
    <contour>
      <point x="-99" y="29"/>
      <point x="-222" y="245"/>
      <point x="-222" y="380" type="qcurve" smooth="yes"/>
      <point x="-222" y="515"/>
      <point x="-99" y="730"/>
      <point x="117" y="852"/>
      <point x="251" y="852" type="qcurve" smooth="yes"/>
      <point x="386" y="852"/>
      <point x="601" y="731"/>
      <point x="722" y="515"/>
      <point x="722" y="380" type="qcurve" smooth="yes"/>
      <point x="722" y="245"/>
      <point x="601" y="29"/>
      <point x="386" y="-93"/>
      <point x="251" y="-93" type="qcurve" smooth="yes"/>
      <point x="117" y="-93"/>
    </contour>
    <contour>
      <point x="571" y="60"/>
      <point x="681" y="257"/>
      <point x="681" y="380" type="qcurve" smooth="yes"/>
      <point x="681" y="504"/>
      <point x="571" y="700"/>
      <point x="375" y="811"/>
      <point x="251" y="811" type="qcurve" smooth="yes"/>
      <point x="128" y="811"/>
      <point x="-69" y="700"/>
      <point x="-181" y="503"/>
      <point x="-181" y="380" type="qcurve" smooth="yes"/>
      <point x="-181" y="257"/>
      <point x="-69" y="60"/>
      <point x="128" y="-52"/>
      <point x="251" y="-52" type="qcurve" smooth="yes"/>
      <point x="375" y="-52"/>
    </contour>
    <contour>
      <point x="452" y="107" type="qcurve" smooth="yes"/>
      <point x="452" y="222" type="line"/>
      <point x="260" y="222" type="line" smooth="yes"/>
      <point x="248" y="222"/>
      <point x="248" y="234" type="qcurve" smooth="yes"/>
      <point x="248" y="247" type="line" smooth="yes"/>
      <point x="248" y="255"/>
      <point x="251" y="262" type="qcurve" smooth="yes"/>
      <point x="448" y="665" type="line" smooth="yes"/>
      <point x="453" y="674"/>
      <point x="462" y="674" type="qcurve" smooth="yes"/>
      <point x="499" y="674" type="line" smooth="yes"/>
      <point x="511" y="674"/>
      <point x="511" y="662" type="qcurve" smooth="yes"/>
      <point x="511" y="279" type="line"/>
      <point x="552" y="279" type="line" smooth="yes"/>
      <point x="564" y="279"/>
      <point x="564" y="267" type="qcurve" smooth="yes"/>
      <point x="564" y="234" type="line" smooth="yes"/>
      <point x="564" y="222"/>
      <point x="552" y="222" type="qcurve" smooth="yes"/>
      <point x="511" y="222" type="line"/>
      <point x="511" y="107" type="line" smooth="yes"/>
      <point x="511" y="95"/>
      <point x="499" y="95" type="qcurve" smooth="yes"/>
      <point x="464" y="95" type="line" smooth="yes"/>
      <point x="452" y="95"/>
    </contour>
    <contour>
      <point x="453" y="279" type="line"/>
      <point x="457" y="569" type="line"/>
      <point x="322" y="279" type="line"/>
    </contour>
  </outline>
</glyph>
<glyph name="uni32BA" format="2">
  <advance width="500"/>
  <unicode hex="32BA"/>
  <outline>
    <contour>
      <point x="102" y="107" type="qcurve" smooth="yes"/>
      <point x="102" y="222" type="line"/>
      <point x="-90" y="222" type="line" smooth="yes"/>
      <point x="-102" y="222"/>
      <point x="-102" y="234" type="qcurve" smooth="yes"/>
      <point x="-102" y="247" type="line" smooth="yes"/>
      <point x="-102" y="255"/>
      <point x="-99" y="262" type="qcurve" smooth="yes"/>
      <point x="98" y="665" type="line" smooth="yes"/>
      <point x="103" y="674"/>
      <point x="112" y="674" type="qcurve" smooth="yes"/>
      <point x="149" y="674" type="line" smooth="yes"/>
      <point x="161" y="674"/>
      <point x="161" y="662" type="qcurve" smooth="yes"/>
      <point x="161" y="279" type="line"/>
      <point x="202" y="279" type="line" smooth="yes"/>
      <point x="214" y="279"/>
      <point x="214" y="267" type="qcurve" smooth="yes"/>
      <point x="214" y="234" type="line" smooth="yes"/>
      <point x="214" y="222"/>
      <point x="202" y="222" type="qcurve" smooth="yes"/>
      <point x="161" y="222" type="line"/>
      <point x="161" y="107" type="line" smooth="yes"/>
      <point x="161" y="95"/>
      <point x="149" y="95" type="qcurve" smooth="yes"/>
      <point x="114" y="95" type="line" smooth="yes"/>
      <point x="102" y="95"/>
    </contour>
    <contour>
      <point x="103" y="279" type="line"/>
      <point x="107" y="569" type="line"/>
      <point x="-28" y="279" type="line"/>
    </contour>
    <contour>
      <point x="-99" y="29"/>
      <point x="-222" y="245"/>
      <point x="-222" y="380" type="qcurve" smooth="yes"/>
      <point x="-222" y="515"/>
      <point x="-99" y="730"/>
      <point x="117" y="852"/>
      <point x="251" y="852" type="qcurve" smooth="yes"/>
      <point x="386" y="852"/>
      <point x="601" y="731"/>
      <point x="722" y="515"/>
      <point x="722" y="380" type="qcurve" smooth="yes"/>
      <point x="722" y="245"/>
      <point x="601" y="29"/>
      <point x="386" y="-93"/>
      <point x="251" y="-93" type="qcurve" smooth="yes"/>
      <point x="117" y="-93"/>
    </contour>
    <contour>
      <point x="571" y="60"/>
      <point x="681" y="257"/>
      <point x="681" y="380" type="qcurve" smooth="yes"/>
      <point x="681" y="504"/>
      <point x="571" y="700"/>
      <point x="375" y="811"/>
      <point x="251" y="811" type="qcurve" smooth="yes"/>
      <point x="128" y="811"/>
      <point x="-69" y="700"/>
      <point x="-181" y="503"/>
      <point x="-181" y="380" type="qcurve" smooth="yes"/>
      <point x="-181" y="257"/>
      <point x="-69" y="60"/>
      <point x="128" y="-52"/>
      <point x="251" y="-52" type="qcurve" smooth="yes"/>
      <point x="375" y="-52"/>
    </contour>
    <contour>
      <point x="279" y="167"/>
      <point x="270" y="241" type="qcurve"/>
      <point x="270" y="243" type="line" smooth="yes"/>
      <point x="270" y="252"/>
      <point x="280" y="255" type="qcurve" smooth="yes"/>
      <point x="312" y="263" type="line"/>
      <point x="316" y="264" type="line" smooth="yes"/>
      <point x="324" y="264"/>
      <point x="326" y="253" type="qcurve" smooth="yes"/>
      <point x="343" y="144"/>
      <point x="415" y="144" type="qcurve" smooth="yes"/>
      <point x="454" y="144"/>
      <point x="500" y="216"/>
      <point x="500" y="278" type="qcurve" smooth="yes"/>
      <point x="500" y="342"/>
      <point x="456" y="412"/>
      <point x="416" y="412" type="qcurve" smooth="yes"/>
      <point x="362" y="412"/>
      <point x="329" y="356" type="qcurve" smooth="yes"/>
      <point x="323" y="346"/>
      <point x="313" y="350" type="qcurve" smooth="yes"/>
      <point x="290" y="358" type="line" smooth="yes"/>
      <point x="280" y="363"/>
      <point x="281" y="373" type="qcurve" smooth="yes"/>
      <point x="309" y="662" type="line" smooth="yes"/>
      <point x="311" y="673"/>
      <point x="321" y="673" type="qcurve" smooth="yes"/>
      <point x="526" y="673" type="line" smooth="yes"/>
      <point x="538" y="673"/>
      <point x="538" y="661" type="qcurve" smooth="yes"/>
      <point x="538" y="625" type="line" smooth="yes"/>
      <point x="538" y="613"/>
      <point x="526" y="613" type="qcurve" smooth="yes"/>
      <point x="358" y="613" type="line"/>
      <point x="339" y="431" type="line"/>
      <point x="373" y="468"/>
      <point x="428" y="468" type="qcurve" smooth="yes"/>
      <point x="489" y="468"/>
      <point x="560" y="366"/>
      <point x="560" y="278" type="qcurve" smooth="yes"/>
      <point x="560" y="191"/>
      <point x="483" y="85"/>
      <point x="417" y="85" type="qcurve" smooth="yes"/>
      <point x="360" y="85"/>
    </contour>
  </outline>
</glyph>
<glyph name="uni32BB" format="2">
  <advance width="500"/>
  <unicode hex="32BB"/>
  <outline>
    <contour>
      <point x="112" y="107" type="qcurve" smooth="yes"/>
      <point x="112" y="222" type="line"/>
      <point x="-80" y="222" type="line" smooth="yes"/>
      <point x="-92" y="222"/>
      <point x="-92" y="234" type="qcurve" smooth="yes"/>
      <point x="-92" y="247" type="line" smooth="yes"/>
      <point x="-92" y="255"/>
      <point x="-89" y="262" type="qcurve" smooth="yes"/>
      <point x="108" y="665" type="line" smooth="yes"/>
      <point x="113" y="674"/>
      <point x="122" y="674" type="qcurve" smooth="yes"/>
      <point x="159" y="674" type="line" smooth="yes"/>
      <point x="171" y="674"/>
      <point x="171" y="662" type="qcurve" smooth="yes"/>
      <point x="171" y="279" type="line"/>
      <point x="212" y="279" type="line" smooth="yes"/>
      <point x="224" y="279"/>
      <point x="224" y="267" type="qcurve" smooth="yes"/>
      <point x="224" y="234" type="line" smooth="yes"/>
      <point x="224" y="222"/>
      <point x="212" y="222" type="qcurve" smooth="yes"/>
      <point x="171" y="222" type="line"/>
      <point x="171" y="107" type="line" smooth="yes"/>
      <point x="171" y="95"/>
      <point x="159" y="95" type="qcurve" smooth="yes"/>
      <point x="124" y="95" type="line" smooth="yes"/>
      <point x="112" y="95"/>
    </contour>
    <contour>
      <point x="113" y="279" type="line"/>
      <point x="117" y="569" type="line"/>
      <point x="-18" y="279" type="line"/>
    </contour>
    <contour>
      <point x="-99" y="29"/>
      <point x="-222" y="245"/>
      <point x="-222" y="380" type="qcurve" smooth="yes"/>
      <point x="-222" y="515"/>
      <point x="-99" y="730"/>
      <point x="117" y="852"/>
      <point x="251" y="852" type="qcurve" smooth="yes"/>
      <point x="386" y="852"/>
      <point x="601" y="731"/>
      <point x="722" y="515"/>
      <point x="722" y="380" type="qcurve" smooth="yes"/>
      <point x="722" y="245"/>
      <point x="601" y="29"/>
      <point x="386" y="-93"/>
      <point x="251" y="-93" type="qcurve" smooth="yes"/>
      <point x="117" y="-93"/>
    </contour>
    <contour>
      <point x="571" y="60"/>
      <point x="681" y="257"/>
      <point x="681" y="380" type="qcurve" smooth="yes"/>
      <point x="681" y="504"/>
      <point x="571" y="700"/>
      <point x="375" y="811"/>
      <point x="251" y="811" type="qcurve" smooth="yes"/>
      <point x="128" y="811"/>
      <point x="-69" y="700"/>
      <point x="-181" y="503"/>
      <point x="-181" y="380" type="qcurve" smooth="yes"/>
      <point x="-181" y="257"/>
      <point x="-69" y="60"/>
      <point x="128" y="-52"/>
      <point x="251" y="-52" type="qcurve" smooth="yes"/>
      <point x="375" y="-52"/>
    </contour>
    <contour>
      <point x="271" y="189"/>
      <point x="271" y="280" type="qcurve" smooth="yes"/>
      <point x="271" y="335"/>
      <point x="300" y="437"/>
      <point x="338" y="511" type="qcurve" smooth="yes"/>
      <point x="419" y="664" type="line" smooth="yes"/>
      <point x="424" y="673"/>
      <point x="433" y="673" type="qcurve" smooth="yes"/>
      <point x="473" y="673" type="line" smooth="yes"/>
      <point x="480" y="673"/>
      <point x="485" y="665"/>
      <point x="481" y="659" type="qcurve" smooth="yes"/>
      <point x="372" y="454" type="line"/>
      <point x="396" y="470"/>
      <point x="425" y="470" type="qcurve" smooth="yes"/>
      <point x="487" y="470"/>
      <point x="558" y="367"/>
      <point x="558" y="279" type="qcurve" smooth="yes"/>
      <point x="558" y="189"/>
      <point x="481" y="85"/>
      <point x="414" y="85" type="qcurve" smooth="yes"/>
      <point x="347" y="85"/>
    </contour>
    <contour>
      <point x="498" y="217"/>
      <point x="498" y="279" type="qcurve" smooth="yes"/>
      <point x="498" y="341"/>
      <point x="455" y="412"/>
      <point x="416" y="412" type="qcurve" smooth="yes"/>
      <point x="374" y="412"/>
      <point x="331" y="341"/>
      <point x="331" y="275" type="qcurve" smooth="yes"/>
      <point x="331" y="215"/>
      <point x="375" y="148"/>
      <point x="414" y="148" type="qcurve" smooth="yes"/>
      <point x="454" y="148"/>
    </contour>
  </outline>
</glyph>
